<svg width="32px" height="20px" viewBox="0 0 32 20" version="1.1" xmlns="http://www.w3.org/2000/svg" xmlns:xlink="http://www.w3.org/1999/xlink">
    <g id="acceptance-marks" stroke="none" stroke-width="1" fill="none" fill-rule="evenodd">
        <g id="Template">
            <g id="container">
                <path d="M0,2.00001277 C0,0.895436216 0.897688232,0 2.00174332,0 L29.9982567,0 C31.103789,0 32,0.894946575 32,2.00001277 L32,17.9999872 C32,19.1045638 31.1023118,20 29.9982567,20 L2.00174332,20 C0.89621101,20 0,19.1050534 0,17.9999872 L0,2.00001277 Z" id="Path" fill="#E0E0E0"></path>
                <path d="M1,2.00001277 L1,17.9999872 C1,18.552368 1.44809514,19 2.00174332,19 L29.9982567,19 C30.5508447,19 31,18.5514616 31,17.9999872 L31,2.00001277 C31,1.44763204 30.5519049,1 29.9982567,1 L2.00174332,1 C1.44915533,1 1,1.44853838 1,2.00001277 Z" fill="#FFFFFF" fill-rule="nonzero"></path>
            </g>
            <g id="ic_account_balance_black_24dp" opacity="0.54" transform="translate(8.000000, 2.000000)">
                <polygon id="Shape" points="0 0 16 0 16 16 0 16"></polygon>
                <path d="M2.66666667,6.66666667 L2.66666667,11.3333333 L4.66666667,11.3333333 L4.66666667,6.66666667 L2.66666667,6.66666667 Z M6.66666667,6.66666667 L6.66666667,11.3333333 L8.66666667,11.3333333 L8.66666667,6.66666667 L6.66666667,6.66666667 Z M1.33333333,14.6666667 L14,14.6666667 L14,12.6666667 L1.33333333,12.6666667 L1.33333333,14.6666667 Z M10.6666667,6.66666667 L10.6666667,11.3333333 L12.6666667,11.3333333 L12.6666667,6.66666667 L10.6666667,6.66666667 Z M7.66666667,0.666666667 L1.33333333,4 L1.33333333,5.33333333 L14,5.33333333 L14,4 L7.66666667,0.666666667 Z" id="Shape" fill="#000000" fill-rule="nonzero"></path>
            </g>
        </g>
    </g>
</svg>
