<?xml version="1.0" encoding="UTF-8" standalone="no"?>
<svg width="128px" height="80px" viewBox="0 0 128 80" version="1.1" xmlns="http://www.w3.org/2000/svg" xmlns:xlink="http://www.w3.org/1999/xlink">
  <!-- Generator: Sketch 41 (35326) - http://www.bohemiancoding.com/sketch -->
  <title>cb_xxxhdpi_128x80</title>
  <desc>Created with Sketch.</desc>
  <defs>
    <linearGradient x1="50%" y1="0%" x2="50%" y2="100%" id="linearGradient-1">
      <stop stop-color="#002C61" offset="0%"></stop>
      <stop stop-color="#2BABE4" offset="49.1670694%"></stop>
      <stop stop-color="#0A6F17" offset="100%"></stop>
    </linearGradient>
  </defs>
  <g id="Page-13" stroke="none" stroke-width="1" fill="none" fill-rule="evenodd">
    <g id="cb_xxxhdpi_128x80">
      <g id="container">
        <path d="M0,8.00005106 C0,3.58174486 3.59075293,0 8.00697327,0 L119.993027,0 C124.415156,0 128,3.5797863 128,8.00005106 L128,71.9999489 C128,76.4182551 124.409247,80 119.993027,80 L8.00697327,80 C3.58484404,80 0,76.4202137 0,71.9999489 L0,8.00005106 Z" id="Path" fill="#E0E0E0"></path>
        <path d="M4,8.00005106 L4,71.9999489 C4,74.2094718 5.79238055,76 8.00697327,76 L119.993027,76 C122.203379,76 124,74.2058465 124,71.9999489 L124,8.00005106 C124,5.79052815 122.207619,4 119.993027,4 L8.00697327,4 C5.79662132,4 4,5.79415354 4,8.00005106 Z" fill="#FFFFFF"></path>
      </g>
      <path d="M26,12.0001399 L26,67.9986012 L102,68 L102,12.0001399 L26,12.0001399 Z M36.9654316,49.9469902 C34.1766974,47.5641216 33.0886155,43.4306454 33.0886155,39.8762755 L33.0886155,39.8762755 C33.0886155,36.4827684 33.6452435,32.7052887 36.2158019,30.3587891 L36.2158019,30.3587891 C39.1961392,27.6339121 44.5379498,26.5994939 49.3699843,26.5994939 L49.3699843,26.5994939 C54.0104156,26.5994939 59.2039785,27.5415908 62.1689317,30.0825246 L62.1689317,30.0825246 C64.6590727,32.2143073 65.4807284,35.5336775 65.6247803,38.753033 L65.6247803,38.753033 L49.3273281,38.753033 L49.3273281,39.8594898 L65.6499545,39.8594898 L65.6499545,39.8762755 C65.6499545,43.5376541 64.6338986,47.5851037 61.6941196,49.9875556 L61.6941196,49.9875556 C58.7473478,52.3935045 53.8712586,53.1523576 49.3699843,53.1523576 L49.3699843,53.1523576 C44.7358465,53.1523576 39.9303847,52.4802306 36.9654316,49.9469902 L36.9654316,49.9469902 Z M66.7184564,27.1128563 L88.4157596,27.1128563 C88.6325368,27.089776 88.9080537,27.1317402 89.1311245,27.1317402 L89.1311245,27.1317402 C92.3646016,27.1317402 94.9309644,29.6964538 94.9309644,32.9311962 L94.9309644,32.9311962 C94.9309644,35.9945846 92.5736868,38.4949531 89.5758674,38.753033 L89.5758674,38.753033 L66.7184564,38.753033 L66.7184564,27.1128563 Z M66.7184564,39.8594898 L89.3898586,39.8594898 L89.3898586,39.8538946 C92.7072495,40.0210521 95.3456382,42.9298723 95.3456382,46.2863109 L95.3456382,46.2863109 C95.3456382,49.643449 92.7072495,52.3774183 89.3898586,52.5431769 L89.3898586,52.5431769 L89.3898586,52.5592632 L66.7184564,52.5592632 L66.7184564,39.8594898 Z" id="Page-1" fill="url(#linearGradient-1)"></path>
    </g>
  </g>
</svg>