<?xml version="1.0" encoding="UTF-8" standalone="no"?>
<svg width="128px" height="80px" viewBox="0 0 128 80" version="1.1" xmlns="http://www.w3.org/2000/svg" xmlns:xlink="http://www.w3.org/1999/xlink">
  <!-- Generator: Sketch 41 (35326) - http://www.bohemiancoding.com/sketch -->
  <title>diners-club_xxxhdpi_128x80</title>
  <desc>Created with Sketch.</desc>
  <defs></defs>
  <g id="Page-13" stroke="none" stroke-width="1" fill="none">
    <g id="diners-club_xxxhdpi_128x80">
      <g id="container">
        <path d="M0,8.00005106 C0,3.58174486 3.59075293,0 8.00697327,0 L119.993027,0 C124.415156,0 128,3.5797863 128,8.00005106 L128,71.9999489 C128,76.4182551 124.409247,80 119.993027,80 L8.00697327,80 C3.58484404,80 0,76.4202137 0,71.9999489 L0,8.00005106 Z" id="Path" fill="#E0E0E0"></path>
        <path d="M4,8.00005106 L4,71.9999489 C4,74.2094718 5.79238055,76 8.00697327,76 L119.993027,76 C122.203379,76 124,74.2058465 124,71.9999489 L124,8.00005106 C124,5.79052815 122.207619,4 119.993027,4 L8.00697327,4 C5.79662132,4 4,5.79415354 4,8.00005106 Z" fill="#FFFFFF"></path>
      </g>
      <path d="M67.4750073,44.7915982 C77.5398073,44.8400675 86.7280982,36.5911 86.7280982,26.5554552 C86.7280982,15.5821808 77.5398073,7.99757654 67.4750073,8.00008357 L58.8127891,8.00008357 C48.6267164,7.99757654 40.2430073,15.5838521 40.2430073,26.5554552 C40.2430073,36.5944427 48.6267164,44.8400675 58.8127891,44.7915982 L67.4750073,44.7915982 Z" id="Fill-1" fill="#004A98"></path>
      <path d="M58.85352,9.52101567 C49.5456291,9.52519405 42.0033018,17.061329 42.0016291,26.3632495 C42.0033018,35.6651699 49.5456291,43.2004693 58.85352,43.2029763 C68.1630836,43.2004693 75.7070836,35.6651699 75.7087564,26.3632495 C75.7070836,17.061329 68.1630836,9.52519405 58.85352,9.52101567 M48.1706473,26.3632495 C48.1806836,21.8180024 51.0226473,17.9421326 55.0288291,16.4011442 L55.0288291,36.3245191 C51.0226473,34.7835307 48.1806836,30.9110036 48.1706473,26.3632495 M62.6765382,36.3270261 L62.6765382,16.4011442 C66.6852291,17.9371185 69.5305382,21.8146597 69.5389018,26.3632495 C69.5305382,30.912675 66.6852291,34.7877091 62.6765382,36.3270261" id="Fill-3" fill="#FFFFFF"></path>
      <path d="M19.8475273,48.3823351 C19.8475273,46.6424556 18.9384,46.7569434 18.0677455,46.7385585 L18.0677455,46.2354809 C18.8221455,46.2722507 19.5957818,46.2722507 20.3526909,46.2722507 C21.1656364,46.2722507 22.2696364,46.2354809 23.7031636,46.2354809 C28.718,46.2354809 31.4495636,49.5806959 31.4495636,53.0078072 C31.4495636,54.9248501 30.3254909,59.7416922 23.4698182,59.7416922 C22.4837455,59.7416922 21.5721091,59.7032511 20.6621455,59.7032511 C19.7914909,59.7032511 18.9384,59.721636 18.0677455,59.7416922 L18.0677455,59.2386147 C19.2286182,59.1207843 19.7914909,59.0831788 19.8475273,57.7678232 L19.8475273,48.3823351 Z M21.7460727,57.4569514 C21.7460727,58.9477991 22.8116,59.1207843 23.7600364,59.1207843 C27.9443636,59.1207843 29.3176727,55.967775 29.3176727,53.0846894 C29.3176727,49.4670438 26.9942545,46.8547176 23.2573818,46.8547176 C22.4611636,46.8547176 22.0948364,46.9115436 21.7460727,46.9324355 L21.7460727,57.4569514 Z" id="Fill-5" fill="#231F1F"></path>
      <path d="M32.1276873,59.238364 L32.4948509,59.238364 C33.0368145,59.238364 33.4240509,59.238364 33.4240509,58.5982354 L33.4240509,53.3551981 C33.4240509,52.5044789 33.1346691,52.3874841 32.4170691,52.0014014 L32.4170691,51.6922009 C33.3270327,51.4189345 34.4126327,51.0545793 34.4887418,50.996082 C34.6250691,50.918364 34.7396509,50.8974721 34.8383418,50.8974721 C34.9328509,50.8974721 34.9729964,51.0144669 34.9729964,51.1699028 L34.9729964,58.5982354 C34.9729964,59.238364 35.4003782,59.238364 35.9431782,59.238364 L36.2710327,59.238364 L36.2710327,59.7414415 C35.6119782,59.7414415 34.9328509,59.7038361 34.2386691,59.7038361 C33.5411418,59.7038361 32.8436145,59.7213853 32.1276873,59.7414415 L32.1276873,59.238364 Z M34.19936,47.9191193 C33.6950327,47.9191193 33.2500873,47.4544829 33.2500873,46.9514054 C33.2500873,46.4667127 33.7159418,46.0212969 34.19936,46.0212969 C34.7020145,46.0212969 35.1486327,46.4282716 35.1486327,46.9514054 C35.1486327,47.4745392 34.7212509,47.9191193 34.19936,47.9191193 L34.19936,47.9191193 Z" id="Fill-7" fill="#231F1F"></path>
      <path d="M38.1112,53.4715243 C38.1112,52.7561848 37.8970909,52.5631434 36.9888,52.1954456 L36.9888,51.8277477 C37.8201455,51.5569883 38.6130182,51.3046139 39.5438909,50.8976392 C39.6024364,50.8976392 39.6584727,50.9360804 39.6584727,51.0906806 L39.6584727,52.3492101 C40.7641455,51.5569883 41.7134182,50.8976392 43.0131273,50.8976392 C44.6565818,50.8976392 45.2378545,52.0976714 45.2378545,53.606904 L45.2378545,58.5984026 C45.2378545,59.2385311 45.6644,59.2385311 46.2063636,59.2385311 L46.5559636,59.2385311 L46.5559636,59.7416087 C45.8751636,59.7416087 45.1985455,59.7031675 44.5018545,59.7031675 C43.8043273,59.7031675 43.1068,59.7215524 42.4101091,59.7416087 L42.4101091,59.2385311 L42.7588727,59.2385311 C43.3016727,59.2385311 43.6872364,59.2385311 43.6872364,58.5984026 L43.6872364,53.5893548 C43.6872364,52.4845898 43.0131273,51.9439068 41.9074545,51.9439068 C41.2877091,51.9439068 40.2999636,52.445313 39.6584727,52.8731796 L39.6584727,58.5984026 C39.6584727,59.2385311 40.0866909,59.2385311 40.6294909,59.2385311 L40.9774182,59.2385311 L40.9774182,59.7416087 C40.2999636,59.7416087 39.6216727,59.7031675 38.9233091,59.7031675 C38.2274545,59.7031675 37.5299273,59.7215524 36.8332364,59.7416087 L36.8332364,59.2385311 L37.1828364,59.2385311 C37.7239636,59.2385311 38.1112,59.2385311 38.1112,58.5984026 L38.1112,53.4715243 Z" id="Fill-9" fill="#231F1F"></path>
      <path d="M48.0276291,54.4017164 C47.9874836,54.5755372 47.9874836,54.8655171 48.0276291,55.5240305 C48.1413745,57.3616842 49.3256655,58.8700812 50.8729382,58.8700812 C51.9393018,58.8700812 52.7731564,58.2892857 53.4882473,57.5747818 L53.7583927,57.8455412 C52.8668291,59.0255171 51.7636655,60.0325078 50.1770836,60.0325078 C47.0975927,60.0325078 46.4778473,57.0508124 46.4778473,55.8140104 C46.4778473,52.0208726 49.0337745,50.8977228 50.3878473,50.8977228 C51.9577018,50.8977228 53.6438109,51.8846573 53.6622109,53.9362443 C53.6622109,54.0540747 53.6622109,54.1685625 53.6438109,54.2847216 L53.4690109,54.4017164 L48.0276291,54.4017164 Z M51.45672,53.781644 C51.9393018,53.781644 51.9961745,53.5301053 51.9961745,53.2969514 C51.9961745,52.3116882 51.3965018,51.5177951 50.3109018,51.5177951 C49.1307927,51.5177951 48.3178473,52.3868992 48.0853382,53.781644 L51.45672,53.781644 Z" id="Fill-11" fill="#231F1F"></path>
      <path d="M54.1080764,59.238364 L54.63164,59.238364 C55.1710945,59.238364 55.5591673,59.238364 55.5591673,58.5982354 L55.5591673,53.1621567 C55.5591673,52.563812 54.84324,52.4459815 54.5521855,52.2905456 L54.5521855,52.0014014 C55.9664764,51.4013853 56.7409491,50.8974721 56.9182582,50.8974721 C57.0311673,50.8974721 57.0897127,50.9559695 57.0897127,51.1506822 L57.0897127,52.892233 L57.1306945,52.892233 C57.6132764,52.1376167 58.4278945,50.8974721 59.60884,50.8974721 C60.0922582,50.8974721 60.7111673,51.2258931 60.7111673,51.9236834 C60.7111673,52.4459815 60.3456764,52.9122893 59.8037127,52.9122893 C59.2006945,52.9122893 59.2006945,52.4459815 58.5224036,52.4459815 C58.1937127,52.4459815 57.1089491,52.892233 57.1089491,54.053824 L57.1089491,58.5982354 C57.1089491,59.238364 57.4961855,59.238364 58.0381491,59.238364 L59.1220764,59.238364 L59.1220764,59.7414415 C58.0573855,59.7213853 57.2461127,59.7038361 56.4130945,59.7038361 C55.6185491,59.7038361 54.8047673,59.7213853 54.1080764,59.7414415 L54.1080764,59.238364 Z" id="Fill-13" fill="#231F1F"></path>
      <path d="M61.5628364,57.0510631 C61.8154182,58.3279775 62.5890545,59.4126862 64.0050182,59.4126862 C65.1458182,59.4126862 65.5715273,58.7157316 65.5715273,58.0388333 C65.5715273,55.7549281 61.3512364,56.4903238 61.3512364,53.3757557 C61.3512364,52.291047 62.2227273,50.8979735 64.3529455,50.8979735 C64.9718545,50.8979735 65.8040364,51.0734656 66.5584364,51.4603841 L66.6947636,53.4325818 L66.2498182,53.4325818 C66.0557818,52.2141647 65.3791636,51.5180458 64.138,51.5180458 C63.3635273,51.5180458 62.6292,51.962626 62.6292,52.7949602 C62.6292,55.0596448 67.1204727,54.3618546 67.1204727,57.4003761 C67.1204727,58.6764548 66.0950909,60.0327585 63.7900727,60.0327585 C63.0156,60.0327585 62.1048,59.7611635 61.4281818,59.3742451 L61.2140727,57.1488373 L61.5628364,57.0510631 Z" id="Fill-15" fill="#231F1F"></path>
      <path d="M84.6073309,49.7368003 L84.1247491,49.7368003 C83.7559127,47.4746227 82.1484218,46.5645705 79.9805673,46.5645705 C77.7516582,46.5645705 74.5182764,48.0529112 74.5182764,52.6967682 C74.5182764,56.6069008 77.3083855,59.4131041 80.2891855,59.4131041 C82.2052945,59.4131041 83.7960582,58.0969128 84.1832945,56.0637107 L84.62824,56.1798698 L84.1832945,59.0052937 C83.3695127,59.5092069 81.1807491,60.0323407 79.9011127,60.0323407 C75.3713673,60.0323407 72.5059855,57.1099783 72.5059855,52.7569369 C72.5059855,48.7891426 76.0496582,45.9436625 79.8459127,45.9436625 C81.4132582,45.9436625 82.9237309,46.4484114 84.4149673,46.9715452 L84.6073309,49.7368003 Z" id="Fill-17" fill="#231F1F"></path>
      <path d="M85.3065309,59.238364 L85.6728582,59.238364 C86.2173309,59.238364 86.6037309,59.238364 86.6037309,58.5982354 L86.6037309,47.8230165 C86.6037309,46.5644869 86.3135127,46.5260458 85.5766764,46.3129482 L85.5766764,46.002912 C86.3511491,45.7513732 87.1657673,45.4045673 87.57224,45.1705777 C87.7830036,45.05609 87.94024,44.9566444 87.9962764,44.9566444 C88.11504,44.9566444 88.1535127,45.0744749 88.1535127,45.2299108 L88.1535127,58.5982354 C88.1535127,59.238364 88.5800582,59.238364 89.1220218,59.238364 L89.44904,59.238364 L89.44904,59.7414415 C88.7924945,59.7414415 88.11504,59.7038361 87.4175127,59.7038361 C86.7208218,59.7038361 86.0241309,59.7213853 85.3065309,59.7414415 L85.3065309,59.238364 Z" id="Fill-19" fill="#231F1F"></path>
      <path d="M97.7404145,58.6763712 C97.7404145,59.0256842 97.9520145,59.0440691 98.2807055,59.0440691 C98.5140509,59.0440691 98.8034327,59.0256842 99.0568509,59.0256842 L99.0568509,59.4334946 C98.2238327,59.5095412 96.6347418,59.9165159 96.2667418,60.032675 L96.1697236,59.9733419 L96.1697236,58.4064476 C95.0096873,59.3541053 94.1172873,60.032675 92.7406327,60.032675 C91.6960145,60.032675 90.6112509,59.3541053 90.6112509,57.7303849 L90.6112509,52.7756561 C90.6112509,52.2717429 90.5351418,51.7878859 89.4512145,51.6926187 L89.4512145,51.3240852 C90.1495782,51.3048646 91.6960145,51.1895412 91.94776,51.1895412 C92.1627055,51.1895412 92.1627055,51.3240852 92.1627055,51.7502804 L92.1627055,56.741779 C92.1627055,57.3234102 92.1627055,58.9855717 93.8471418,58.9855717 C94.5045236,58.9855717 95.3760145,58.4833299 96.18896,57.8072672 L96.18896,52.6009996 C96.18896,52.2140812 95.25976,52.0018192 94.5639055,51.8087778 L94.5639055,51.4611362 C96.3052145,51.3433057 97.3908145,51.1895412 97.5840145,51.1895412 C97.7404145,51.1895412 97.7404145,51.3240852 97.7404145,51.5380185 L97.7404145,58.6763712 Z" id="Fill-21" fill="#231F1F"></path>
      <path d="M101.593207,52.2907127 C102.36768,51.6347063 103.413971,50.8976392 104.478662,50.8976392 C106.725135,50.8976392 108.08088,52.853959 108.08088,54.962372 C108.08088,57.4969803 106.221644,60.0324243 103.450771,60.0324243 C102.018916,60.0324243 101.26368,59.5669522 100.759353,59.3538546 L100.179753,59.7992704 L99.7741164,59.5870084 C99.9472436,58.4454737 100.045098,57.3231595 100.045098,56.1423479 L100.045098,47.8231836 C100.045098,46.5646541 99.7532073,46.5262129 99.0172073,46.3122796 L99.0172073,46.0030791 C99.7933527,45.7515404 100.605462,45.4038988 101.011935,45.1699092 C101.225207,45.0562571 101.379935,44.9568116 101.439316,44.9568116 C101.554735,44.9568116 101.593207,45.074642 101.593207,45.2300779 L101.593207,52.2907127 Z M101.593207,57.554642 C101.593207,58.2892021 102.290735,59.528511 103.587935,59.528511 C105.659607,59.528511 106.531098,57.4969803 106.531098,55.7738144 C106.531098,53.6846219 104.944516,51.9439068 103.43488,51.9439068 C102.715607,51.9439068 102.115935,52.4085432 101.593207,52.853959 L101.593207,57.554642 Z" id="Fill-23" fill="#231F1F"></path>
      <path d="M18.0459164,70.9926621 L18.1939527,70.9926621 C18.5728255,70.9926621 18.9734436,70.9408501 18.9734436,70.392646 L18.9734436,64.8763423 C18.9734436,64.3281382 18.5728255,64.2754906 18.1939527,64.2754906 L18.0459164,64.2754906 L18.0459164,63.9596047 C18.4565709,63.9596047 19.0888618,64.0013885 19.6065709,64.0013885 C20.13348,64.0013885 20.7649345,63.9596047 21.2600618,63.9596047 L21.2600618,64.2754906 L21.1111891,64.2754906 C20.7339891,64.2754906 20.3325345,64.3281382 20.3325345,64.8763423 L20.3325345,70.392646 C20.3325345,70.9408501 20.7339891,70.9926621 21.1111891,70.9926621 L21.2600618,70.9926621 L21.2600618,71.3093837 C20.7548982,71.3093837 20.1209345,71.2684355 19.5956982,71.2684355 C19.0788255,71.2684355 18.4565709,71.3093837 18.0459164,71.3093837 L18.0459164,70.9926621 Z" id="Fill-25" fill="#231F1F"></path>
      <path d="M21.2600618,71.3538417 C20.74988,71.3538417 20.1192618,71.3120579 19.5948618,71.3120579 C19.0796618,71.3120579 18.4599164,71.3538417 18.0459164,71.3538417 L17.9999164,71.3538417 L17.9999164,71.3087151 L17.9999164,70.9928292 L17.9999164,70.946867 L18.0459164,70.946867 L18.1931164,70.946867 C18.5753345,70.9376746 18.9232618,70.9067545 18.9266073,70.3928132 L18.9266073,64.8765094 C18.9232618,64.3617324 18.5753345,64.3283053 18.1931164,64.3216199 L17.9999164,64.3216199 L17.9999164,64.2756577 L17.9999164,63.9138096 L18.0459164,63.9138096 C18.4599164,63.9138096 19.0913709,63.9547577 19.6065709,63.9547577 C20.1309709,63.9547577 20.7615891,63.9138096 21.2600618,63.9138096 L21.3068982,63.9138096 L21.3068982,63.9606075 L21.3068982,64.3216199 L21.2600618,64.3216199 L21.1128618,64.3216199 C20.7306436,64.3283053 20.3802073,64.3617324 20.3785345,64.8765094 L20.3785345,70.3928132 C20.3802073,70.9067545 20.7306436,70.9376746 21.1128618,70.946867 L21.3068982,70.946867 L21.3068982,70.9928292 L21.3068982,71.3538417 L21.2600618,71.3538417 Z M21.2148982,71.2635886 L21.2148982,71.0396272 L21.1128618,71.0396272 C20.7364982,71.0396272 20.2882073,70.9736087 20.2856982,70.3928132 L20.2856982,64.8765094 C20.2882073,64.2948783 20.7364982,64.2296955 21.1128618,64.2296955 L21.2148982,64.2296955 L21.2148982,64.0048984 C20.7281345,64.0048984 20.1175891,64.0475179 19.6065709,64.0475179 C19.1055891,64.0475179 18.5000618,64.0082411 18.0919164,64.0048984 L18.0919164,64.2296955 L18.1931164,64.2296955 C18.5686436,64.2296955 19.0177709,64.2948783 19.0177709,64.8765094 L19.0177709,70.3928132 C19.0177709,70.9736087 18.5686436,71.0396272 18.1931164,71.0396272 L18.0919164,71.0396272 L18.0919164,71.2635886 C18.5000618,71.2602459 19.0955527,71.2218047 19.5948618,71.2218047 C20.1083891,71.2218047 20.7172618,71.2610816 21.2148982,71.2635886 L21.2148982,71.2635886 Z" id="Fill-27" fill="#231F1F"></path>
      <path d="M28.4992909,69.2338128 L28.5202,69.2129209 L28.5202,65.2660185 C28.5202,64.4019285 27.9188545,64.2757413 27.6027091,64.2757413 L27.3710364,64.2757413 L27.3710364,63.9590197 C27.867,63.9590197 28.3520909,64.0016392 28.8463818,64.0016392 C29.2779455,64.0016392 29.7120182,63.9590197 30.1419091,63.9590197 L30.1419091,64.2757413 L29.9855091,64.2757413 C29.5422364,64.2757413 29.0462727,64.359309 29.0462727,65.6128244 L29.0462727,70.4029249 C29.0462727,70.7722941 29.0571455,71.1408276 29.109,71.4667417 L28.7083818,71.4667417 L23.2820545,65.4222901 L23.2820545,69.7619606 C23.2820545,70.6778626 23.4602,70.9929128 24.2723091,70.9929128 L24.4512909,70.9929128 L24.4512909,71.3087987 C23.9979818,71.3087987 23.5455091,71.2678505 23.0922,71.2678505 C22.6196545,71.2678505 22.1337273,71.3087987 21.6595091,71.3087987 L21.6595091,70.9929128 L21.8075455,70.9929128 C22.5343455,70.9929128 22.7551455,70.4973564 22.7551455,69.657501 L22.7551455,65.2217276 C22.7551455,64.6325753 22.2692182,64.2757413 21.7966727,64.2757413 L21.6595091,64.2757413 L21.6595091,63.9590197 C22.0592909,63.9590197 22.4707818,64.0016392 22.8697273,64.0016392 C23.1875455,64.0016392 23.4928182,63.9590197 23.8089636,63.9590197 L28.4992909,69.2338128 Z" id="Fill-30" fill="#231F1F"></path>
      <path d="M29.1085818,71.5114504 L28.6745091,71.4964082 L23.3268,65.541374 L23.3268,69.7615428 C23.3401818,70.6766091 23.4790182,70.9373403 24.2718909,70.9473684 L24.4977091,70.9473684 L24.4977091,70.992495 L24.4977091,71.3535074 L24.4517091,71.3535074 C23.9958909,71.3535074 23.5417455,71.3117236 23.0926182,71.3117236 C22.6209091,71.3117236 22.1366545,71.3535074 21.6590909,71.3535074 L21.6122545,71.3535074 L21.6122545,71.3092166 L21.6122545,70.9473684 L21.6590909,70.9473684 L21.8071273,70.9473684 C22.5038182,70.94319 22.7028727,70.4961029 22.7104,69.6570832 L22.7104,65.2229811 C22.7087273,64.6622419 22.2478909,64.3212857 21.7970909,64.3212857 L21.6122545,64.3212857 L21.6122545,64.2736521 L21.6122545,63.9134753 L21.6590909,63.9134753 C22.0613818,63.9134753 22.4745455,63.9544235 22.8693091,63.9544235 C23.1837818,63.9544235 23.4882182,63.9134753 23.8436727,63.9301888 L28.4746182,69.1381278 L28.4746182,65.2656006 C28.4687636,64.4299237 27.9100727,64.3279711 27.6031273,64.3212857 L27.3246182,64.3212857 L27.3246182,64.2736521 L27.3246182,63.9134753 L27.3714545,63.9134753 C27.8690909,63.9134753 28.3541818,63.9544235 28.8459636,63.9544235 C29.2750182,63.9544235 29.7065818,63.9134753 30.1423273,63.9134753 L30.1883273,63.9134753 L30.1883273,63.9594375 L30.1883273,64.3212857 L30.1423273,64.3212857 L29.9859273,64.3212857 C29.5501818,64.3329851 29.1044,64.3705906 29.0918545,65.6124066 L29.0918545,70.4033427 C29.0918545,70.7718763 29.1027273,71.1387384 29.1537455,71.4588027 L29.1629455,71.5114504 L29.1085818,71.5114504 Z M28.7088,71.4195259 L29.0575636,71.4195259 C29.0098909,71.1028043 29.0015273,70.7534914 29.0015273,70.4033427 L29.0015273,65.6124066 C29.0015273,64.348863 29.5317818,64.2293612 29.9859273,64.2285255 L30.0963273,64.2285255 L30.0963273,64.0045641 C29.6814909,64.0079068 29.2649818,64.0463479 28.8459636,64.0463479 C28.3633818,64.0463479 27.8941818,64.0079068 27.4182909,64.0045641 L27.4174545,64.2285255 L27.6031273,64.2285255 C27.9268,64.2293612 28.5657818,64.3730976 28.5657818,65.2656006 L28.5515636,69.2459301 L28.5314909,69.266822 L28.4946909,69.3002491 L23.8085455,64.0045641 C23.4957455,64.0045641 23.1913091,64.0463479 22.8693091,64.0463479 C22.4837455,64.0463479 22.0873091,64.0079068 21.7059273,64.0045641 L21.7034182,64.2285255 L21.7970909,64.2285255 C22.2913818,64.2293612 22.7998909,64.6062515 22.7998909,65.2229811 L22.7998909,69.6570832 C22.7998909,70.5002812 22.5648727,71.0376215 21.8071273,71.0409642 L21.7059273,71.0376215 L21.7059273,71.26409 C22.1617455,71.2607473 22.6326182,71.2214705 23.0926182,71.2214705 C23.5317091,71.2214705 23.9708,71.2607473 24.4057091,71.26409 L24.4057091,71.0409642 L24.2718909,71.0409642 C23.4430545,71.0376215 23.2373091,70.6766091 23.2373091,69.7615428 L23.2373091,65.3040418 L28.7088,71.4195259 Z M28.4997091,69.2342306 L28.5323273,69.2033106 L28.4997091,69.2342306 Z M28.4746182,69.212503 L28.4746182,69.2091603 L28.4662545,69.2024749 L28.4746182,69.212503 Z" id="Fill-32" fill="#231F1F"></path>
      <path d="M31.7214655,64.485914 C30.9302655,64.485914 30.9001564,64.6764484 30.7412473,65.4435998 L30.4251018,65.4435998 C30.46692,65.1494415 30.5196109,64.8544476 30.5522291,64.5494255 C30.5940473,64.2527601 30.6149564,63.9594375 30.6149564,63.6552511 L30.8675382,63.6552511 C30.9528473,63.971137 31.2163018,63.9594375 31.5015018,63.9594375 L36.9370291,63.9594375 C37.2222291,63.9594375 37.4856836,63.9485737 37.5074291,63.6326878 L37.7591745,63.676143 C37.7181927,63.9594375 37.6747018,64.2435677 37.6445927,64.5285335 C37.6236836,64.8126637 37.6236836,65.0967939 37.6236836,65.3809241 L37.3067018,65.4979188 C37.2857927,65.1084934 37.2331018,64.485914 36.5272109,64.485914 L34.7992836,64.485914 L34.7992836,70.0874568 C34.7992836,70.8997348 35.16812,70.992495 35.6732836,70.992495 L35.8740109,70.992495 L35.8740109,71.3092166 C35.4633564,71.3092166 34.7248473,71.2682684 34.1569564,71.2682684 C33.5238291,71.2682684 32.78532,71.3092166 32.3746655,71.3092166 L32.3746655,70.992495 L32.5753927,70.992495 C33.1558291,70.992495 33.4493927,70.940683 33.4493927,70.1091844 L33.4493927,64.485914 L31.7214655,64.485914 Z" id="Fill-34" fill="#231F1F"></path>
      <path d="M35.8749309,71.3538417 C35.4600945,71.3538417 34.7232582,71.3120579 34.15704,71.3120579 C33.5247491,71.3120579 32.7879127,71.3538417 32.3747491,71.3538417 L32.3295855,71.3538417 L32.3295855,71.3087151 L32.3295855,70.946867 L32.3747491,70.946867 L32.5754764,70.946867 C33.1559127,70.9334962 33.3892582,70.9259751 33.40264,70.1095187 L33.40264,64.5313748 L31.7215491,64.5313748 L31.7215491,64.4862483 L31.7215491,64.4386147 L33.49464,64.4386147 L33.49464,70.1095187 C33.49464,70.9543881 33.1534036,71.0396272 32.5754764,71.0412985 L32.4199127,71.0412985 L32.4199127,71.2627529 C32.8347491,71.2602459 33.5448218,71.2218047 34.15704,71.2218047 C34.7056945,71.2218047 35.4090764,71.2602459 35.8272582,71.2627529 L35.8272582,71.0412985 L35.6733673,71.0412985 C35.1640218,71.0396272 34.7533673,70.9151113 34.7533673,70.0869554 L34.7533673,64.4386147 L36.5272945,64.4386147 C37.2340218,64.4419574 37.3276945,65.0419735 37.3502764,65.433906 L37.5777673,65.3495026 C37.5777673,65.0745649 37.5786036,64.7996272 37.59784,64.5221824 C37.6287855,64.2505874 37.6672582,63.9831708 37.7065673,63.7132471 L37.5468218,63.6865054 C37.4974764,63.9931989 37.2005673,64.0090767 36.9362764,64.0048984 L31.5015855,64.0048984 L31.4463855,64.0048984 C31.1988218,64.005734 30.9286764,63.9940346 30.8341673,63.6998763 L30.6602036,63.6998763 C30.6576945,63.9906918 30.6384582,64.2731507 30.5983127,64.5539381 C30.5665309,64.8430824 30.5188582,65.1213628 30.4803855,65.4004789 L30.7053673,65.4004789 C30.8442036,64.6659188 30.9336945,64.4285866 31.7215491,64.4386147 L31.7215491,64.4862483 L31.7215491,64.5313748 C30.9412218,64.546417 30.9579491,64.6767826 30.7864945,65.4547979 L30.7789673,65.490732 L30.7413309,65.490732 L30.3724945,65.490732 L30.3783491,65.436413 C30.4210036,65.1422547 30.4745309,64.8464251 30.5054764,64.5405673 C30.5489673,64.248916 30.5698764,63.9564291 30.5698764,63.6547497 L30.5698764,63.6079518 L30.61504,63.6079518 L30.9035855,63.6079518 L30.9119491,63.6413789 C30.98304,63.9071241 31.1779127,63.9087955 31.4463855,63.9138096 L31.5015855,63.9138096 L36.9362764,63.9138096 C37.22984,63.9087955 37.4439491,63.9046171 37.4615127,63.6296794 L37.4656945,63.5795388 L37.5133673,63.5895669 L37.8111127,63.6363648 L37.8035855,63.682327 C37.7617673,63.9656215 37.7207855,64.248916 37.6890036,64.5313748 C37.6689309,64.812998 37.6689309,65.0962925 37.6689309,65.3804227 L37.6689309,65.4130141 L37.6379855,65.4247135 L37.2658036,65.5609289 L37.2632945,65.4999245 C37.2340218,65.1038136 37.19304,64.5313748 36.5272945,64.5313748 L34.8453673,64.5313748 L34.8453673,70.0869554 C34.8554036,70.8816842 35.1707127,70.9368389 35.6733673,70.946867 L35.9200945,70.946867 L35.9200945,70.9928292 L35.9200945,71.3538417 L35.8749309,71.3538417 Z" id="Fill-36" fill="#231F1F"></path>
      <path d="M38.0953927,70.9926621 L38.2434291,70.9926621 C38.6223018,70.9926621 39.0237564,70.9408501 39.0237564,70.392646 L39.0237564,64.8763423 C39.0237564,64.3281382 38.6223018,64.2754906 38.2434291,64.2754906 L38.0953927,64.2754906 L38.0953927,63.9596047 C38.7360473,63.9596047 39.8350291,64.0013885 40.7182291,64.0013885 C41.6047745,64.0013885 42.6987382,63.9596047 43.4155018,63.9596047 C43.3979382,64.4117059 43.4071382,65.1086605 43.4380836,65.5707899 L43.1211018,65.6543576 C43.0700836,64.9699381 42.9437927,64.4242411 41.8364473,64.4242411 L40.3736473,64.4242411 L40.3736473,67.1811394 L41.6256836,67.1811394 C42.2579745,67.1811394 42.3951382,66.8243053 42.4578655,66.2552093 L42.7740109,66.2552093 C42.7531018,66.6663624 42.7422291,67.0766798 42.7422291,67.4869972 C42.7422291,67.8881221 42.7531018,68.2875757 42.7740109,68.6870293 L42.4578655,68.7497051 C42.3951382,68.118769 42.3641927,67.7084516 41.6365564,67.7084516 L40.3736473,67.7084516 L40.3736473,70.1603278 C40.3736473,70.845583 40.98252,70.845583 41.6574655,70.845583 C42.9220473,70.845583 43.4799018,70.7611796 43.7968836,69.5619831 L44.0904473,69.634687 C43.9532836,70.1937549 43.8278291,70.7503158 43.73332,71.3093837 C43.0583745,71.3093837 41.8464836,71.2684355 40.9005564,71.2684355 C39.9496109,71.2684355 38.6967382,71.3093837 38.0953927,71.3093837 L38.0953927,70.9926621 Z" id="Fill-38" fill="#231F1F"></path>
      <path d="M43.7329018,71.3538417 C43.0562836,71.3538417 41.8443927,71.3103865 40.8993018,71.3103865 C39.9491927,71.3103865 38.6971564,71.3538417 38.0949745,71.3538417 L38.0506473,71.3538417 L38.0506473,71.3087151 L38.0506473,70.9928292 L38.0506473,70.946867 L38.0949745,70.946867 L38.2438473,70.946867 C38.6252291,70.9410173 38.97232,70.9067545 38.9765018,70.3928132 L38.9765018,64.8765094 C38.97232,64.3625681 38.6252291,64.3283053 38.2438473,64.3216199 L38.0506473,64.3216199 L38.0506473,64.2756577 L38.0506473,63.9138096 L38.0949745,63.9138096 C38.7389745,63.9138096 39.8354473,63.9547577 40.7178109,63.9547577 C41.6043564,63.9547577 42.69832,63.9138096 43.41592,63.9138096 L43.4627564,63.9138096 L43.4610836,63.9622788 C43.4543927,64.1193861 43.4493745,64.3065777 43.4493745,64.5054689 C43.4493745,64.8689883 43.4610836,65.2676063 43.4819927,65.5676143 L43.4836655,65.6052198 L43.4477018,65.6160836 L43.0771927,65.7130221 L43.0763564,65.6578674 C43.0136291,64.9751193 42.9216291,64.4778915 41.8368655,64.4678634 L40.41672,64.4678634 L40.4158836,67.1345086 L41.6252655,67.1345086 C42.2324655,67.1286589 42.3411927,66.8177871 42.41312,66.2503624 L42.4156291,66.2085785 L42.4574473,66.2085785 L42.8204291,66.2085785 L42.8195927,66.2562121 C42.79952,66.6673652 42.7869745,67.0768469 42.7869745,67.4871643 C42.7869745,67.8849466 42.79952,68.2852358 42.8195927,68.6846894 L42.8204291,68.7231306 L42.7819564,68.7314873 L42.4156291,68.8050269 L42.41312,68.755722 C42.3403564,68.1122507 42.3353382,67.7604307 41.6361382,67.7529096 L40.41672,67.7529096 L40.41672,70.160495 C40.4183927,70.8006235 40.9703927,70.7972808 41.6570473,70.8006235 C42.9258109,70.7931025 43.43432,70.7304267 43.7513018,69.5496151 L43.7621745,69.5069956 L43.8065018,69.5145167 L44.1443927,69.6022628 L44.1351927,69.6448823 C43.9980291,70.2022788 43.8725745,70.7596754 43.7772291,71.3162362 L43.7688655,71.3538417 L43.7329018,71.3538417 Z M43.6935927,71.2627529 C43.7855927,70.7304267 43.9060291,70.1989361 44.0348291,69.6691169 L43.8274109,69.6164693 C43.5121018,70.7947738 42.90072,70.8992334 41.6570473,70.8917123 C40.9929745,70.8917123 40.3289018,70.8917123 40.3255564,70.160495 L40.3255564,67.6626565 L41.6361382,67.6626565 C42.3721382,67.6551354 42.4457382,68.0980442 42.4984291,68.6972246 L42.72592,68.6504267 C42.7058473,68.2626726 42.6958109,67.8724114 42.6958109,67.4871643 C42.6958109,67.0918891 42.7058473,66.6974496 42.72592,66.2996673 L42.4984291,66.2996673 C42.4390473,66.8495428 42.2675927,67.2331185 41.6252655,67.2264331 L40.3255564,67.2264331 L40.3255564,64.3767746 L41.8368655,64.3767746 C42.9325018,64.3684178 43.1139927,64.9350068 43.1616655,65.596863 L43.3891564,65.5350229 C43.3707564,65.2383576 43.3582109,64.8564532 43.3582109,64.5054689 C43.3582109,64.3249626 43.3632291,64.1536489 43.3690836,64.0048984 C42.6531564,64.0082411 41.5842836,64.0458465 40.7178109,64.0458465 C39.8521745,64.0458465 38.7866473,64.0082411 38.1418109,64.0048984 L38.1418109,64.2288598 L38.2438473,64.2288598 C38.6185382,64.2296955 39.0668291,64.2948783 39.0693382,64.8765094 L39.0693382,70.3928132 C39.0668291,70.9736087 38.6185382,71.0379558 38.2438473,71.0412985 L38.1418109,71.0412985 L38.1418109,71.2627529 C38.7548655,71.2610816 39.9734473,71.2218047 40.8993018,71.2218047 C41.8293382,71.2218047 43.0144655,71.2610816 43.6935927,71.2627529 L43.6935927,71.2627529 Z" id="Fill-40" fill="#231F1F"></path>
      <path d="M45.5138545,65.0743978 C45.5138545,64.3072463 45.0914909,64.2754906 44.7644727,64.2754906 L44.5746182,64.2754906 L44.5746182,63.9596047 C44.9116727,63.9596047 45.5648727,64.0013885 46.2088727,64.0013885 C46.8394909,64.0013885 47.3463273,63.9596047 47.9041818,63.9596047 C49.2306545,63.9596047 50.4132727,64.3172744 50.4132727,65.8131362 C50.4132727,66.7599582 49.7801455,67.3382467 48.9488,67.6666677 L50.7494909,70.3608903 C51.0455636,70.8054705 51.2538182,70.930822 51.7723636,70.9926621 L51.7723636,71.3093837 C51.4236,71.3093837 51.0865455,71.2684355 50.7394545,71.2684355 C50.4132727,71.2684355 50.0745455,71.3093837 49.7492,71.3093837 C48.9370909,70.2464026 48.2412364,69.1090462 47.5570909,67.8964789 L46.8620727,67.8964789 L46.8620727,70.1511354 C46.8620727,70.9617421 47.2409455,70.9926621 47.7243636,70.9926621 L47.9150545,70.9926621 L47.9150545,71.3093837 C47.3128727,71.3093837 46.704,71.2684355 46.1026545,71.2684355 C45.5966545,71.2684355 45.1015273,71.3093837 44.5746182,71.3093837 L44.5746182,70.9926621 L44.7644727,70.9926621 C45.1558909,70.9926621 45.5138545,70.8146629 45.5138545,70.4252374 L45.5138545,65.0743978 Z M46.8620727,67.5162459 L47.3772727,67.5162459 C48.4327636,67.5162459 49.0006545,67.117628 49.0006545,65.8749763 C49.0006545,64.9381824 48.3993091,64.3381663 47.4609091,64.3381663 C47.1447636,64.3381663 47.0092727,64.3707577 46.8620727,64.3807859 L46.8620727,67.5162459 Z" id="Fill-42" fill="#231F1F"></path>
      <path d="M51.7720291,71.3538417 C51.4182473,71.3538417 51.0837018,71.3120579 50.7366109,71.3120579 C50.4162836,71.3120579 50.0783927,71.3538417 49.7120655,71.3362925 C48.9033018,70.2758184 48.2107927,69.1459831 47.5299927,67.9442796 L46.9069018,67.9442796 L46.9069018,70.1496312 C46.9186109,70.941853 47.2364291,70.9360032 47.7240291,70.946867 L47.96072,70.946867 L47.96072,70.9928292 L47.96072,71.3538417 L47.9138836,71.3538417 C47.3117018,71.3538417 46.6994836,71.3120579 46.10232,71.3120579 C45.5988291,71.3120579 45.1037018,71.3538417 44.5742836,71.3538417 L44.5282836,71.3538417 L44.5282836,71.3087151 L44.5282836,70.946867 L44.5742836,70.946867 L44.7649745,70.946867 C45.1438473,70.94436 45.4641745,70.7797316 45.4658473,70.4254046 L45.4658473,65.0745649 C45.4574836,64.3283053 45.0919927,64.3316481 44.7649745,64.3216199 L44.5282836,64.3216199 L44.5282836,64.2756577 L44.5282836,63.9138096 L44.5742836,63.9138096 C44.91552,63.9138096 45.5662109,63.9547577 46.2085382,63.9547577 C46.8374836,63.9547577 47.3426473,63.9138096 47.9046836,63.9138096 C49.2328291,63.9163166 50.4555927,64.2823431 50.4589382,65.811632 C50.4589382,66.7617967 49.8299927,67.3551274 49.0178836,67.6868911 L50.7867927,70.3351515 C51.0820291,70.7722105 51.2651927,70.8816842 51.7778836,70.946867 L51.8163564,70.9527168 L51.8163564,70.9928292 L51.8163564,71.3538417 L51.7720291,71.3538417 Z M46.8617382,67.8506838 L47.5818473,67.8506838 L47.5952291,67.8749184 C48.2810473,69.084143 48.9735564,70.2214994 49.7488655,71.2635886 C50.0700291,71.2635886 50.4087564,71.2218047 50.7366109,71.2218047 C51.0736655,71.2218047 51.3990109,71.2585745 51.7260291,71.2627529 L51.7260291,71.0321061 C51.2317382,70.9719373 51.0000655,70.8223511 50.7123564,70.3861278 L48.8773745,67.6459429 L48.9300655,67.6242153 C49.75472,67.299137 50.3661018,66.7367264 50.3669382,65.811632 C50.3661018,64.3508686 49.2294836,64.0115838 47.9046836,64.0048984 C47.3501745,64.0048984 46.8433382,64.0475179 46.2085382,64.0475179 C45.5896291,64.0475179 44.9640291,64.0082411 44.6194473,64.0048984 L44.6194473,64.2288598 L44.7649745,64.2288598 C45.0919927,64.2296955 45.5570109,64.2840145 45.5570109,65.0745649 L45.5570109,70.4254046 C45.5570109,70.8482571 45.1614109,71.0396272 44.7649745,71.0412985 L44.6194473,71.0412985 L44.6194473,71.2627529 C45.1262836,71.2610816 45.6071927,71.2218047 46.10232,71.2218047 C46.6902836,71.2218047 47.2857745,71.2610816 47.8678836,71.2627529 L47.8678836,71.0412985 L47.7240291,71.0412985 C47.2439564,71.0396272 46.8149018,70.9802941 46.8149018,70.1496312 L46.8149018,67.8506838 L46.8617382,67.8506838 Z M46.8617382,67.5623753 L46.8149018,67.5623753 L46.8149018,64.3383335 L46.8558836,64.3349908 C46.9997382,64.3232913 47.14192,64.2948783 47.4605745,64.2948783 C48.4198836,64.2948783 49.0454836,64.9174576 49.04632,65.8776505 C49.0429745,67.1345086 48.4399564,67.5615396 47.3769382,67.5623753 L46.8617382,67.5623753 Z M47.3769382,67.4729578 C48.4198836,67.462094 48.9459564,67.1002459 48.9559927,65.8776505 C48.9501382,64.9575701 48.3780655,64.3868027 47.4605745,64.38346 C47.1762109,64.38346 47.0415564,64.409366 46.9069018,64.4227368 L46.9069018,67.4729578 L47.3769382,67.4729578 Z" id="Fill-44" fill="#231F1F"></path>
      <path d="M58.9260327,69.2338128 L58.9444327,69.2129209 L58.9444327,65.2660185 C58.9444327,64.4019285 58.3455964,64.2757413 58.0294509,64.2757413 L57.7986145,64.2757413 L57.7986145,63.9590197 C58.2937418,63.9590197 58.77716,64.0016392 59.2731236,64.0016392 C59.70636,64.0016392 60.1354145,63.9590197 60.5703236,63.9590197 L60.5703236,64.2757413 L60.4122509,64.2757413 C59.9689782,64.2757413 59.4738509,64.359309 59.4738509,65.6128244 L59.4738509,70.4029249 C59.4738509,70.7722941 59.4847236,71.1408276 59.5365782,71.4667417 L59.1376327,71.4667417 L53.7113055,65.4222901 L53.7113055,69.7619606 C53.7113055,70.6778626 53.8894509,70.9929128 54.7007236,70.9929128 L54.8797055,70.9929128 L54.8797055,71.3087987 C54.4272327,71.3087987 53.9730873,71.2678505 53.5206145,71.2678505 C53.0447236,71.2678505 52.5604691,71.3087987 52.0870873,71.3087987 L52.0870873,70.9929128 L52.2334509,70.9929128 C52.9610873,70.9929128 53.18356,70.4973564 53.18356,69.657501 L53.18356,65.2217276 C53.18356,64.6325753 52.6984691,64.2757413 52.2242509,64.2757413 L52.0870873,64.2757413 L52.0870873,63.9590197 C52.4860327,63.9590197 52.9000327,64.0016392 53.2998145,64.0016392 C53.6126145,64.0016392 53.91956,63.9590197 54.2365418,63.9590197 L58.9260327,69.2338128 Z" id="Fill-46" fill="#231F1F"></path>
      <path d="M59.53616,71.5114504 L59.1029236,71.4964082 L53.7543782,65.5422097 L53.7543782,69.7607071 C53.7669236,70.6782804 53.90576,70.9373403 54.7003055,70.9473684 L54.9236145,70.9473684 L54.9236145,70.992495 L54.9236145,71.3535074 L54.8776145,71.3535074 C54.4226327,71.3535074 53.97016,71.3100522 53.5185236,71.3100522 C53.0484873,71.3100522 52.5608873,71.3535074 52.0866691,71.3535074 L52.0398327,71.3535074 L52.0398327,71.3092166 L52.0398327,70.9473684 L52.0866691,70.9473684 L52.2330327,70.9473684 C52.9297236,70.9440257 53.1287782,70.4961029 53.1354691,69.6545761 L53.1354691,65.2213098 C53.1346327,64.6605705 52.6746327,64.3212857 52.2246691,64.3212857 L52.0398327,64.3212857 L52.0398327,64.2753234 L52.0398327,63.9134753 L52.0866691,63.9134753 C52.48896,63.9134753 52.9012873,63.9544235 53.2993964,63.9544235 C53.6088509,63.9544235 53.9141236,63.9134753 54.2679055,63.9268461 L58.8996873,69.1381278 L58.8996873,65.2656006 C58.8971782,64.4299237 58.3359782,64.3262997 58.0290327,64.3212857 L57.75136,64.3212857 L57.75136,64.2753234 L57.75136,63.9134753 L57.79736,63.9134753 C58.2949964,63.9134753 58.7809236,63.9544235 59.2735418,63.9544235 C59.7025964,63.9544235 60.13416,63.9134753 60.5682327,63.9134753 L60.6150691,63.9134753 L60.6150691,63.9602732 L60.6150691,64.3212857 L60.5682327,64.3212857 L60.4118327,64.3212857 C59.9769236,64.3321495 59.5294691,64.3705906 59.5185964,65.6124066 L59.5185964,70.4033427 C59.5185964,70.7718763 59.5277964,71.1362314 59.58216,71.4596384 L59.5871782,71.5114504 L59.53616,71.5114504 Z M59.1372145,71.4195259 L59.4826327,71.4195259 C59.4366327,71.1044757 59.4265964,70.7534914 59.4265964,70.4033427 L59.4265964,65.6124066 C59.4274327,64.348863 59.9610327,64.2318682 60.4118327,64.2285255 L60.5222327,64.2285255 L60.5222327,64.0045641 C60.1073964,64.0079068 59.6917236,64.0463479 59.2735418,64.0463479 C58.7892873,64.0463479 58.3200873,64.0079068 57.84336,64.0045641 L57.84336,64.2285255 L58.0290327,64.2285255 C58.3543782,64.2318682 58.9925236,64.3730976 58.9925236,65.2656006 L58.9766327,69.2459301 L58.9582327,69.266822 L58.9247782,69.3010848 L54.2361236,64.0045641 C53.9233236,64.0045641 53.6172145,64.0463479 53.2993964,64.0463479 C52.9079782,64.0463479 52.5148873,64.0079068 52.1318327,64.0045641 L52.1318327,64.2285255 L52.2246691,64.2285255 C52.7197964,64.2318682 53.2266327,64.6054158 53.2266327,65.2213098 L53.2266327,69.6545761 C53.2266327,70.5002812 52.9891055,71.0376215 52.2330327,71.0409642 L52.1318327,71.0401286 L52.1318327,71.2632543 C52.5868145,71.2607473 53.0560145,71.2214705 53.5185236,71.2214705 C53.96096,71.2214705 54.3983782,71.2607473 54.8341236,71.2632543 L54.8341236,71.0409642 L54.7003055,71.0409642 C53.8714691,71.0401286 53.6648873,70.6782804 53.6623782,69.7607071 L53.6623782,65.3057131 L59.1372145,71.4195259 Z M58.9247782,69.2342306 L58.9590691,69.2033106 L58.9247782,69.2342306 Z M58.8996873,69.212503 L58.8996873,69.209996 L58.89216,69.2024749 L58.8996873,69.212503 Z" id="Fill-48" fill="#231F1F"></path>
      <path d="M62.2646291,69.8035773 C62.1584109,70.1604114 62.0312836,70.4370205 62.0312836,70.6233765 C62.0312836,70.9409337 62.4753927,70.9927457 62.8216473,70.9927457 L62.9395745,70.9927457 L62.9395745,71.3086316 C62.5163745,71.2860683 62.0864836,71.2685191 61.6624473,71.2685191 C61.2827382,71.2685191 60.9055382,71.2860683 60.5249927,71.3086316 L60.5249927,70.9927457 L60.5893927,70.9927457 C60.9992109,70.9927457 61.3488109,70.7503994 61.5043745,70.3074906 L63.1904836,65.4764419 C63.3284836,65.0861808 63.5183382,64.5597043 63.5827382,64.1694431 C63.9172836,64.0541197 64.3404836,63.8452005 64.5403745,63.7165062 C64.5729927,63.7064781 64.5922291,63.6956143 64.6240109,63.6956143 C64.6566291,63.6956143 64.6758655,63.6956143 64.6992836,63.7282057 C64.7302291,63.8117734 64.7603382,63.9070406 64.7937927,63.9906083 L66.73332,69.4985552 C66.8596109,69.8662531 66.9850655,70.2548429 67.11972,70.5724002 C67.24852,70.8682298 67.4701564,70.9927457 67.8180836,70.9927457 L67.8816473,70.9927457 L67.8816473,71.3086316 C67.4065927,71.2860683 66.9315382,71.2685191 66.4280473,71.2685191 C65.9111745,71.2685191 65.3825927,71.2860683 64.8456473,71.3086316 L64.8456473,70.9927457 L64.9619018,70.9927457 C65.2027745,70.9927457 65.6159382,70.9509618 65.6159382,70.6877236 C65.6159382,70.5515082 65.5214291,70.2673781 65.4035018,69.9289289 L64.9928473,68.7080048 L62.6008473,68.7080048 L62.2646291,69.8035773 Z M63.8027018,65.1388284 L63.7809564,65.1388284 L62.8015745,68.1188526 L64.7703745,68.1188526 L63.8027018,65.1388284 Z" id="Fill-50" fill="#231F1F"></path>
      <path d="M67.8781345,71.3538417 C67.4047527,71.3337855 66.9296982,71.3103865 66.42788,71.3103865 C65.9110073,71.3103865 65.3857709,71.3337855 64.8479891,71.3538417 L64.79948,71.3563487 L64.79948,71.3087151 L64.79948,70.9451957 L64.84548,70.9451957 L64.9617345,70.9451957 C65.2059527,70.9451957 65.5680982,70.890041 65.5689345,70.6878072 C65.5714436,70.5674697 65.4769345,70.2791611 65.36068,69.9440546 L64.9592255,68.7532149 L62.6349709,68.7532149 L62.3071164,69.8170317 C62.2008982,70.1747015 62.0729345,70.4529819 62.0754436,70.6242957 C62.0787891,70.8816842 62.47188,70.9451957 62.82148,70.9451957 L62.9837345,70.9451957 L62.9837345,70.9928292 L62.9837345,71.3563487 L62.9360618,71.3538417 C62.5145345,71.3337855 62.0846436,71.3103865 61.6631164,71.3103865 C61.2867527,71.3103865 60.9062073,71.3337855 60.5290073,71.3538417 L60.4796618,71.3563487 L60.4796618,71.3087151 L60.4796618,70.9451957 L60.5248255,70.9451957 L60.5892255,70.9451957 C60.9806436,70.94436 61.3076618,70.7203986 61.45988,70.2933676 L63.1476618,65.459812 C63.2839891,65.0703865 63.4755164,64.546417 63.5658436,64.1260715 C63.8970436,64.0140908 64.3202436,63.8018288 64.52348,63.6748059 C64.5527527,63.6639421 64.5820255,63.6505713 64.6238436,63.6505713 C64.6497709,63.6489 64.7066436,63.6555854 64.7409345,63.7107401 C64.7702073,63.7968148 64.8036618,63.8912463 64.83628,63.9764853 L66.7766436,69.4835966 C66.9004255,69.8521302 67.02588,70.24072 67.16388,70.5532632 C67.2868255,70.8332149 67.4800255,70.94436 67.8187527,70.9451957 L67.9249709,70.9451957 L67.9249709,70.9928292 L67.9249709,71.3563487 L67.8781345,71.3538417 Z M64.89148,71.2602459 C65.4133709,71.241861 65.9243891,71.2218047 66.42788,71.2218047 C66.9171527,71.2218047 67.3763164,71.241861 67.8338073,71.2602459 L67.8338073,71.0396272 L67.8187527,71.0396272 C67.4574436,71.0421342 67.2082073,70.9000691 67.0794073,70.5900329 C66.9422436,70.27164 66.81428,69.8813789 66.6896618,69.5120096 L64.7492982,64.0048984 C64.7175164,63.9213307 64.6874073,63.8268992 64.6598073,63.7525239 C64.6497709,63.7416601 64.65228,63.7416601 64.6439164,63.7416601 L64.6238436,63.7416601 C64.6029345,63.7416601 64.5903891,63.7483455 64.5627891,63.7550309 C64.3603891,63.8862322 63.9380255,64.0943158 63.6243891,64.1762121 C63.5599891,64.5748301 63.3701345,65.1013065 63.2329709,65.4915677 L61.5476982,70.3226163 C61.3871164,70.7805673 61.0166073,71.0412985 60.5892255,71.0396272 L60.5716618,71.0396272 L60.5716618,71.2602459 C60.9329709,71.241861 61.2976255,71.2218047 61.6631164,71.2218047 C62.0712618,71.2218047 62.4869345,71.241861 62.8892255,71.2602459 L62.8892255,71.0396272 L62.82148,71.0396272 C62.4777345,71.0354488 61.9984982,70.9978433 61.9859527,70.6242957 C61.9867891,70.4162121 62.1164255,70.1462885 62.2192982,69.7902901 L62.2644618,69.8036609 L62.2192982,69.7894544 L62.5663891,68.6637975 L65.0236255,68.6637975 L65.4459891,69.9148059 C65.5639164,70.2532551 65.6600982,70.5340426 65.6600982,70.6878072 C65.6442073,71.0103785 65.2009345,71.0337774 64.9617345,71.0396272 L64.89148,71.0396272 L64.89148,71.2602459 Z M62.7378436,68.1640627 L63.7464982,65.0921141 L63.7816255,65.0921141 L63.8033709,65.0921141 L63.8033709,65.138912 L63.7924982,65.1422547 L63.8033709,65.138912 L63.8033709,65.0921141 L63.8343164,65.0921141 L64.83628,68.1640627 L62.7378436,68.1640627 Z M62.8632982,68.0721382 L64.7091527,68.0721382 L63.7916618,65.2508927 L62.8632982,68.0721382 Z M63.7573709,65.1522828 L63.7816255,65.1447618 L63.7573709,65.1522828 Z" id="Fill-52" fill="#231F1F"></path>
      <path d="M68.3448255,64.485914 C67.5544618,64.485914 67.52268,64.6764484 67.3637709,65.4435998 L67.0467891,65.4435998 C67.0886073,65.1494415 67.1421345,64.8544476 67.1747527,64.5494255 C67.2165709,64.2527601 67.2366436,63.9594375 67.2366436,63.6552511 L67.4917345,63.6552511 C67.5745345,63.971137 67.8379891,63.9594375 68.1223527,63.9594375 L73.5603891,63.9594375 C73.8439164,63.9594375 74.1065345,63.9485737 74.12828,63.6326878 L74.3800255,63.676143 C74.3407164,63.9594375 74.2988982,64.2435677 74.26628,64.5285335 C74.2428618,64.8126637 74.2428618,65.0967939 74.2428618,65.3809241 L73.9275527,65.4979188 C73.9091527,65.1084934 73.8556255,64.485914 73.1488982,64.485914 L71.4209709,64.485914 L71.4209709,70.0874568 C71.4209709,70.8997348 71.7906436,70.992495 72.2949709,70.992495 L72.4965345,70.992495 L72.4965345,71.3092166 C72.0850436,71.3092166 71.3490436,71.2682684 70.7778073,71.2682684 C70.1471891,71.2682684 69.4078436,71.3092166 68.9971891,71.3092166 L68.9971891,70.992495 L69.1979164,70.992495 C69.7783527,70.992495 70.0719164,70.940683 70.0719164,70.1091844 L70.0719164,64.485914 L68.3448255,64.485914 Z" id="Fill-54" fill="#231F1F"></path>
      <path d="M72.4963673,71.3538417 C72.0823673,71.3538417 71.3438582,71.3120579 70.77764,71.3120579 C70.1478582,71.3120579 69.4101855,71.3538417 68.9970218,71.3538417 L68.9510218,71.3538417 L68.9510218,71.3087151 L68.9510218,70.946867 L68.9970218,70.946867 L69.1969127,70.946867 C69.7781855,70.9334962 70.0115309,70.9259751 70.0257491,70.1095187 L70.0249127,64.5313748 L68.3446582,64.5313748 L68.3446582,64.4862483 L68.3446582,64.4386147 L70.1177491,64.4386147 L70.1177491,70.1095187 C70.1177491,70.9543881 69.7765127,71.0379558 69.1969127,71.0396272 L69.0421855,71.0396272 L69.0421855,71.2635886 C69.4586945,71.2602459 70.1662582,71.2218047 70.77764,71.2218047 C71.3279673,71.2218047 72.0330218,71.2602459 72.4495309,71.2635886 L72.4495309,71.0396272 L72.2948036,71.0396272 C71.7871309,71.0379558 71.3764764,70.915947 71.37564,70.0869554 L71.37564,64.4386147 L73.1487309,64.4386147 C73.8562945,64.4419574 73.9491309,65.0419735 73.9692036,65.433906 L74.1983673,65.3495026 C74.1983673,65.0745649 74.20004,64.7996272 74.2209491,64.5238538 C74.2493855,64.2522587 74.2895309,63.9831708 74.3280036,63.7140828 L74.1682582,63.6865054 C74.1197491,63.9931989 73.82284,64.0099124 73.5602218,64.0048984 L68.1221855,64.0048984 L68.0686582,64.0048984 C67.8202582,64.0082411 67.5509491,63.9940346 67.4556036,63.6990406 L67.2833127,63.6990406 C67.2808036,63.9906918 67.2598945,64.2731507 67.2189127,64.5539381 C67.1904764,64.8447537 67.1394582,65.1230342 67.0993127,65.4004789 L67.3251309,65.4004789 C67.4639673,64.6659188 67.5551309,64.4269152 68.3446582,64.4386147 L68.3446582,64.4862483 L68.3446582,64.5313748 C67.5634945,64.5447457 67.5802218,64.6767826 67.4087673,65.4547979 L67.40124,65.490732 L67.36444,65.490732 L66.9939309,65.490732 L67.0006218,65.4380844 C67.0449491,65.1422547 67.0968036,64.8464251 67.1269127,64.5430743 C67.1704036,64.248916 67.1904764,63.9564291 67.1904764,63.6547497 L67.1904764,63.6079518 L67.2364764,63.6079518 L67.5241855,63.6079518 L67.5333855,63.6413789 C67.6069855,63.9071241 67.7993491,63.9087955 68.0686582,63.9138096 L68.1221855,63.9138096 L73.5602218,63.9138096 C73.8521127,63.9087955 74.0653855,63.9046171 74.0837855,63.6305151 L74.0854582,63.5795388 L74.1348036,63.5895669 L74.4333855,63.6363648 L74.4258582,63.682327 C74.3823673,63.9656215 74.3430582,64.248916 74.3112764,64.5313748 C74.2895309,64.812998 74.2895309,65.0962925 74.2895309,65.3804227 L74.2895309,65.4130141 L74.2585855,65.4247135 L73.8855673,65.5609289 L73.8847309,65.4999245 C73.8562945,65.1038136 73.8153127,64.5313748 73.1487309,64.5313748 L71.4659673,64.5313748 L71.4659673,70.0869554 C71.47684,70.8816842 71.7921491,70.9368389 72.2948036,70.946867 L72.5406945,70.946867 L72.5406945,70.9928292 L72.5406945,71.3538417 L72.4963673,71.3538417 Z" id="Fill-56" fill="#231F1F"></path>
      <path d="M74.7699382,70.9926621 L74.9171382,70.9926621 C75.2976836,70.9926621 75.6957927,70.9408501 75.6957927,70.392646 L75.6957927,64.8763423 C75.6957927,64.3281382 75.2976836,64.2754906 74.9171382,64.2754906 L74.7699382,64.2754906 L74.7699382,63.9596047 C75.1814291,63.9596047 75.8128836,64.0013885 76.3280836,64.0013885 C76.8566655,64.0013885 77.4889564,63.9596047 77.98492,63.9596047 L77.98492,64.2754906 L77.8368836,64.2754906 C77.4555018,64.2754906 77.05572,64.3281382 77.05572,64.8763423 L77.05572,70.392646 C77.05572,70.9408501 77.4555018,70.9926621 77.8368836,70.9926621 L77.98492,70.9926621 L77.98492,71.3093837 C77.47892,71.3093837 76.8457927,71.2684355 76.31972,71.2684355 C75.8020109,71.2684355 75.1814291,71.3093837 74.7699382,71.3093837 L74.7699382,70.9926621 Z" id="Fill-58" fill="#231F1F"></path>
      <path d="M77.9850873,71.3538417 C77.4757418,71.3538417 76.8451236,71.3103865 76.3190509,71.3103865 C75.8038509,71.3103865 75.1815964,71.3538417 74.7701055,71.3538417 L74.7249418,71.3538417 L74.7249418,71.3087151 L74.7249418,70.9928292 L74.7249418,70.946867 L74.7701055,70.946867 L74.9181418,70.946867 C75.2978509,70.9410173 75.6474509,70.9075902 75.64996,70.3928132 L75.64996,64.8765094 C75.6474509,64.3625681 75.2978509,64.3283053 74.9181418,64.3216199 L74.7249418,64.3216199 L74.7249418,64.2756577 L74.7249418,63.9138096 L74.7701055,63.9138096 C75.1815964,63.9138096 75.81556,63.9547577 76.3282509,63.9547577 C76.8534873,63.9547577 77.4857782,63.9138096 77.9850873,63.9138096 L78.0285782,63.9138096 L78.0285782,63.9597718 L78.0285782,64.3216199 L77.9850873,64.3216199 L77.8378873,64.3216199 C77.4514873,64.3283053 77.1052327,64.3625681 77.1010509,64.8765094 L77.1010509,70.3928132 C77.1052327,70.9075902 77.4514873,70.9410173 77.8378873,70.946867 L78.0285782,70.946867 L78.0285782,70.9928292 L78.0285782,71.3538417 L77.9850873,71.3538417 Z M77.9374145,71.2627529 L77.9374145,71.0396272 L77.8378873,71.0396272 C77.4590145,71.0396272 77.01156,70.9736087 77.01156,70.3928132 L77.01156,64.8765094 C77.01156,64.2948783 77.4590145,64.2296955 77.8378873,64.2288598 L77.9374145,64.2288598 L77.9374145,64.0048984 C77.4506509,64.0082411 76.8409418,64.0458465 76.3282509,64.0458465 C75.8281055,64.0458465 75.2242509,64.0082411 74.8161055,64.0048984 L74.8161055,64.2288598 L74.9181418,64.2288598 C75.2919964,64.2296955 75.7411236,64.2948783 75.7427964,64.8765094 L75.7427964,70.3928132 C75.7411236,70.9736087 75.2919964,71.0396272 74.9181418,71.0396272 L74.8161055,71.0396272 L74.8161055,71.2627529 C75.2217418,71.2585745 75.8180691,71.2218047 76.3190509,71.2218047 C76.8300691,71.2218047 77.4397782,71.2602459 77.9374145,71.2627529 L77.9374145,71.2627529 Z" id="Fill-60" fill="#231F1F"></path>
      <path d="M82.1863091,63.8017453 C84.4336182,63.8017453 86.2234364,65.1931474 86.2234364,67.4352688 C86.2234364,69.8570607 84.4846364,71.4674102 82.2415091,71.4674102 C80.0059091,71.4674102 78.2997273,69.9506565 78.2997273,67.6868076 C78.2997273,65.4981695 79.9958727,63.8017453 82.1863091,63.8017453 M82.3460545,71.0036095 C84.3909636,71.0036095 84.7472545,69.2018899 84.7472545,67.6667513 C84.7472545,66.12827 83.9167455,64.2647103 82.1662364,64.2647103 C80.3228909,64.2647103 79.7742364,65.9076513 79.7742364,67.3174383 C79.7742364,69.2018899 80.6398727,71.0036095 82.3460545,71.0036095" id="Fill-62" fill="#231F1F"></path>
      <path d="M78.2527236,67.686724 C78.2569055,65.47218 79.9722873,63.7590422 82.1861418,63.7556995 L82.1861418,63.8016617 L82.1861418,63.8476239 C80.01996,63.8476239 78.3438873,65.5206493 78.3413782,67.686724 C78.3463964,69.9246669 80.0274873,71.4188574 82.2413418,71.419693 C84.4618873,71.4188574 86.1755964,69.8327425 86.1789418,67.4335139 C86.1772691,65.2189699 84.4142145,63.8492953 82.1861418,63.8476239 L82.1861418,63.8016617 L82.1861418,63.7556995 C84.4485055,63.7582065 86.2642509,65.1629795 86.2684327,67.4335139 C86.2659236,69.8812117 84.5062145,71.5074391 82.2413418,71.5116175 C79.9873418,71.5074391 78.2569055,69.9756432 78.2527236,67.686724 M79.7280691,67.3173548 C79.7314145,65.9008823 80.2850873,64.2178288 82.1660691,64.2178288 C83.9558873,64.2220072 84.7905782,66.118994 84.7939236,67.6666677 C84.7905782,69.2018063 84.4284327,71.0469811 82.3458873,71.0469811 L82.3458873,71.0035259 L82.3458873,70.9575637 C84.3498145,70.9558923 84.6977418,69.2018063 84.7010873,67.6666677 C84.7010873,66.1415573 83.8789418,64.313096 82.1660691,64.310589 C80.3586873,64.313096 79.8242509,65.9150888 79.8192327,67.3173548 C79.8209055,69.1926139 80.6773418,70.954221 82.3458873,70.9575637 L82.3458873,71.0035259 L82.3458873,71.0469811 C80.5970509,71.0453098 79.7314145,69.2126701 79.7280691,67.3173548" id="Fill-64" fill="#231F1F"></path>
      <path d="M93.3244145,69.2338128 L93.34616,69.2129209 L93.34616,65.2660185 C93.34616,64.4019285 92.7439782,64.2757413 92.4278327,64.2757413 L92.1986691,64.2757413 L92.1986691,63.9590197 C92.6921236,63.9590197 93.1780509,64.0016392 93.6715055,64.0016392 C94.1047418,64.0016392 94.5363055,63.9590197 94.9695418,63.9590197 L94.9695418,64.2757413 L94.8106327,64.2757413 C94.3690327,64.2757413 93.8722327,64.359309 93.8722327,65.6128244 L93.8722327,70.4029249 C93.8722327,70.7722941 93.8831055,71.1408276 93.9366327,71.4667417 L93.5351782,71.4667417 L88.1080145,65.4222901 L88.1080145,69.7619606 C88.1080145,70.6778626 88.2878327,70.9929128 89.0974327,70.9929128 L89.2780873,70.9929128 L89.2780873,71.3087987 C88.8247782,71.3087987 88.3723055,71.2678505 87.9189964,71.2678505 C87.4447782,71.2678505 86.9596873,71.3087987 86.4846327,71.3087987 L86.4846327,70.9929128 L86.6326691,70.9929128 C87.3619782,70.9929128 87.5811055,70.4973564 87.5811055,69.657501 L87.5811055,65.2217276 C87.5811055,64.6325753 87.0985236,64.2757413 86.6217964,64.2757413 L86.4846327,64.2757413 L86.4846327,63.9590197 C86.8852509,63.9590197 87.2967418,64.0016392 87.69736,64.0016392 C88.0135055,64.0016392 88.3171055,63.9590197 88.6340873,63.9590197 L93.3244145,69.2338128 Z" id="Fill-67" fill="#231F1F"></path>
      <path d="M93.9365491,71.5114504 L93.5008036,71.4964082 L88.1530945,65.5422097 L88.1530945,69.7615428 C88.16564,70.6782804 88.3053127,70.9356689 89.0965127,70.9448614 L89.3231673,70.9448614 L89.3231673,70.9933307 L89.3231673,71.3535074 L89.27884,71.3535074 C88.8221855,71.3535074 88.3697127,71.3117236 87.9189127,71.3117236 C87.4472036,71.3117236 86.9621127,71.3535074 86.4837127,71.3535074 L86.4402218,71.3535074 L86.4402218,71.3092166 L86.4402218,70.9448614 L86.4837127,70.9448614 L86.6325855,70.9448614 C87.3267673,70.94319 87.5274945,70.4961029 87.5358582,69.6570832 L87.5358582,65.2213098 C87.5350218,64.6605705 87.0750218,64.3212857 86.6217127,64.3212857 L86.4402218,64.3212857 L86.4402218,64.2753234 L86.4402218,63.9134753 L86.4837127,63.9134753 C86.8876764,63.9134753 87.2991673,63.9544235 87.6972764,63.9544235 C88.00924,63.9544235 88.31284,63.9134753 88.6699673,63.9301888 L93.3000764,69.1381278 L93.3000764,65.2656006 C93.2967309,64.4299237 92.7346945,64.3279711 92.4277491,64.3212857 L92.1500764,64.3212857 L92.1500764,64.2753234 L92.1500764,63.9134753 L92.1985855,63.9134753 C92.6937127,63.9134753 93.17964,63.9544235 93.6697491,63.9544235 C94.1013127,63.9544235 94.5312036,63.9134753 94.9694582,63.9134753 L95.0137855,63.9134753 L95.0137855,63.9594375 L95.0137855,64.3212857 L94.9694582,64.3212857 L94.8105491,64.3212857 C94.3764764,64.3329851 93.9281855,64.372262 93.9189855,65.6124066 L93.9189855,70.4033427 C93.9189855,70.7718763 93.9273491,71.1387384 93.9783673,71.4596384 L93.9875673,71.5114504 L93.9365491,71.5114504 Z M93.5359309,71.4195259 L93.8813491,71.4195259 C93.8361855,71.1028043 93.8261491,70.7534914 93.8261491,70.4033427 L93.8261491,65.6124066 C93.8261491,64.346356 94.3580764,64.2318682 94.8105491,64.2285255 L94.9242945,64.2285255 L94.9242945,64.0045641 C94.5061127,64.0079068 94.0912764,64.0463479 93.6697491,64.0463479 C93.1905127,64.0463479 92.71964,64.0079068 92.2429127,64.0045641 L92.2429127,64.2285255 L92.4277491,64.2285255 C92.7530945,64.2318682 93.3895673,64.3756047 93.3895673,65.2656006 L93.3778582,69.2459301 L93.3577855,69.266822 L93.3243309,69.3010848 L88.6340036,64.0045641 C88.3228764,64.0045641 88.0159309,64.0463479 87.6972764,64.0463479 C87.3083673,64.0463479 86.9127673,64.0079068 86.5297127,64.0045641 L86.5297127,64.2285255 L86.6217127,64.2285255 C87.1176764,64.2318682 87.6261855,64.6054158 87.6261855,65.2213098 L87.6261855,69.6570832 C87.6261855,70.5002812 87.3911673,71.0376215 86.6325855,71.0409642 L86.5297127,71.0401286 L86.5297127,71.2632543 C86.9872036,71.2607473 87.4555673,71.2214705 87.9189127,71.2214705 C88.35884,71.2214705 88.7954218,71.2607473 89.2320036,71.2632543 L89.2320036,71.0409642 L89.0965127,71.0409642 C88.2693491,71.0401286 88.0619309,70.6782804 88.0619309,69.7615428 L88.0619309,65.3040418 L93.5359309,71.4195259 Z M93.3243309,69.2342306 L93.3577855,69.2033106 L93.3243309,69.2342306 Z M93.3000764,69.212503 L93.3000764,69.209996 L93.2917127,69.2024749 L93.3000764,69.212503 Z" id="Fill-69" fill="#231F1F"></path>
      <path d="M96.6620909,69.8035773 C96.5583818,70.1604114 96.4312545,70.4370205 96.4312545,70.6233765 C96.4312545,70.9409337 96.8753636,70.9927457 97.2207818,70.9927457 L97.3387091,70.9927457 L97.3387091,71.3086316 C96.9171818,71.2860683 96.4839455,71.2685191 96.0624182,71.2685191 C95.6827091,71.2685191 95.3038364,71.2860683 94.9258,71.3086316 L94.9258,70.9927457 L94.9860182,70.9927457 C95.3991818,70.9927457 95.7479455,70.7503994 95.9026727,70.3074906 L97.5912909,65.4764419 C97.7276182,65.0861808 97.9183091,64.5597043 97.9793636,64.1694431 C98.3180909,64.0541197 98.7379455,63.8452005 98.9411818,63.7165062 C98.9704545,63.7064781 98.9922,63.6956143 99.0248182,63.6956143 C99.0549273,63.6956143 99.0758364,63.6956143 99.0967455,63.7282057 C99.1285273,63.8117734 99.1603091,63.9070406 99.1920909,63.9906083 L101.130782,69.4985552 C101.257073,69.8662531 101.383364,70.2548429 101.521364,70.5724002 C101.647655,70.8682298 101.869291,70.9927457 102.216382,70.9927457 L102.281618,70.9927457 L102.281618,71.3086316 C101.806564,71.2860683 101.331509,71.2685191 100.825509,71.2685191 C100.310309,71.2685191 99.7825636,71.2860683 99.2447818,71.3086316 L99.2447818,70.9927457 L99.3610364,70.9927457 C99.6019091,70.9927457 100.015073,70.9509618 100.015073,70.6877236 C100.015073,70.5515082 99.9205636,70.2673781 99.8026364,69.9289289 L99.3928182,68.7080048 L97.0008182,68.7080048 L96.6620909,69.8035773 Z M98.2026727,65.1388284 L98.1817636,65.1388284 L97.1998727,68.1188526 L99.1728545,68.1188526 L98.2026727,65.1388284 Z" id="Fill-71" fill="#231F1F"></path>
      <path d="M102.276433,71.3538417 C101.801378,71.3354568 101.327996,71.3120579 100.825342,71.3120579 C100.311815,71.3120579 99.7832327,71.3354568 99.2471236,71.3538417 L99.1994509,71.3563487 L99.1994509,71.3087151 L99.1994509,70.946867 L99.2446145,70.946867 L99.3608691,70.946867 C99.6050873,70.946867 99.9680691,70.890041 99.9689055,70.6878072 C99.9714145,70.5674697 99.8760691,70.2799968 99.7581418,69.9440546 L99.35836,68.7532149 L97.0315964,68.7532149 L96.7062509,69.8170317 C96.6000327,70.1780442 96.4754145,70.4529819 96.4770873,70.62346 C96.4770873,70.8816842 96.8726873,70.946867 97.2206145,70.946867 L97.3820327,70.946867 L97.3820327,70.9928292 L97.3820327,71.3563487 L97.33436,71.3538417 C96.9136691,71.3354568 96.4821055,71.3120579 96.0622509,71.3120579 C95.6842145,71.3120579 95.3061782,71.3354568 94.9264691,71.3538417 L94.8796327,71.3563487 L94.8796327,71.3087151 L94.8796327,70.946867 L94.9264691,70.946867 L94.9858509,70.946867 C95.3789418,70.9451957 95.7076327,70.7203986 95.8615236,70.2933676 L97.5476327,65.459812 C97.6822873,65.0703865 97.8721418,64.546417 97.9658145,64.1277429 C98.2961782,64.0124194 98.7193782,63.8018288 98.9242873,63.6748059 C98.9510509,63.6639421 98.98116,63.651407 99.0246509,63.651407 C99.0514145,63.6489 99.1066145,63.6555854 99.1392327,63.7132471 C99.1710145,63.7959791 99.20196,63.8912463 99.2362509,63.9764853 L101.174105,69.4835966 C101.300396,69.8521302 101.426687,70.24072 101.563015,70.5549345 C101.687633,70.8332149 101.878324,70.94436 102.214542,70.946867 L102.324105,70.946867 L102.324105,70.9928292 L102.324105,71.3563487 L102.276433,71.3538417 Z M99.2889418,71.2610816 C99.8108327,71.241861 100.323524,71.2218047 100.825342,71.2218047 C101.315451,71.2218047 101.773778,71.241861 102.233778,71.2602459 L102.232942,71.0396272 L102.214542,71.0396272 C101.858251,71.0412985 101.609851,70.9000691 101.477705,70.5900329 C101.339705,70.27164 101.213415,69.8813789 101.08796,69.513681 L99.1484327,64.0048984 C99.1174873,63.9213307 99.0840327,63.8268992 99.0589418,63.7541953 C99.0505782,63.7416601 99.0514145,63.7416601 99.0447236,63.7416601 L99.0246509,63.7416601 C99.0012327,63.7416601 98.9895236,63.7491812 98.9644327,63.7558666 C98.7586873,63.8853965 98.33716,64.0959871 98.0251964,64.1762121 C97.95996,64.5748301 97.7684327,65.1004709 97.6337782,65.4915677 L95.94516,70.3226163 C95.7854145,70.7805673 95.4165782,71.0412985 94.9858509,71.0396272 L94.9707964,71.0396272 L94.9707964,71.2602459 C95.3329418,71.241861 95.6950873,71.2218047 96.0622509,71.2218047 C96.4703964,71.2218047 96.8869055,71.241861 97.2917055,71.2602459 L97.2917055,71.0396272 L97.2206145,71.0396272 C96.8777055,71.0354488 96.3976327,70.998679 96.3842509,70.62346 C96.38676,70.4162121 96.5163964,70.1471241 96.6201055,69.7902901 L96.6619236,69.8036609 L96.6201055,69.7894544 L96.96636,68.6637975 L99.42276,68.6637975 L99.84596,69.9148059 C99.9622145,70.2532551 100.058396,70.5340426 100.058396,70.6878072 C100.042505,71.0103785 99.5992327,71.0337774 99.3608691,71.0396272 L99.2889418,71.0396272 L99.2889418,71.2610816 Z M97.1361418,68.1640627 L98.1481418,65.0921141 L98.1799236,65.0921141 L98.2025055,65.0921141 L98.2025055,65.138912 L98.1907964,65.1422547 L98.2025055,65.138912 L98.2025055,65.0921141 L98.2351236,65.0921141 L99.2312327,68.1640627 L97.1361418,68.1640627 Z M97.2632691,68.0721382 L99.1066145,68.0721382 L98.18996,65.2525641 L97.2632691,68.0721382 Z M98.1590145,65.1522828 L98.1799236,65.1447618 L98.1590145,65.1522828 Z" id="Fill-73" fill="#231F1F"></path>
      <path d="M104.935316,70.2761527 C104.935316,70.6998409 105.228044,70.8243568 105.565935,70.867812 C105.997498,70.8995677 106.472553,70.8995677 106.95848,70.8460844 C107.40008,70.792601 107.779789,70.541898 107.968807,70.2761527 C108.136916,70.0455058 108.231425,69.7505119 108.295825,69.5190293 L108.600262,69.5190293 C108.484007,70.1190454 108.336807,70.709869 108.210516,71.3090494 C107.285498,71.3090494 106.355462,71.2681012 105.429607,71.2681012 C104.501244,71.2681012 103.574553,71.3090494 102.647862,71.3090494 L102.647862,70.9923278 L102.793389,70.9923278 C103.173935,70.9923278 103.586262,70.9405159 103.586262,70.2878521 L103.586262,64.8768437 C103.586262,64.3278039 103.173935,64.2751563 102.793389,64.2751563 L102.647862,64.2751563 L102.647862,63.9592704 C103.205716,63.9592704 103.754371,64.0010542 104.312225,64.0010542 C104.850007,64.0010542 105.37608,63.9592704 105.914698,63.9592704 L105.914698,64.2751563 L105.650407,64.2751563 C105.249789,64.2751563 104.935316,64.2868558 104.935316,64.8442523 L104.935316,70.2761527 Z" id="Fill-75" fill="#231F1F"></path>
      <path d="M108.210935,71.3538417 C107.281735,71.3538417 106.354207,71.3120579 105.429189,71.3120579 C104.502498,71.3120579 103.574971,71.3538417 102.645771,71.3538417 L102.601444,71.3538417 L102.601444,71.3087151 L102.601444,70.946867 L102.645771,70.946867 L102.793807,70.946867 C103.175189,70.9376746 103.536498,70.9109329 103.54068,70.2875179 L103.54068,64.8748381 C103.536498,64.3625681 103.176025,64.3283053 102.793807,64.3216199 L102.601444,64.3216199 L102.601444,64.2756577 L102.601444,63.9138096 L102.645771,63.9138096 C103.206971,63.9138096 103.755625,63.9547577 104.311807,63.9547577 C104.847916,63.9547577 105.372316,63.9138096 105.915116,63.9138096 L105.956935,63.9138096 L105.956935,63.9597718 L105.956935,64.3216199 L105.915116,64.3216199 L105.649989,64.3216199 C105.241844,64.3316481 104.987589,64.3132632 104.978389,64.8447537 L104.978389,70.2758184 C104.980898,70.6702579 105.238498,70.7755532 105.568862,70.8223511 C105.754535,70.8348863 105.950244,70.8424074 106.152644,70.8424074 C106.41108,70.8424074 106.678716,70.8298722 106.950535,70.8014592 C107.380425,70.7504829 107.749262,70.5022869 107.931589,70.2515838 C108.093844,70.025951 108.185844,69.7376424 108.250244,69.5078313 L108.258607,69.4735685 L108.294571,69.4735685 L108.65588,69.4735685 L108.64668,69.5287232 C108.527916,70.1312463 108.382389,70.7178915 108.254425,71.3187433 L108.246062,71.3538417 L108.210935,71.3538417 Z M108.172462,71.2627529 C108.294571,70.6911499 108.432571,70.132082 108.546316,69.5646573 L108.328862,69.5646573 C108.263625,69.7927971 108.169953,70.0760916 108.005189,70.3050671 C107.807807,70.5774978 107.418062,70.8348863 106.960571,70.8917123 C106.684571,70.9192897 106.41108,70.9334962 106.152644,70.9334962 C105.948571,70.9334962 105.751189,70.9251394 105.559662,70.9109329 C105.217589,70.8733274 104.885553,70.727084 104.886389,70.2758184 L104.886389,64.8447537 C104.886389,64.2589442 105.256898,64.2288598 105.649989,64.2288598 L105.867444,64.2288598 L105.867444,64.0048984 C105.348062,64.0082411 104.835371,64.0475179 104.311807,64.0475179 C103.766498,64.0475179 103.232898,64.0082411 102.692607,64.0048984 L102.692607,64.2288598 L102.793807,64.2288598 C103.169335,64.2288598 103.629335,64.2948783 103.629335,64.8748381 L103.629335,70.2875179 C103.629335,70.9694303 103.171844,71.0396272 102.793807,71.0396272 L102.692607,71.0396272 L102.692607,71.2627529 C103.603407,71.2610816 104.514207,71.2218047 105.429189,71.2218047 C106.345844,71.2218047 107.259989,71.2610816 108.172462,71.2627529 L108.172462,71.2627529 Z" id="Fill-77" fill="#231F1F"></path>
      <path d="M108.472131,63.6608501 C109.107767,63.6608501 109.581985,64.1488855 109.581985,64.7723005 C109.581985,65.3948799 109.107767,65.8779012 108.472131,65.8779012 C107.838167,65.8779012 107.363113,65.3948799 107.363113,64.7723005 C107.363113,64.1488855 107.838167,63.6608501 108.472131,63.6608501 L108.472131,63.6608501 Z M108.472131,65.671489 C108.969767,65.671489 109.349476,65.2486364 109.349476,64.7723005 C109.349476,64.2942933 108.973949,63.8689337 108.472131,63.8689337 C107.972822,63.8689337 107.593113,64.2942933 107.593113,64.7723005 C107.593113,65.2486364 107.972822,65.671489 108.472131,65.671489 L108.472131,65.671489 Z M107.920131,65.3564387 L107.920131,65.3029554 C108.056458,65.2837348 108.081549,65.2870775 108.081549,65.2043455 L108.081549,64.3820394 C108.081549,64.266716 108.06984,64.2266035 107.925149,64.2332889 L107.925149,64.1764628 L108.49304,64.1764628 C108.687913,64.1764628 108.867731,64.2700587 108.867731,64.4714568 C108.867731,64.6360852 108.759004,64.758094 108.605113,64.8057276 L108.788276,65.0597734 C108.872749,65.1750968 108.969767,65.2837348 109.031658,65.3213403 L109.031658,65.3564387 L108.815876,65.3564387 C108.712167,65.3564387 108.621004,65.1391627 108.417767,64.8475115 L108.294822,64.8475115 L108.294822,65.2143736 C108.294822,65.2870775 108.319913,65.2837348 108.45624,65.3029554 L108.45624,65.3564387 L107.920131,65.3564387 Z M108.294822,64.7723005 L108.425295,64.7723005 C108.569149,64.7723005 108.635222,64.6644982 108.635222,64.489006 C108.635222,64.3126782 108.532349,64.2508381 108.418604,64.2508381 L108.294822,64.2508381 L108.294822,64.7723005 Z" id="Fill-79" fill="#231F1F"></path>
    </g>
  </g>
</svg>