<?xml version="1.0" encoding="UTF-8" standalone="no"?>
<svg width="128px" height="80px" viewBox="0 0 128 80" version="1.1" xmlns="http://www.w3.org/2000/svg" xmlns:xlink="http://www.w3.org/1999/xlink">
  <!-- Generator: Sketch 41 (35326) - http://www.bohemiancoding.com/sketch -->
  <title>elo_xxxhdpi_128x80</title>
  <desc>Created with Sketch.</desc>
  <defs></defs>
  <g id="Page-13" stroke="none" stroke-width="1" fill="none" fill-rule="evenodd">
    <g id="elo_xxxhdpi_128x80">
      <g id="container">
        <path d="M0,8.00005106 C0,3.58174486 3.59075293,0 8.00697327,0 L119.993027,0 C124.415156,0 128,3.5797863 128,8.00005106 L128,71.9999489 C128,76.4182551 124.409247,80 119.993027,80 L8.00697327,80 C3.58484404,80 0,76.4202137 0,71.9999489 L0,8.00005106 Z" id="Path" fill="#E0E0E0"></path>
        <path d="M4,8.00005106 L4,71.9999489 C4,74.2094718 5.79238055,76 8.00697327,76 L119.993027,76 C122.203379,76 124,74.2058465 124,71.9999489 L124,8.00005106 C124,5.79052815 122.207619,4 119.993027,4 L8.00697327,4 C5.79662132,4 4,5.79415354 4,8.00005106 Z" fill="#FFFFFF"></path>
      </g>
      <g id="Page-1" transform="translate(36.000000, 12.000000)">
        <path d="M0,27.9965003 C0,12.5329467 12.5349,0 28.0014,0 C43.4658,0 56,12.5329467 56,27.9965003 C56,43.4663534 43.4658,56 28.0014,56 C12.5349,56 0,43.4663534 0,27.9965003" id="Fill-1" fill="#000000"></path>
        <g id="Group" transform="translate(8.166667, 16.333333)">
          <path d="M11.3166667,15.070465 C10.4479837,15.9166114 9.26856911,16.4322211 7.9675935,16.4130992 C7.07295935,16.3987577 6.24593496,16.1324163 5.54388618,15.6850992 L3.79969106,18.4639285 C4.99481301,19.2178797 6.40164228,19.6658797 7.91910569,19.6890992 C10.128374,19.7218797 12.1423252,18.8538797 13.6058374,17.4197333 L11.3166667,15.070465 Z" id="Fill-4" fill="#FFFFFF"></path>
          <path d="M3.37682276,12.2131675 C3.35770081,12.0287772 3.34404228,11.8396065 3.34950569,11.648387 C3.3904813,9.05531382 5.52394472,6.98741138 8.11428618,7.03043577 C9.52521301,7.04955772 10.775652,7.69492358 11.6211154,8.69404553 L3.37682276,12.2131675 Z M8.1607252,3.75102114 C3.7647252,3.68341138 0.142481301,7.19706992 0.0755544715,11.5971675 C0.049603252,13.2457528 0.526286179,14.7871187 1.36560325,16.0689724 L15.7978959,9.90077724 C14.9838472,6.42399675 11.8922374,3.81043577 8.1607252,3.75102114 L8.1607252,3.75102114 Z" id="Fill-6" fill="#FFFFFF"></path>
          <path d="M20.3229008,0.160396748 L20.3229008,15.5474211 L22.9917789,16.6537626 L21.730413,19.6886894 L19.0902179,18.591226 C18.4960715,18.3344455 18.0945106,17.9417626 17.7892423,17.4985431 C17.4962667,17.0457626 17.278413,16.426348 17.278413,15.5904455 L17.278413,0.160396748 L20.3229008,0.160396748 Z" id="Fill-8" fill="#FFFFFF"></path>
          <path d="M28.3455837,15.2542407 L28.3455837,15.2542407 C27.446852,14.3978504 26.7366081,13.057948 26.7366081,11.7207772 C26.7366081,10.3166797 27.363535,9.07102114 28.3408033,8.21189919 C28.3367057,8.21599675 26.1506569,5.7533626 26.1506569,5.7533626 C24.5034374,7.21482602 23.4578764,9.34214309 23.4578764,11.7207772 C23.4578764,14.1294602 24.5293886,16.2820455 26.2175837,17.7462407 L28.3455837,15.2542407" id="Fill-10" fill="#00A6E0"></path>
          <path d="M29.8635252,7.30545041 C30.3729886,7.11832846 30.8510374,7.03023089 31.4253789,7.03023089 C33.692013,7.03023089 35.5782569,8.63169431 36.0201106,10.7637919 L39.2312325,10.0958894 C38.4813789,6.4729626 35.2750374,3.74945041 31.4253789,3.74945041 C30.4965984,3.74945041 29.6053789,3.91676748 28.7742569,4.20906016 L29.8635252,7.30545041 C29.8635252,7.30545041 29.8860618,7.29793821 29.8635252,7.30545041" id="Fill-12" fill="#FFF000"></path>
          <path d="M31.4251057,16.4113236 C30.7974959,16.4113236 29.8967154,16.1429333 29.8967154,16.1429333 L28.8497886,19.2563967 C29.6590569,19.534348 30.5250081,19.6893724 31.4251057,19.6893724 C35.3157398,19.6893724 38.5521301,16.902348 39.2514472,13.2159089 L36.0280325,12.6081041 C35.6121301,14.7750309 33.7135935,16.4113236 31.4251057,16.4113236" id="Fill-14" fill="#FF0217"></path>
        </g>
      </g>
    </g>
  </g>
</svg>