<svg xmlns="http://www.w3.org/2000/svg" width="24" height="24" viewBox="0 0 24 24"><style type="text/css">.st0{opacity:0;fill:#FFFFFF;} .st1{fill:#9C27B0;} .st2{fill:#039BE5;} .st3{fill:#FF1744;} .st4{fill:#FF5722;}</style><path class="st0" d="M0 0h24v24h-24z"/><path id="Fill-3" class="st1" d="M14.2 13h4.6c.7 0 1.2.5 1.2 1.2v4.6c0 .7-.5 1.2-1.2 1.2h-4.6c-.7 0-1.2-.5-1.2-1.2v-4.6c0-.7.6-1.2 1.2-1.2"/><path id="Fill-5" class="st2" d="M5.2 13h4.6c.7 0 1.2.5 1.2 1.2v6.6c0 .7-.5 1.2-1.2 1.2h-4.6c-.6 0-1.2-.5-1.2-1.2v-6.6c0-.7.6-1.2 1.2-1.2"/><path id="Fill-7" class="st3" d="M14.2 5h6.6c.7 0 1.2.5 1.2 1.2v3.6c0 .7-.5 1.2-1.2 1.2h-6.6c-.7 0-1.2-.5-1.2-1.2v-3.6c0-.7.6-1.2 1.2-1.2"/><path id="Fill-9" class="st4" d="M3.2 2h6.6c.7 0 1.2.5 1.2 1.2v6.6c0 .7-.5 1.2-1.2 1.2h-6.6c-.6 0-1.2-.5-1.2-1.2v-6.6c0-.7.6-1.2 1.2-1.2"/></svg>