<svg width="16px" height="16px" viewBox="0 0 16 16" xmlns="http://www.w3.org/2000/svg"><path d="M12.6666667,2.66666667 L2,2.66666667 C1.26,2.66666667 0.673333333,3.26 0.673333333,4 L0.666666667,12 C0.666666667,12.74 1.26,13.3333333 2,13.3333333 L12.6666667,13.3333333 C13.4066667,13.3333333 14,12.74 14,12 L14,4 C14,3.26 13.4066667,2.66666667 12.6666667,2.66666667 L12.6666667,2.66666667 Z M12.6666667,12 L2,12 L2,8 L12.6666667,8 L12.6666667,12 L12.6666667,12 Z M12.6666667,5.33333333 L2,5.33333333 L2,4 L12.6666667,4 L12.6666667,5.33333333 L12.6666667,5.33333333 Z" id="Shape" fill-opacity="0.54" fill="#000000"></path><circle id="Oval-13" fill="#109D58" cx="12" cy="12" r="4"></circle><path d="M12,11.0588235 C11.8423529,10.6512941 11.4007059,10.3529412 10.9411765,10.3529412 C10.3428235,10.3529412 9.88235294,10.8075294 9.88235294,11.4117647 C9.88235294,12.2421176 10.7748235,12.8842353 12,14.1176471 C13.2251765,12.8842353 14.1176471,12.2421176 14.1176471,11.4117647 C14.1176471,10.8075294 13.6571765,10.3529412 13.0588235,10.3529412 C12.5988235,10.3529412 12.1576471,10.6512941 12,11.0588235 Z" id="Shape" fill="#FFFFFF"></path></svg>
