<?xml version="1.0" encoding="UTF-8" standalone="no"?>
<svg width="24px" height="24px" viewBox="0 0 24 24" version="1.1" xmlns="http://www.w3.org/2000/svg" xmlns:xlink="http://www.w3.org/1999/xlink" xmlns:sketch="http://www.bohemiancoding.com/sketch/ns">
    <!-- Generator: Sketch 3.4.4 (17249) - http://www.bohemiancoding.com/sketch -->
    <title>ic_family_24px</title>
    <desc>Created with Sketch.</desc>
    <defs></defs>
    <g id="Page-1" stroke="none" stroke-width="1" fill="none" fill-rule="evenodd" sketch:type="MSPage">
        <g id="Drawer-(SVG)-Copy" sketch:type="MSLayerGroup" transform="translate(-34.000000, -21.000000)" fill="#000000">
            <g id="ic_change_family_method-copy" transform="translate(34.000000, 21.000000)" sketch:type="MSShapeGroup">
                <g id="ic_family_24px">
                    <path d="M16.696472,13.9923529 L12,18.7647059 L7.303528,13.9923529 C6.808264,13.4782353 6.5,12.7852047 6.5,12.0141176 C6.5,10.4718541 7.732176,9.22 9.25,9.22 C10.00944,9.22 10.702352,9.53320941 11.196472,10.0472376 L12,10.8516753 L12.803528,10.0357929 C13.297648,9.53320941 13.99056,9.22 14.75,9.22 C16.267912,9.22 17.5,10.4718541 17.5,12.0141176 C17.5,12.7852047 17.191736,13.4891435 16.696472,13.9923529 L16.696472,13.9923529 Z M20,3 L17,3 L17,6.48001099 L12,2 L1,12 L4,12 L4,21 L20,21 L20,12 L23,12 L20,9 L20,3 Z" id="FamilyLibrary-(1)-Copy"></path>
                </g>
            </g>
        </g>
    </g>
</svg>