<svg id="Layer_1" xmlns="http://www.w3.org/2000/svg" viewBox="0 0 96 96"><style>.st0{fill-rule:evenodd;clip-rule:evenodd;fill:#D1D2D1;} .st1{fill:none;} .st2{fill-rule:evenodd;clip-rule:evenodd;fill:#FFFFFF;}</style><circle class="st0" cx="48" cy="48" r="48"/><path class="st1" d="M-132-192h360v640h-360z"/><path class="st2" d="M68 25.5h-7.5v8.7L48 23 20.5 48H28v22.5h40V48h7.5L68 40.5v-15zm-8.26 27.48L48 64.91 36.26 52.98c-1.24-1.29-2.01-3.02-2.01-4.95 0-3.86 3.08-6.99 6.88-6.99 1.9 0 3.63.78 4.87 2.07l2 2.02 2.01-2.04c1.24-1.26 2.97-2.04 4.87-2.04 3.79 0 6.88 3.13 6.88 6.99-.01 1.92-.78 3.68-2.02 4.94z"/></svg>