<?xml version="1.0" encoding="UTF-8"?>
<svg width="20px" height="15px" viewBox="0 0 20 15" version="1.1" xmlns="http://www.w3.org/2000/svg" xmlns:xlink="http://www.w3.org/1999/xlink">
  <!-- Generator: Sketch 48.2 (47327) - http://www.bohemiancoding.com/sketch -->
  <title>ic_games_24dp</title>
  <desc>Created with Sketch.</desc>
  <defs></defs>
  <g id="play_stickersheet_3.0.0" stroke="none" stroke-width="1" fill="none" fill-rule="evenodd" transform="translate(-2258.000000, -1843.000000)">
    <g id="BRANDING_icons" transform="translate(2048.000000, 1670.000000)">
      <g id="ic_games_24dp" transform="translate(208.000000, 169.000000)">
        <polygon id="bounding" fill-opacity="0" fill="#000000" points="0 24 24 24 24 0 0 0"></polygon>
        <path d="M12.9998,9.4921 C12.9998,9.0501 13.3578,8.6921 13.7998,8.6921 C14.2418,8.6921 14.5998,9.0501 14.5998,9.4921 C14.5998,9.9341 14.2418,10.2921 13.7998,10.2921 C13.3578,10.2921 12.9998,9.9341 12.9998,9.4921 M16.3838,9.4921 C16.3838,9.0501 16.7418,8.6921 17.1838,8.6921 C17.6258,8.6921 17.9838,9.0501 17.9838,9.4921 C17.9838,9.9341 17.6258,10.2921 17.1838,10.2921 C16.7418,10.2921 16.3838,9.9341 16.3838,9.4921 M15.4918,11.9841 C15.0498,11.9841 14.6918,11.6261 14.6918,11.1841 C14.6918,10.7421 15.0498,10.3841 15.4918,10.3841 C15.9338,10.3841 16.2918,10.7421 16.2918,11.1841 C16.2918,11.6261 15.9338,11.9841 15.4918,11.9841 M15.4918,8.6001 C15.0498,8.6001 14.6918,8.2421 14.6918,7.8001 C14.6918,7.3581 15.0498,7.0001 15.4918,7.0001 C15.9338,7.0001 16.2918,7.3581 16.2918,7.8001 C16.2918,8.2421 15.9338,8.6001 15.4918,8.6001 M20.4658,8.0001 C20.0718,5.6971 18.0698,4.0001 15.6588,4.0001 L8.3418,4.0001 C5.9308,4.0001 3.9278,5.6971 3.5338,8.0001 C3.5338,8.0001 1.9998,16.8021 1.9998,16.9271 C1.9998,18.0741 2.9278,19.0001 4.0728,19.0001 C4.6448,19.0001 5.1638,18.8011 5.5388,18.4241 L8.9998,15.0001 L14.9998,15.0001 L18.4608,18.4241 C18.8368,18.8011 19.3548,19.0001 19.9268,19.0001 C21.0718,19.0001 21.9998,18.0741 21.9998,16.9271 C21.9998,16.8021 20.4658,8.0001 20.4658,8.0001" id="Fill-13" fill="#0F9D58"></path>
        <polygon id="Fill-14" fill="#FFFFFF" points="11 10 9 10 9 12 8 12 8 10 6 10 6 9 8 9 8 7 9 7 9 9 11 9"></polygon>
      </g>
    </g>
  </g>
</svg>
