<svg width="32px" height="20px" viewBox="0 0 32 20" version="1.1" xmlns="http://www.w3.org/2000/svg" xmlns:xlink="http://www.w3.org/1999/xlink">
  <!-- Generator: Sketch 48.2 (47327) - http://www.bohemiancoding.com/sketch -->
  <title>ic_GPay</title>
  <desc>Created with Sketch.</desc>
  <defs></defs>
  <g id="acceptance-marks" stroke="none" stroke-width="1" fill="none" fill-rule="evenodd">
    <g id="ic_GPay">
      <g id="container">
        <path d="M0,2.00001277 C0,0.895436216 0.897688232,0 2.00174332,0 L29.9982567,0 C31.103789,0 32,0.894946575 32,2.00001277 L32,17.9999872 C32,19.1045638 31.1023118,20 29.9982567,20 L2.00174332,20 C0.89621101,20 0,19.1050534 0,17.9999872 L0,2.00001277 Z" id="Path" fill="#E0E0E0"></path>
        <path d="M1,2.00001277 L1,17.9999872 C1,18.552368 1.44809514,19 2.00174332,19 L29.9982567,19 C30.5508447,19 31,18.5514616 31,17.9999872 L31,2.00001277 C31,1.44763204 30.5519049,1 29.9982567,1 L2.00174332,1 C1.44915533,1 1,1.44853838 1,2.00001277 Z" fill="#FFFFFF" fill-rule="nonzero"></path>
      </g>
      <g id="GPay/big" transform="translate(3.500000, 5.500000)">
        <g id="logo_GooglePay_FullColor_rgb">
          <path d="M11.8233945,4.90711009 L11.8233945,7.81708716 L10.9002294,7.81708716 L10.9002294,0.630733945 L13.3486239,0.630733945 C13.9389182,0.618403378 14.5096832,0.842374426 14.9340596,1.25286697 C15.3634309,1.63908159 15.6048954,2.19204579 15.5963303,2.76949541 C15.6086282,3.35017031 15.3667334,3.90726125 14.9340596,4.29472477 C14.5059251,4.70298165 13.9774465,4.90691896 13.3486239,4.9065367 L11.8233945,4.9065367 L11.8233945,4.90711009 Z M11.8233945,1.51548165 L11.8233945,4.02408257 L13.3715596,4.02408257 C13.7147471,4.03425518 14.0463399,3.89936998 14.2849771,3.65252294 C14.5221663,3.42192192 14.6559859,3.10517973 14.6559859,2.77436927 C14.6559859,2.4435588 14.5221663,2.12681661 14.2849771,1.8962156 C14.0492342,1.6440634 13.7166123,1.50520996 13.3715596,1.51490826 L11.8233945,1.51490826 L11.8233945,1.51548165 Z" id="Shape" fill="#5F6368" fill-rule="nonzero"></path>
          <path d="M17.7236239,2.7396789 C18.4059633,2.7396789 18.9445719,2.92201835 19.3394495,3.28669725 C19.7343272,3.65137615 19.9315749,4.15137615 19.9311927,4.78669725 L19.9311927,7.81708716 L19.0481651,7.81708716 L19.0481651,7.13474771 L19.0080275,7.13474771 C18.6257645,7.69667431 18.1173547,7.97763761 17.4827982,7.97763761 C16.9411315,7.97763761 16.4879587,7.81708716 16.1232798,7.49598624 C15.768845,7.19751797 15.5678823,6.75514725 15.5762615,6.2918578 C15.5762615,5.78306575 15.7685398,5.37844037 16.1530963,5.07798165 C16.5376529,4.77752294 17.0510321,4.62691131 17.6932339,4.62614679 C18.2413991,4.62614679 18.6928517,4.72649083 19.0475917,4.9271789 L19.0475917,4.71616972 C19.0497086,4.40035115 18.9096949,4.10032173 18.6662844,3.89908257 C18.4221596,3.67882915 18.1040054,3.55865123 17.7752294,3.5625 C17.2595566,3.5625 16.8514908,3.78000765 16.5510321,4.21502294 L15.7379587,3.70298165 C16.1852064,3.06077982 16.8470948,2.7396789 17.7236239,2.7396789 Z M16.5292431,6.31192661 C16.5279873,6.5503104 16.6420521,6.77459514 16.8354358,6.91399083 C17.0396089,7.07459574 17.2930274,7.15967629 17.5527523,7.15481651 C17.9423138,7.15416551 18.31573,6.99910808 18.5911697,6.72362385 C18.8969801,6.43577982 19.0498853,6.09805046 19.0498853,5.71043578 C18.7620413,5.48107798 18.3606651,5.36639908 17.8457569,5.36639908 C17.4707569,5.36639908 17.1580657,5.45680428 16.9076835,5.63761468 C16.6548165,5.82110092 16.5292431,6.04415138 16.5292431,6.31192661 Z" id="Shape" fill="#5F6368" fill-rule="nonzero"></path>
          <polygon id="Shape" fill="#5F6368" fill-rule="nonzero" points="25 2.90022936 21.9174312 9.98451835 20.9644495 9.98451835 22.1083716 7.50573394 20.081422 2.90022936 21.0848624 2.90022936 22.5498853 6.43233945 22.5699541 6.43233945 23.9948394 2.90022936"></polygon>
          <path d="M8.09288991,4.27981651 C8.09323802,3.99848163 8.0694505,3.71763546 8.02178899,3.44036697 L4.12844037,3.44036697 L4.12844037,5.03038991 L6.35837156,5.03038991 C6.26616461,5.54355051 5.96830454,5.9967618 5.53383028,6.28497706 L5.53383028,7.31708716 L6.8646789,7.31708716 C7.64392202,6.59862385 8.09288991,5.53612385 8.09288991,4.27981651 Z" id="Shape" fill="#4285F4" fill-rule="nonzero"></path>
          <path d="M4.12844037,8.31422018 C5.24254587,8.31422018 6.18061927,7.9483945 6.8646789,7.31766055 L5.53383028,6.28555046 C5.16341743,6.53669725 4.68635321,6.68004587 4.12844037,6.68004587 C3.0516055,6.68004587 2.13761468,5.95412844 1.81077982,4.97591743 L0.439793578,4.97591743 L0.439793578,6.03956422 C1.14056989,7.43403499 2.56778789,8.31414906 4.12844037,8.31422018 Z" id="Shape" fill="#34A853" fill-rule="nonzero"></path>
          <path d="M1.81077982,4.97591743 C1.63799395,4.46332821 1.63799395,3.90823142 1.81077982,3.3956422 L1.81077982,2.33199541 L0.439793578,2.33199541 C-0.146346985,3.49835316 -0.146346985,4.87320648 0.439793578,6.03956422 L1.81077982,4.97591743 Z" id="Shape" fill="#FABB05" fill-rule="nonzero"></path>
          <path d="M4.12844037,1.69151376 C4.71719468,1.68189507 5.28608764,1.90434417 5.71215596,2.31077982 L6.89048165,1.13245413 C6.14330048,0.430662737 5.15345136,0.0453675112 4.12844037,0.0573394495 C2.56778789,0.0574105778 1.14056989,0.937524647 0.439793578,2.33199541 L1.81077982,3.3956422 C2.13761468,2.41743119 3.0516055,1.69151376 4.12844037,1.69151376 Z" id="Shape" fill="#E94235" fill-rule="nonzero"></path>
        </g>
      </g>
    </g>
  </g>
</svg>