<svg xmlns="http://www.w3.org/2000/svg" width="24px" height="24px" viewBox="0 0 24 24"><path d="M20.47 8c-.39-2.3-2.4-4-4.81-4H8.34C5.93 4 3.93 5.7 3.53 8 3.53 8 2 16.8 2 16.93 2 18.07 2.93 19 4.07 19c.57 0 1.09-.2 1.47-.58L9 15h6l3.46 3.42c.38.38.89.58 1.47.58 1.15 0 2.07-.93 2.07-2.07C22 16.8 20.47 8 20.47 8zM11 10H9v2H8v-2H6V9h2V7h1v2h2v1zm2.8.3c-.44 0-.8-.36-.8-.8 0-.44.36-.8.8-.8.44 0 .8.36.8.8 0 .44-.36.8-.8.8zm1.69 1.7c-.44 0-.8-.36-.8-.8 0-.44.36-.8.8-.8.44 0 .8.36.8.8 0 .44-.36.8-.8.8zm0-3.4c-.44 0-.8-.36-.8-.8s.36-.8.8-.8c.44 0 .8.36.8.8s-.36.8-.8.8zm1.71 1.7c-.44 0-.8-.36-.8-.8 0-.44.36-.8.8-.8s.8.36.8.8c0 .44-.36.8-.8.8z"/><path fill="none" d="M0 0h24v24H0z"/></svg>