<?xml version="1.0" encoding="UTF-8"?>
<svg width="32px" height="20px" viewBox="0 0 32 20" version="1.1" xmlns="http://www.w3.org/2000/svg" xmlns:xlink="http://www.w3.org/1999/xlink">
  <!-- Generator: Sketch 48.2 (47327) - http://www.bohemiancoding.com/sketch -->
  <title>ic_generic_DCB</title>
  <desc>Created with Sketch.</desc>
  <defs></defs>
  <g id="Icons" stroke="none" stroke-width="1" fill="none" fill-rule="evenodd">
    <g id="ic_generic_DCB">
      <g id="container">
        <path d="M0,2.00001277 C0,0.895436216 0.897688232,0 2.00174332,0 L29.9982567,0 C31.103789,0 32,0.894946575 32,2.00001277 L32,17.9999872 C32,19.1045638 31.1023118,20 29.9982567,20 L2.00174332,20 C0.89621101,20 0,19.1050534 0,17.9999872 L0,2.00001277 Z" id="Path" fill="#E0E0E0"></path>
        <path d="M1,2.00001277 L1,17.9999872 C1,18.552368 1.44809514,19 2.00174332,19 L29.9982567,19 C30.5508447,19 31,18.5514616 31,17.9999872 L31,2.00001277 C31,1.44763204 30.5519049,1 29.9982567,1 L2.00174332,1 C1.44915533,1 1,1.44853838 1,2.00001277 Z" fill="#FFFFFF" fill-rule="nonzero"></path>
      </g>
      <g id="ic_payment_carrier_billing_24dp" transform="translate(8.000000, 2.000000)">
        <g>
          <path d="M7.97734807,4.66666713 C7.36629834,4.667819 6.86685083,5.21035195 6.8679558,5.87267986 C6.86850829,6.29829753 7.07734807,6.67208085 7.3878453,6.88517765 L3,14.6666667 L13,14.6666667 L8.54917127,6.89784827 C8.8718232,6.68590334 9.09060773,6.30520878 9.09005525,5.86922423 C9.08895028,5.20689632 8.58839779,4.66609119 7.97734807,4.66666713 Z M5.13330078,13.3333333 L5.90908356,12.0048987 L10.0637797,12 L10.8466797,13.3266602 L5.13330078,13.3333333 Z M9.42253818,10.662203 L6.57999674,10.6668105 L7.9899415,8.16666667 L9.42253818,10.662203 L9.42253818,10.662203 Z M3.92659858,10.065896 C2.53728268,9.21146382 1.69263849,7.68857093 1.66730492,5.99122187 C1.64024407,4.24032687 2.47510029,2.63509988 3.90068925,1.69833363 L4.53748302,2.66100921 C3.4435335,3.38013708 2.80270938,4.6186031 2.82343684,5.97337322 C2.84358855,7.27517316 3.48268538,8.43821424 4.53345268,9.08364446 L3.92659858,10.065896 Z M5.21861054,8.13421142 C4.79139447,7.75651095 4.1839646,7.02817087 4.18223731,5.92846372 C4.18051002,4.62781531 5.02400268,3.84650504 5.4195518,3.54998714 L6.05980015,4.51093544 C5.81164634,4.70899788 5.33779347,5.1851538 5.33894499,5.92673643 C5.34009652,6.48349916 5.60494746,6.88365438 5.84388906,7.13411125 L5.21861054,8.13421142 Z M13.1762297,5.93882745 C13.1929268,4.58348156 12.5486481,3.3473186 11.4523956,2.63106954 L12.0863105,1.66666667 C13.5147783,2.59940258 14.3542406,4.20175075 14.3329374,5.95264576 C14.3116342,7.65057058 13.4715961,9.17576652 12.085159,10.034229 L11.4754261,9.05370478 C12.5244661,8.40481999 13.1601083,7.24062739 13.1762297,5.93882745 Z M10.5881754,5.89909981 C10.5870239,5.15751718 10.1120195,4.68308855 9.86328993,4.48560187 L10.5006595,3.52292628 C10.8967844,3.81771689 11.7431558,4.59672411 11.7448831,5.89737252 C11.7466104,6.99765544 11.1409078,7.72714704 10.7148433,8.10599904 L10.0866859,7.10820192 C10.3250518,6.85659353 10.5887512,6.45586254 10.5881754,5.89909981 Z" id="Fill-1" fill="#757575"></path>
          <rect id="Rectangle-3" x="0" y="0" width="16" height="16"></rect>
        </g>
      </g>
    </g>
  </g>
</svg>