<?xml version="1.0" encoding="UTF-8"?>
<svg width="59px" height="24px" viewBox="0 0 59 24" version="1.1" xmlns="http://www.w3.org/2000/svg" xmlns:xlink="http://www.w3.org/1999/xlink">
    <!-- Generator: Sketch 49.3 (51167) - http://www.bohemiancoding.com/sketch -->
    <title>ic_GPay_grayscale</title>
    <desc>Created with Sketch.</desc>
    <defs></defs>
    <g id="Redlines" stroke="none" stroke-width="1" fill="none" fill-rule="evenodd">
        <g id="02" transform="translate(-40.000000, -366.000000)" fill="#5F6368" fill-rule="nonzero">
            <g id="ic_GPay_grayscale" transform="translate(40.000000, 366.000000)">
                <g id="logo_GooglePay_FullColor_rgb_436x173px-(2)">
                    <path d="M27.7455657,11.7366857 L27.7455657,18.6966857 L25.5792049,18.6966857 L25.5792049,1.50857143 L31.3247706,1.50857143 C32.7099948,1.47907953 34.0493898,2.01476708 35.0452599,2.99657143 C36.0528512,3.92030853 36.6194879,5.24287249 36.5993884,6.624 C36.6282474,8.01284164 36.0606011,9.34527582 35.0452599,10.272 C34.0405708,11.2484571 32.8004077,11.7362286 31.3247706,11.7353143 L27.7455657,11.7353143 L27.7455657,11.7366857 Z M27.7455657,3.62468571 L27.7455657,9.62468571 L31.3785933,9.62468571 C32.18394,9.64901627 32.9620777,9.3264017 33.5220795,8.736 C34.0786836,8.18445509 34.3927135,7.42688017 34.3927135,6.63565714 C34.3927135,5.84443412 34.0786836,5.0868592 33.5220795,4.53531429 C32.9688696,3.93222387 32.188317,3.60011817 31.3785933,3.62331429 L27.7455657,3.62331429 L27.7455657,3.62468571 Z" id="Shape"></path>
                    <path d="M41.5914373,6.55268571 C43.1926606,6.55268571 44.4565953,6.9888 45.3832416,7.86102857 C46.3098879,8.73325714 46.7727625,9.92914286 46.7718654,11.4486857 L46.7718654,18.6966857 L44.6996942,18.6966857 L44.6996942,17.0646857 L44.6055046,17.0646857 C43.7084608,18.4086857 42.5153925,19.0806857 41.0262997,19.0806857 C39.7551886,19.0806857 38.6917431,18.6966857 37.8359633,17.9286857 C37.004223,17.2148178 36.5326305,16.1567682 36.5522936,15.0486857 C36.5522936,13.8317714 37.0035066,12.864 37.9059327,12.1453714 C38.8083588,11.4267429 40.0130887,11.0665143 41.5201223,11.0646857 C42.8064832,11.0646857 43.8658919,11.3046857 44.6983486,11.7846857 L44.6983486,11.28 C44.7033162,10.5246341 44.3747506,9.80703236 43.8035474,9.32571429 C43.2306678,8.79891846 42.484066,8.51148033 41.7125382,8.52068571 C40.5024261,8.52068571 39.5448318,9.04091429 38.8397554,10.0813714 L36.9317431,8.85668571 C37.9812844,7.32068571 39.5345158,6.55268571 41.5914373,6.55268571 Z M38.7886239,15.0966857 C38.7856768,15.6668453 39.0533489,16.2032831 39.507156,16.5366857 C39.9862823,16.920816 40.5809711,17.1243092 41.1904587,17.1126857 C42.1046297,17.1111287 42.9809131,16.7402667 43.6272783,16.0813714 C44.3449134,15.3929143 44.7037309,14.5851429 44.7037309,13.6580571 C44.0282569,13.1094857 43.0863609,12.8352 41.8780428,12.8352 C40.9980428,12.8352 40.264261,13.0514286 39.6766972,13.4838857 C39.0833028,13.9227429 38.7886239,14.4562286 38.7886239,15.0966857 Z" id="Shape"></path>
                    <polygon id="Shape" points="58.6666667 6.93668571 51.4329052 23.8806857 49.1965749 23.8806857 51.8809786 17.952 47.1244037 6.93668571 49.4791437 6.93668571 52.9170642 15.3846857 52.964159 15.3846857 56.3078899 6.93668571"></polygon>
                    <path d="M1.03204893,5.5776 C2.67653734,2.24234466 6.02574225,0.13731298 9.68807339,0.137142857 C12.0934325,0.108508717 14.4162785,1.03004683 16.1696636,2.70857143 L13.404526,5.52685714 C12.4046857,4.55475597 11.0696835,4.02270858 9.68807339,4.04571429 C7.16110092,4.04571429 5.01626911,5.78194286 4.24929664,8.1216 C3.8438258,9.34759626 3.8438258,10.6752609 4.24929664,11.9012571 C5.01626911,14.2409143 7.16110092,15.9771429 9.68807339,15.9771429 C10.9973089,15.9771429 12.1168196,15.6342857 12.986055,15.0336 L12.986055,15.0322286 C14.0056213,14.3428835 14.7045996,13.2589057 14.9209786,12.0315429 L9.68807339,12.0315429 L9.68807339,8.22857143 L18.8244648,8.22857143 C18.9363105,8.89173428 18.9921319,9.56345413 18.991315,10.2363429 C18.991315,13.2411429 17.937737,15.7824 16.1091131,17.5008 L16.1073781,17.5008 L16.1091131,17.5021714 C14.5038532,19.0107429 12.3025076,19.8857143 9.68807339,19.8857143 C6.02574225,19.8855442 2.67653734,17.7805125 1.03204893,14.4452571 C-0.343427592,11.655596 -0.343427592,8.36726112 1.03204893,5.5776 Z" id="Combined-Shape"></path>
                </g>
            </g>
        </g>
    </g>
</svg>