<?xml version="1.0" encoding="UTF-8"?>
<svg width="106px" height="14px" viewBox="0 0 106 14" version="1.1" xmlns="http://www.w3.org/2000/svg" xmlns:xlink="http://www.w3.org/1999/xlink">
    <!-- Generator: Sketch 49.3 (51167) - http://www.bohemiancoding.com/sketch -->
    <title>ic_cobranding</title>
    <desc>Created with Sketch.</desc>
    <defs></defs>
    <g id="Redlines" stroke="none" stroke-width="1" fill="none" fill-rule="evenodd">
        <g id="04" transform="translate(-40.000000, -370.000000)">
            <g id="ic_cobranding" transform="translate(40.000000, 370.000000)">
                <g id="GooglePlay-Copy-3" transform="translate(0.000000, 0.933333)" fill="#5F6368">
                    <path d="M0,4.93851772 C0,2.21632003 2.31772539,0 5.07467598,0 C6.59952792,0 7.68524994,0.590190601 8.5025195,1.36105179 L7.53877801,2.31267768 C6.95327146,1.7705718 6.16039801,1.34900709 5.07467598,1.34900709 C3.06190192,1.34900709 1.48825778,2.95104711 1.48825778,4.93851772 C1.48825778,6.92598833 3.06190192,8.52802835 5.07467598,8.52802835 C6.37986766,8.52802835 7.1240442,8.01010599 7.59976827,7.54026835 C7.99020127,7.15483775 8.24626509,6.60078127 8.34394481,5.84196478 L5.07467598,5.84196478 L5.07467598,4.49286359 L9.6735326,4.49286359 C9.72232481,4.73375771 9.74672091,5.02283066 9.74672091,5.33608712 C9.74672091,6.34784244 9.46616569,7.60058598 8.56341447,8.49189423 C7.68524994,9.39524719 6.56283846,9.87703544 5.07467598,9.87703544 C2.31772539,9.87703544 0,7.66080951 0,4.93851772 Z M13.4633915,8.624386 C12.4874519,8.624386 11.6457862,7.82943539 11.6457862,6.69713892 C11.6457862,5.55279773 12.4874519,4.76989183 13.4633915,4.76989183 C14.4392357,4.76989183 15.2809014,5.55279773 15.2809014,6.69713892 C15.2809014,7.82943539 14.4392357,8.624386 13.4633915,8.624386 Z M13.4633915,3.51724239 C15.2443072,3.51724239 16.6959708,4.85420478 16.6959708,6.69713892 C16.6959708,8.52802835 15.2443072,9.87712954 13.4633915,9.87712954 C11.6823804,9.87712954 10.2307168,8.52802835 10.2307168,6.69713892 C10.2307168,4.85420478 11.6823804,3.51724239 13.4633915,3.51724239 Z M20.5153433,8.624386 C19.539499,8.624386 18.697738,7.82943539 18.697738,6.69713892 C18.697738,5.55279773 19.539499,4.76989183 20.5153433,4.76989183 C21.4911875,4.76989183 22.3328532,5.55279773 22.3328532,6.69713892 C22.3328532,7.82943539 21.4911875,8.624386 20.5153433,8.624386 Z M20.5153433,3.51724239 C22.296259,3.51724239 23.7480179,4.85420478 23.7480179,6.69713892 C23.7480179,8.52802835 22.296259,9.87712954 20.5153433,9.87712954 C18.7343322,9.87712954 17.2826686,8.52802835 17.2826686,6.69713892 C17.2826686,4.85420478 18.7343322,3.51724239 20.5153433,3.51724239 Z M27.5488264,8.624386 C26.5729822,8.624386 25.7556173,7.81739069 25.7556173,6.70918362 C25.7556173,5.58902595 26.5729822,4.76989183 27.5488264,4.76989183 C28.5124726,4.76989183 29.2688472,5.58902595 29.2688472,6.70918362 C29.2688472,7.81739069 28.5124726,8.624386 27.5488264,8.624386 Z M29.1711675,3.70986359 L30.5130486,3.70986359 L30.5130486,9.4194307 C30.5130486,11.7682425 29.1102725,12.731819 27.451242,12.731819 C25.8897959,12.731819 24.9504505,11.6959743 24.596707,10.8527507 L25.8288057,10.3468731 C26.0483706,10.8647954 26.5851802,11.4790755 27.451242,11.4790755 C28.5124726,11.4790755 29.1711675,10.8286613 29.1711675,9.612146 L29.1711675,9.15435307 L29.1224706,9.15435307 C28.8053212,9.53987777 28.1953233,9.87712954 27.4268459,9.87712954 C25.8166076,9.87712954 24.3405479,8.49189423 24.3405479,6.70918362 C24.3405479,4.91442831 25.8166076,3.51724239 27.4268459,3.51724239 C28.1953233,3.51724239 28.8053212,3.85449417 29.1224706,4.22788006 L29.1711675,4.22788006 L29.1711675,3.70986359 Z M32.9039909,9.6843766 L31.4889215,9.6843766 L31.4889215,0.337214132 L32.9039909,0.337214132 L32.9039909,9.6843766 Z M36.6733514,4.74582124 C37.2345571,4.74582124 37.7102812,5.02284948 37.8688559,5.42032478 L34.99002,6.60080009 C34.9533306,5.37214596 35.9536662,4.74582124 36.6733514,4.74582124 Z M36.7831338,8.62440482 C37.5029143,8.62440482 38.0030344,8.27510834 38.368976,7.74514127 L39.4668008,8.46782364 C39.1131526,8.985746 38.2591936,9.87705426 36.7831338,9.87705426 C34.9533306,9.87705426 33.5871486,8.47986834 33.5871486,6.69715774 C33.5871486,4.80604477 34.9655286,3.51716711 36.6245591,3.51716711 C38.2957877,3.51716711 39.1131526,4.83013418 39.3815097,5.54077185 L39.5278864,5.90220713 L35.221783,7.66082833 C35.5511305,8.29919775 36.0634487,8.62440482 36.7831338,8.62440482 Z M46.1135772,4.84206597 L44.1042339,4.84206597 L44.1042339,1.63808004 L46.1135772,1.63808004 C47.1698524,1.63808004 47.7697488,2.50181721 47.7697488,3.24012005 C47.7697488,3.96449621 47.1698524,4.84206597 46.1135772,4.84206597 Z M46.0770784,0.337251772 C47.643194,0.337251772 49.1824359,1.45675075 49.1824359,3.24012005 C49.1824359,5.02339526 47.643194,6.14289423 46.0770784,6.14289423 L44.1042339,6.14289423 L44.1042339,9.68413194 L42.6915469,9.68413194 L42.6915469,0.337251772 L46.0770784,0.337251772 Z M51.275037,0.337214132 L51.275037,9.6840943 L49.86235,9.6840943 L49.86235,0.337214132 L51.275037,0.337214132 Z M54.6857002,8.6224005 C54.2229365,8.6224005 53.577488,8.39392748 53.577488,7.82876729 C53.577488,7.10730821 54.3812253,6.83065637 55.0753708,6.83065637 C55.6965185,6.83065637 55.9887,6.96295993 56.3662679,7.14334823 C56.256676,8.00915558 55.5016356,8.6224005 54.6857002,8.6224005 Z M57.7301627,9.66859615 L56.3662679,9.66859615 L56.3662679,8.94704297 L56.317571,8.94704297 C55.9887,9.44012313 55.4651367,9.86093505 54.5152133,9.86093505 C53.2730131,9.86093505 52.1648963,9.05525713 52.1648963,7.80467788 C52.1648963,6.43383976 53.5409891,5.70033597 54.8926859,5.70033597 C55.5625305,5.70033597 56.1104899,5.91676429 56.3662679,6.06111256 L56.3662679,5.96494311 C56.3540698,5.19530521 55.6112274,4.76244858 54.8805831,4.76244858 C54.3569245,4.76244858 53.8575667,4.93079217 53.589686,5.44786764 L52.3353831,4.93079217 C52.7737506,3.94472595 53.8332659,3.49982462 54.856187,3.49982462 C56.4758598,3.49982462 57.7301627,4.42566731 57.7301627,6.08510787 L57.7301627,9.66859615 Z M62.6937816,3.70422705 L64.2647575,3.70422705 L60.3799634,12.5185054 L58.9064768,12.5185054 L60.3434646,9.36796781 L57.8225654,3.70422705 L59.3448443,3.70422705 L61.025412,7.75661197 L61.0741089,7.75661197 L62.6937816,3.70422705 Z" id="Fill-1-Copy-4"></path>
                </g>
                <g id="ic_GPay_18dp" transform="translate(72.500000, 0.466667)" fill-rule="nonzero">
                    <path d="M15.5182053,6.41195719 L15.5182053,10.2143272 L14.306551,10.2143272 L14.306551,0.824159021 L17.5200688,0.824159021 C18.2948302,0.80804708 19.0439592,1.10070258 19.6009533,1.63707951 C20.1645031,2.14173328 20.4814252,2.86427317 20.4701835,3.61880734 C20.4863245,4.37755588 20.1688376,5.10548803 19.6009533,5.6117737 C19.0390267,6.14522936 18.3453985,6.41170744 17.5200688,6.41120795 L15.5182053,6.41120795 L15.5182053,6.41195719 Z M15.5182053,1.98022936 L15.5182053,5.25813456 L17.550172,5.25813456 C18.0006056,5.27142677 18.4358212,5.09517677 18.7490324,4.77262997 C19.0603433,4.47131131 19.2359815,4.05743485 19.2359815,3.62517584 C19.2359815,3.19291683 19.0603433,2.77904037 18.7490324,2.47772171 C18.4396199,2.14824284 18.0030537,1.96680768 17.550172,1.97948012 L15.5182053,1.97948012 L15.5182053,1.98022936 Z" id="Shape" fill="#5F6368"></path>
                    <path d="M23.2622563,3.57984709 C24.1578268,3.57984709 24.8647506,3.81810398 25.3830275,4.29461774 C25.9013045,4.7711315 26.1601921,5.42446483 26.1596904,6.25461774 L26.1596904,10.2143272 L25.0007167,10.2143272 L25.0007167,9.322737 L24.9480361,9.322737 C24.4463159,10.0569878 23.7790281,10.4241131 22.9461726,10.4241131 C22.2352351,10.4241131 21.6404458,10.2143272 21.1618048,9.79475535 C20.6966091,9.40475682 20.4328456,8.82672574 20.4438432,8.22136086 C20.4438432,7.55653925 20.6962084,7.02782875 21.2009389,6.63522936 C21.7056694,6.24262997 22.3794796,6.04583078 23.2223696,6.0448318 C23.9418363,6.0448318 24.5343678,6.17594801 24.9999642,6.43818043 L24.9999642,6.16246177 C25.0027425,5.74979216 24.8189745,5.35775373 24.4994983,5.09480122 C24.1790844,4.80700343 23.7615071,4.64997094 23.3299885,4.655 C22.653168,4.655 22.1175817,4.93920999 21.7232296,5.50762997 L20.6560708,4.83856269 C21.2430834,3.99941896 22.1118119,3.57984709 23.2622563,3.57984709 Z M21.6946316,8.2475841 C21.6929833,8.55907226 21.8426934,8.85213765 22.0965095,9.03428135 C22.3644867,9.24413843 22.6970985,9.35531036 23.0379874,9.34896024 C23.5492869,9.34810959 24.0393956,9.14550123 24.4009103,8.78553517 C24.8022864,8.40941896 25.0029745,7.96811927 25.0029745,7.46163609 C24.6251792,7.1619419 24.098373,7.0120948 23.4225559,7.0120948 C22.9303684,7.0120948 22.5199613,7.13022426 22.1913346,7.36648318 C21.8594467,7.60623853 21.6946316,7.89769113 21.6946316,8.2475841 Z" id="Shape" fill="#5F6368"></path>
                    <polygon id="Shape" fill="#5F6368" points="32.8125 3.78963303 28.7666284 13.0464373 27.51584 13.0464373 29.0172377 9.80749235 26.3568664 3.78963303 27.6738819 3.78963303 29.5967245 8.40492355 29.6230648 8.40492355 31.4932268 3.78963303"></polygon>
                    <g id="Group-2">
                        <path d="M10.621918,5.59229358 C10.6223749,5.22468267 10.5911538,4.85771034 10.5285981,4.49541284 L5.41857798,4.49541284 L5.41857798,6.57304281 L8.34536267,6.57304281 C8.22434105,7.24357266 7.83339971,7.83576876 7.26315224,8.21237003 L7.26315224,9.56099388 L9.00989106,9.56099388 C10.0326476,8.62220183 10.621918,7.2338685 10.621918,5.59229358 Z" id="Shape" fill="#4285F4"></path>
                        <path d="M5.41857798,10.8639144 C6.88084146,10.8639144 8.11206279,10.3859021 9.00989106,9.56174312 L7.26315224,8.21311927 C6.77698538,8.5412844 6.15083859,8.72859327 5.41857798,8.72859327 C4.00523222,8.72859327 2.80561927,7.78006116 2.37664851,6.50186544 L0.577229071,6.50186544 L0.577229071,7.89169725 C1.49699798,9.71380572 3.37022161,10.8638214 5.41857798,10.8639144 Z" id="Shape" fill="#34A853"></path>
                        <path d="M2.37664851,6.50186544 C2.14986706,5.83208219 2.14986706,5.10675573 2.37664851,4.43697248 L2.37664851,3.04714067 L0.577229071,3.04714067 C-0.192080418,4.57118146 -0.192080418,6.36765646 0.577229071,7.89169725 L2.37664851,6.50186544 Z" id="Shape" fill="#FABB05"></path>
                        <path d="M5.41857798,2.21024465 C6.19131801,2.19767623 6.93799002,2.48834304 7.4972047,3.01941896 L9.04375717,1.47974006 C8.06308188,0.562732643 6.76390491,0.0592802146 5.41857798,0.0749235474 C3.37022161,0.0750164883 1.49699798,1.22503221 0.577229071,3.04714067 L2.37664851,4.43697248 C2.80561927,3.15877676 4.00523222,2.21024465 5.41857798,2.21024465 Z" id="Shape" fill="#E94235"></path>
                    </g>
                </g>
                <path d="M68.4375,1.4 L68.4375,13.0666667" id="Line" stroke-opacity="0.12" stroke="#000000" stroke-width="0.933333333" stroke-linecap="square"></path>
            </g>
        </g>
    </g>
</svg>