<?xml version="1.0" encoding="UTF-8" standalone="no"?>
<svg width="128px" height="80px" viewBox="0 0 128 80" version="1.1" xmlns="http://www.w3.org/2000/svg" xmlns:xlink="http://www.w3.org/1999/xlink" style="background: #FFFFFF;">
  <!-- Generator: Sketch 41 (35326) - http://www.bohemiancoding.com/sketch -->
  <title>mir_xxxhdpi_128x80</title>
  <desc>Created with Sketch.</desc>
  <defs>
    <polygon id="path-1" points="37.3883438 0 0 0 0 27.9998627 37.3883438 27.9998627 37.3883438 7.80203788e-15"></polygon>
    <polygon id="path-3" points="29.3361653 0 0.173476584 0 0.173476584 27.9999725 29.3361653 27.9999725 29.3361653 0"></polygon>
    <polygon id="path-5" points="30.4519449 11.5293843 30.4519449 0 0.0766391185 0 0.0766391185 11.5293843"></polygon>
    <linearGradient x1="0%" y1="11.5874511%" x2="100%" y2="11.5874514%" id="linearGradient-7">
      <stop stop-color="#00A5D8" offset="0%"></stop>
      <stop stop-color="#007DC0" offset="100%"></stop>
    </linearGradient>
  </defs>
  <g id="Page-13" stroke="none" stroke-width="1" fill="none" fill-rule="evenodd">
    <g id="mir_xxxhdpi_128x80">
      <g id="container">
        <path d="M0,8.00005106 C0,3.58174486 3.59075293,0 8.00697327,0 L119.993027,0 C124.415156,0 128,3.5797863 128,8.00005106 L128,71.9999489 C128,76.4182551 124.409247,80 119.993027,80 L8.00697327,80 C3.58484404,80 0,76.4202137 0,71.9999489 L0,8.00005106 Z" id="Path" fill="#E0E0E0"></path>
        <path d="M4,8.00005106 L4,71.9999489 C4,74.2094718 5.79238055,76 8.00697327,76 L119.993027,76 C122.203379,76 124,74.2058465 124,71.9999489 L124,8.00005106 C124,5.79052815 122.207619,4 119.993027,4 L8.00697327,4 C5.79662132,4 4,5.79415354 4,8.00005106 Z" fill="#FFFFFF"></path>
      </g>
      <g id="Page-1" transform="translate(12.000000, 26.000000)">
        <g id="Group-3">
          <mask id="mask-2" fill="white">
            <use xlink:href="#path-1"></use>
          </mask>
          <g id="Clip-2"></g>
          <path d="M22.8555614,3.77217647 L19.0485311,16.5195882 C18.9465366,16.8608039 18.4417212,16.8608039 18.3400132,16.5195882 L14.5329829,3.77217647 C13.8660077,1.53931373 11.735297,-0.000137254902 9.31120882,-0.000137254902 L9.31120882,-0.000137254902 L-8.59504132e-05,-0.000137254902 L-8.59504132e-05,27.9998627 L9.31120882,27.9998627 L9.31120882,11.6215098 C9.31120882,11.2177059 9.90426667,11.1301373 10.0311868,11.515 L15.4709884,27.9998627 L21.9172694,27.9998627 L27.3573576,11.515 C27.4842777,11.1301373 28.077049,11.2177059 28.077049,11.6215098 L28.077049,27.9998627 L37.3883438,27.9998627 L37.3883438,-0.000137254902 L28.077049,-0.000137254902 L28.077049,-0.000137254902 C25.6529609,-0.000137254902 23.5225366,1.53931373 22.8555614,3.77217647" id="Fill-1" fill="#3BA536" mask="url(#mask-2)"></path>
        </g>
        <g id="Group-6" transform="translate(41.256198, 0.000000)">
          <mask id="mask-4" fill="white">
            <use xlink:href="#path-3"></use>
          </mask>
          <g id="Clip-5"></g>
          <path d="M21.4573774,-2.74509804e-05 C19.3644848,-2.74509804e-05 17.4621157,1.16554118 16.5842755,2.98581569 L10.1878457,16.2482078 C10.0222479,16.5916196 9.48477135,16.4785216 9.48477135,16.0999725 L9.48477135,-2.74509804e-05 L0.173476584,-2.74509804e-05 L0.173476584,27.9999725 L8.05226446,27.9999725 L8.05226446,27.9999725 C10.1230964,27.9999725 11.9982479,26.8272667 12.8313939,25.0108353 L19.3189311,10.8719333 C19.4793719,10.5219333 20.0248705,10.6317373 20.0248705,11.0138549 L20.0248705,27.9999725 L20.0248705,27.9999725 L20.0248705,27.9999725 L29.3361653,27.9999725 L29.3361653,-2.74509804e-05 L21.4573774,-2.74509804e-05 Z" id="Fill-4" fill="#3BA536" mask="url(#mask-4)"></path>
        </g>
        <path d="M74.6336088,12.9019333 L74.6336088,27.9999725 L83.9449036,27.9999725 L83.9449036,19.0556196 L93.8524077,19.0556196 C98.1038017,19.0556196 101.730623,16.4982863 103.152529,12.9019333 L74.6336088,12.9019333 Z" id="Fill-7" fill="#3BA536"></path>
        <g id="Group-11" transform="translate(73.344353, 0.000000)">
          <mask id="mask-6" fill="white">
            <use xlink:href="#path-5"></use>
          </mask>
          <g id="Clip-10"></g>
          <path d="M20.5079118,-2.74509804e-05 L0.0766391185,-2.74509804e-05 C0.792033058,6.48005098 6.51260606,11.5293843 13.4654215,11.5293843 L30.2303361,11.5293843 C30.3744463,10.8837373 30.4520882,10.2144824 30.4520882,9.52793333 L30.4520882,9.52793333 C30.4520882,4.2658549 25.9998567,-2.74509804e-05 20.5079118,-2.74509804e-05" id="Fill-9" fill="url(#linearGradient-7)" mask="url(#mask-6)"></path>
        </g>
      </g>
    </g>
  </g>
</svg>