<?xml version="1.0" encoding="UTF-8"?>
<svg width="128px" height="80px" viewBox="0 0 128 80" version="1.1" xmlns="http://www.w3.org/2000/svg" xmlns:xlink="http://www.w3.org/1999/xlink" style="background: #FFFFFF;">
  <!-- Generator: Sketch 43.2 (39069) - http://www.bohemiancoding.com/sketch -->
  <title>maestro_xxxhdpi_128x80</title>
  <desc>Created with Sketch.</desc>
  <defs></defs>
  <g id="acceptance-marks" stroke="none" stroke-width="1" fill="none" fill-rule="evenodd">
    <g id="maestro_xxxhdpi_128x80">
      <g id="container">
        <path d="M0,8.00005106 C0,3.58174486 3.59075293,0 8.00697327,0 L119.993027,0 C124.415156,0 128,3.5797863 128,8.00005106 L128,71.9999489 C128,76.4182551 124.409247,80 119.993027,80 L8.00697327,80 C3.58484404,80 0,76.4202137 0,71.9999489 L0,8.00005106 Z" id="Path" fill="#E0E0E0"></path>
        <path d="M4,8.00005106 L4,71.9999489 C4,74.2094718 5.79238055,76 8.00697327,76 L119.993027,76 C122.203379,76 124,74.2058465 124,71.9999489 L124,8.00005106 C124,5.79052815 122.207619,4 119.993027,4 L8.00697327,4 C5.79662132,4 4,5.79415354 4,8.00005106 Z" fill="#FFFFFF" fill-rule="nonzero"></path>
      </g>
      <g id="icon" transform="translate(24.000000, 8.000000)">
        <path d="M22.2120001,60.4010183 L22.2120001,56.3646546 C22.2120001,54.8416 21.2405819,53.8163637 19.6771637,53.8029091 C18.7703227,53.7442787 17.9033441,54.1834379 17.4141092,54.9492364 C16.9682168,54.2060128 16.1515403,53.7661845 15.2856,53.8029091 C14.5324677,53.7665357 13.8161722,54.1308231 13.4019637,54.7608728 L13.4019637,53.9536 L12,53.9536 L12,60.3956365 L13.4154182,60.3956365 L13.4154182,56.8328728 C13.4154182,55.7134546 14.0343273,55.1214546 14.9922909,55.1214546 C15.9502546,55.1214546 16.3942546,55.7269091 16.3942546,56.8194182 L16.3942546,60.4037092 L17.8123637,60.4037092 L17.8123637,56.8328728 C17.8123637,55.7134546 18.4581819,55.1214546 19.3892365,55.1214546 C20.320291,55.1214546 20.8046547,55.7269091 20.8046547,56.8194182 L20.8046547,60.4037092 L22.2120001,60.4010183 Z M30.1098184,57.1719273 L30.1098184,53.9428364 L28.7078548,53.9428364 L28.7078548,54.7258909 C28.2228426,54.1000281 27.4646194,53.7479959 26.6735275,53.7813818 C24.8679274,53.7813818 23.4444365,55.1968 23.4444365,57.1638546 C23.4444365,59.1309092 24.8598547,60.5463274 26.6735275,60.5463274 C27.4646194,60.5797133 28.2228426,60.2276811 28.7078548,59.6018183 L28.7078548,60.3821819 L30.1098184,60.3821819 L30.1098184,57.1719273 Z M24.8948365,57.1719273 C24.8948365,56.0390546 25.6348365,55.1106909 26.8484366,55.1106909 C28.0082184,55.1106909 28.788582,56.0013819 28.788582,57.1719273 C28.788582,58.3424728 28.0082184,59.2331637 26.8484366,59.2331637 C25.6348365,59.2439274 24.8921456,58.3155637 24.8921456,57.182691 L24.8948365,57.1719273 Z M60.1026915,53.7813818 C60.5768843,53.7798782 61.0467776,53.8712971 61.4858188,54.0504728 C61.8958145,54.2138472 62.2697466,54.456126 62.5864007,54.7635637 C62.898231,55.0700672 63.1453019,55.4360981 63.3129461,55.8399273 C63.6629917,56.7027454 63.6629917,57.6680184 63.3129461,58.5308364 C63.1453667,58.9347005 62.8982876,59.3007436 62.5864007,59.6072001 C62.2697466,59.9146377 61.8958145,60.1569165 61.4858188,60.320291 C60.5961439,60.6660347 59.6092392,60.6660347 58.7195642,60.320291 C58.3100711,60.1574857 57.936915,59.9151172 57.6216733,59.6072001 C57.3114261,59.2999406 57.0653705,58.9340587 56.8978188,58.5308364 C56.5480569,57.667963 56.5480569,56.7028007 56.8978188,55.8399273 C57.0654339,55.4367391 57.3114815,55.070869 57.6216733,54.7635637 C57.936915,54.4556466 58.3100711,54.2132781 58.7195642,54.0504728 C59.159346,53.8749799 59.6292135,53.7872226 60.1026915,53.7921455 L60.1026915,53.7813818 Z M60.1026915,55.108 C59.8262911,55.1044428 59.5519225,55.1556582 59.2954188,55.258691 C59.0561778,55.3544114 58.8391205,55.4982004 58.6576733,55.6811637 C58.4738972,55.8687002 58.3293583,56.0909973 58.2325097,56.3350546 C58.025824,56.8747552 58.025824,57.4717904 58.2325097,58.011491 C58.3296731,58.2545896 58.4741954,58.4759465 58.6576733,58.662691 C58.8396567,58.8469291 59.0576748,58.9916638 59.2981097,59.0878546 C59.8127349,59.2896322 60.3845754,59.2896322 60.8992006,59.0878546 C61.1399622,58.9907783 61.3586919,58.8461788 61.5423279,58.662691 C61.7272261,58.4765561 61.8727381,58.2550852 61.9701825,58.011491 C62.1768681,57.4717904 62.1768681,56.8747552 61.9701825,56.3350546 C61.8729908,56.0905351 61.72747,55.8681354 61.5423279,55.6811637 C61.3584469,55.4986429 61.1397343,55.3549697 60.8992006,55.258691 C60.6453154,55.160724 60.3747655,55.113195 60.1026915,55.1187637 L60.1026915,55.108 Z M37.7250912,57.182691 C37.7250912,55.1752728 36.4711276,53.8002182 34.6655276,53.8002182 C32.7818912,53.8002182 31.4579639,55.1752728 31.4579639,57.182691 C31.4579639,59.2304728 32.8330185,60.5651637 34.7597094,60.5651637 C35.721731,60.5988696 36.6624544,60.2769928 37.4021821,59.6610183 L36.7160003,58.6223274 C36.180811,59.0505323 35.5177308,59.2873467 34.8323639,59.2950546 C33.9282185,59.2950546 33.1074912,58.8779637 32.905673,57.7181819 L37.6901094,57.7181819 C37.7250912,57.5459637 37.7250912,57.3710546 37.7250912,57.182691 Z M32.9272003,56.6176001 C33.0752003,55.6865455 33.6402912,55.0541819 34.6386185,55.0541819 C35.5427639,55.0541819 36.1213094,55.6192728 36.2693094,56.6176001 L32.9272003,56.6176001 Z M44.2290186,54.4648728 C43.4352645,53.9932998 42.5227027,53.7597886 41.6000004,53.7921455 C39.9693095,53.7921455 38.9090913,54.5725091 38.9090913,55.8533819 C38.9090913,56.9055273 39.6894549,57.5513455 41.1317822,57.7531637 L41.7910549,57.8473455 C42.557964,57.9549819 42.9239277,58.1568001 42.9239277,58.5200728 C42.9239277,59.017891 42.4126549,59.3004365 41.4546913,59.3004365 C40.681837,59.3249873 39.9233206,59.0879509 39.301964,58.6277092 L38.6426913,59.7202183 C39.4591091,60.2910525 40.4373516,60.5844309 41.433164,60.557091 C43.2925822,60.557091 44.3716368,59.6798546 44.3716368,58.455491 C44.3716368,57.3226183 43.5213095,56.7306182 42.1220368,56.5288001 L41.462764,56.4346182 C40.8573095,56.353891 40.3702549,56.2328001 40.3702549,55.8022546 C40.3702549,55.3313455 40.8277095,55.0461091 41.5973095,55.0461091 C42.316872,55.0520783 43.0225309,55.2449522 43.6450913,55.6058182 L44.2290186,54.4648728 Z M50.3589096,53.9536 L48.0689459,53.9536 L48.0689459,52 L46.6535277,52 L46.6535277,53.9536 L45.3457459,53.9536 L45.3457459,55.2344728 L46.6535277,55.2344728 L46.6535277,58.1729455 C46.6535277,59.669091 47.2320732,60.5597819 48.8896732,60.5597819 C49.5087826,60.561782 50.1159207,60.3892466 50.641455,60.0619637 L50.2378187,58.8618183 C49.8616873,59.0858602 49.4348787,59.2108476 48.9973096,59.225091 C48.2976732,59.225091 48.066255,58.7945455 48.066255,58.1487274 L48.066255,55.2425455 L50.3723641,55.2425455 L50.3589096,53.9536 Z M55.202546,53.7921455 C54.5061932,53.7718471 53.8545844,54.1343109 53.5045824,54.7366546 L53.5045824,53.9536 L52.1160732,53.9536 L52.1160732,60.3956365 L53.5180369,60.3956365 L53.5180369,56.7925092 C53.5180369,55.7161455 53.9754915,55.1349091 54.8930915,55.1349091 C55.1932774,55.1304962 55.4913837,55.1853624 55.7703278,55.2963637 L56.2008733,53.9751273 C55.880451,53.8605313 55.542842,53.8013815 55.202546,53.8002182 L55.202546,53.7921455 Z" id="maestro" fill="#000000" fill-rule="nonzero"></path>
        <g id="XMLID_328_" transform="translate(0.000000, 1.711934)">
          <rect id="Rectangle-path" fill="#7673C0" x="27.0368627" y="5.20164609" width="22.4983007" height="37.2674897"></rect>
          <path d="M29.3061438,23.8353909 C29.3061438,16.2633745 32.8073203,9.5473251 38.1887582,5.20164609 C34.2337255,2.04115226 29.2413072,0.131687243 23.7950327,0.131687243 C10.892549,0.131687243 0.453856209,10.7325103 0.453856209,23.8353909 C0.453856209,36.9382716 10.892549,47.5390947 23.7950327,47.5390947 C29.2413072,47.5390947 34.2337255,45.6296296 38.1887582,42.4691358 C32.8073203,38.1234568 29.3061438,31.4074074 29.3061438,23.8353909 Z" id="XMLID_330_" fill="#EB001B"></path>
          <path d="M75.9884967,23.8353909 C75.9884967,36.9382716 65.5498039,47.5390947 52.6473203,47.5390947 C47.2010458,47.5390947 42.2086275,45.6296296 38.2535948,42.4691358 C43.6998693,38.1234568 47.1362092,31.4074074 47.1362092,23.8353909 C47.1362092,16.2633745 43.6350327,9.5473251 38.2535948,5.20164609 C42.2086275,2.04115226 47.2010458,0.131687243 52.6473203,0.131687243 C65.5498039,0.131687243 75.9884967,10.7325103 75.9884967,23.8353909 Z" id="Shape" fill="#00A1DF"></path>
        </g>
      </g>
    </g>
  </g>
</svg>