<svg id="art" xmlns="http://www.w3.org/2000/svg" xmlns:xlink="http://www.w3.org/1999/xlink" viewBox="0 0 300 300"><defs><style>.cls-1,.cls-10,.cls-11{fill:none;}.cls-2{fill:#81d4fa;}.cls-3{fill:#03a9f4;}.cls-4{fill:#29b6f6;}.cls-5{fill:#ffeb3b;}.cls-6{fill:#ff5722;}.cls-7{fill:#ff8a65;}.cls-8{fill:#e64a19;}.cls-9{clip-path:url(#clip-path);}.cls-10{stroke:#03a9f4;stroke-width:4px;}.cls-10,.cls-11{stroke-miterlimit:10;}.cls-11{stroke:#81d4fa;stroke-linecap:round;stroke-width:5px;}</style><clipPath id="clip-path"><path class="cls-1" d="M150,213.24,32.37,142.31h0v127.8a14,14,0,0,0,14,14H253.58a14,14,0,0,0,14-14V142.31h0Z"/></clipPath></defs><title>permissions-enticement</title><rect class="cls-1" width="300" height="300"/><path class="cls-2" d="M46.41,142.31H253.59a14,14,0,0,1,14,14v127.8a0,0,0,0,1,0,0H32.37a0,0,0,0,1,0,0V156.36A14,14,0,0,1,46.41,142.31Z" transform="translate(300 426.48) rotate(-180)"/><polygon class="cls-3" points="150 213.24 267.63 142.31 32.37 142.31 150 213.24"/><path class="cls-4" d="M143.42,67.22,39.27,130.08a14.29,14.29,0,0,0-6.91,12.23H267.63a14.29,14.29,0,0,0-6.91-12.23L156.58,67.22A12.73,12.73,0,0,0,143.42,67.22Z"/><path class="cls-5" d="M90.09,94.57,106.46,113a3.25,3.25,0,0,0,2.3,1.09l24.66,1A3.25,3.25,0,0,1,136.1,120l-12.5,21.28a3.25,3.25,0,0,0-.33,2.53L130,167.53a3.25,3.25,0,0,1-3.82,4.05l-24.1-5.32a3.25,3.25,0,0,0-2.51.47L79,180.46a3.25,3.25,0,0,1-5-2.38l-2.39-24.56a3.25,3.25,0,0,0-1.22-2.24L51,136a3.25,3.25,0,0,1,.71-5.53l22.62-9.86a3.25,3.25,0,0,0,1.75-1.85L84.61,95.6A3.25,3.25,0,0,1,90.09,94.57Z"/><path class="cls-6" d="M233.49,23.22l25.07,43.45a9.4,9.4,0,0,1,.94,7.14L228.06,191a9.4,9.4,0,0,1-11.52,6.65L148,179.26a9.4,9.4,0,0,1-6.65-11.52L172.81,50.55a9.4,9.4,0,0,1,4.38-5.71l43.45-25.07A9.4,9.4,0,0,1,233.49,23.22ZM223.18,36a9.25,9.25,0,1,0,6.54,11.34A9.25,9.25,0,0,0,223.18,36Z"/><path class="cls-7" d="M209.85,89.92l.36,14.42,13.32-5.54a1.15,1.15,0,0,1,1.39,1.72l-8.19,11.88,14,3.35a1.15,1.15,0,0,1,.12,2.21l-13.61,4.8,9.39,11a1.15,1.15,0,0,1-1.21,1.86l-13.83-4.12,1.15,14.38a1.15,1.15,0,0,1-2.07.79l-8.77-11.46-7.52,12.31a1.15,1.15,0,0,1-2.14-.57l-.36-14.42L178.61,138a1.15,1.15,0,0,1-1.39-1.72l8.19-11.88-14-3.35a1.15,1.15,0,0,1-.12-2.21l13.61-4.8-9.39-11a1.15,1.15,0,0,1,1.21-1.86l13.83,4.12L189.36,91a1.15,1.15,0,0,1,2.07-.79l8.77,11.46,7.52-12.31A1.15,1.15,0,0,1,209.85,89.92Z"/><path class="cls-8" d="M169.63,185.06l46.91,12.58A9.4,9.4,0,0,0,228.06,191l13.17-49.11Z"/><path class="cls-2" d="M150,213.24,32.37,142.31h0v127.8a14,14,0,0,0,14,14H253.58a14,14,0,0,0,14-14V142.31h0Z"/><g class="cls-9"><polyline class="cls-10" points="32.37 286.5 150 215.57 267.63 286.5"/></g><line class="cls-11" x1="113.53" y1="60.54" x2="113.53" y2="55"/><line class="cls-11" x1="113.53" y1="60.54" x2="113.53" y2="53.18"/><line class="cls-11" x1="113.53" y1="30.66" x2="113.53" y2="23.29"/><line class="cls-11" x1="129.66" y1="51.23" x2="124.86" y2="48.46"/><line class="cls-11" x1="129.66" y1="51.23" x2="123.28" y2="47.55"/><line class="cls-11" x1="103.78" y1="36.29" x2="97.4" y2="32.6"/><line class="cls-11" x1="129.66" y1="32.6" x2="124.86" y2="35.38"/><line class="cls-11" x1="129.66" y1="32.6" x2="123.28" y2="36.29"/><line class="cls-11" x1="103.78" y1="47.55" x2="97.4" y2="51.23"/></svg>