<?xml version="1.0" encoding="UTF-8" standalone="no"?>
<svg width="24px" height="24px" viewBox="0 0 24 24" version="1.1" xmlns="http://www.w3.org/2000/svg" xmlns:xlink="http://www.w3.org/1999/xlink" xmlns:sketch="http://www.bohemiancoding.com/sketch/ns">
    <!-- Generator: Sketch 3.5.2 (25235) - http://www.bohemiancoding.com/sketch -->
    <title>ic_play_movies_24px</title>
    <desc>Created with Sketch.</desc>
    <defs></defs>
    <g id="Page-1" stroke="none" stroke-width="1" fill="none" fill-rule="evenodd" sketch:type="MSPage">
        <g id="ic_movies_24px" sketch:type="MSLayerGroup" fill="#000000">
            <path d="M2,4 L2,20 L22,20 L22,4 L2,4 L2,4 Z M6,17 L4,17 L4,15 L6,15 L6,17 L6,17 Z M6,13 L4,13 L4,11 L6,11 L6,13 L6,13 Z M6,9 L4,9 L4,7 L6,7 L6,9 L6,9 Z M20,17 L18,17 L18,15 L20,15 L20,17 L20,17 Z M20,13 L18,13 L18,11 L20,11 L20,13 L20,13 Z M20,9 L18,9 L18,7 L20,7 L20,9 L20,9 Z" id="Shape" sketch:type="MSShapeGroup"></path>
        </g>
    </g>
</svg>