<?xml version="1.0" encoding="utf-8"?>
<!-- Generator: Adobe Illustrator 21.0.2, SVG Export Plug-In . SVG Version: 6.00 Build 0)  -->
<svg version="1.1" id="Layer_1" xmlns="http://www.w3.org/2000/svg" xmlns:xlink="http://www.w3.org/1999/xlink" x="0px" y="0px"
 viewBox="0 0 44 44" style="enable-background:new 0 0 44 44;" xml:space="preserve">
<style type="text/css">
.st0{fill-opacity:0.18;}
.st1{opacity:0.9;fill:#FFFFFF;}
.st2{fill-rule:evenodd;clip-rule:evenodd;fill:#616161;}
</style>
<g id="ic_play_48dp_1_">
<path class="st0" d="M22,1C10.4,1,1,10.4,1,22s9.4,21,21,21s21-9.4,21-21S33.6,1,22,1z M22,41.2c-11,0-20-9-20-20c0-11,9-20,20-20
s20,9,20,20C42,32.2,33,41.2,22,41.2z"/>
<path id="Shape-Copy_1_" class="st1" d="M22,1.2c-11,0-20,9-20,20s9,20,20,20s20-9,20-20S33,1.2,22,1.2L22,1.2z"/>
<polygon class="st2" points="18,30.2 18,12.2 30,21.2 "/>
</g>
</svg>
