<svg id="Layer_1" xmlns="http://www.w3.org/2000/svg" viewBox="0 0 24 24"><style>.st0{fill-rule:evenodd;clip-rule:evenodd;}</style><path class="st0" d="M13.8 5H2.9c-1.05 0-1.89.83-1.89 1.88L1 18.12C1 19.17 1.85 20 2.9 20h15.2c1.05 0 1.9-.83 1.9-1.88v-4.21c-.33.06-.66.09-1 .09s-.67-.03-1-.08V18H3v-6h11.53c-.74-.83-1.25-1.86-1.44-3H3V7h10.08c.12-.72.37-1.39.72-2z"/><path class="st0" d="M19 9.4c-.79 0-1.44-.63-1.44-1.4s.65-1.4 1.44-1.4c.79 0 1.44.63 1.44 1.4S19.79 9.4 19 9.4zm3.06-1.01c.02-.13.03-.26.03-.39s-.01-.26-.03-.39l.87-.66c.08-.06.1-.17.05-.26l-.82-1.38c-.05-.09-.16-.12-.25-.09l-1.02.4c-.21-.16-.44-.29-.69-.39l-.16-1.06c-.03-.1-.11-.17-.22-.17h-1.64c-.1 0-.19.07-.2.17l-.16 1.06c-.25.1-.48.24-.69.39l-1.02-.4c-.09-.04-.2 0-.25.09l-.82 1.38c-.05.09-.03.2.05.26l.87.66c-.03.13-.04.26-.04.39s.01.26.03.39l-.87.66c-.08.06-.1.17-.05.26l.82 1.38c.05.09.16.12.25.09l1.02-.4c.21.16.44.29.69.39l.16 1.06c.01.1.1.17.2.17h1.64c.1 0 .19-.07.2-.17l.16-1.06c.25-.1.48-.24.69-.39l1.02.4c.09.04.2 0 .25-.09l.82-1.38c.05-.09.03-.2-.05-.26l-.84-.66z"/></svg>
