<?xml version="1.0" encoding="UTF-8"?>
<svg width="32px" height="20px" viewBox="0 0 32 20" version="1.1" xmlns="http://www.w3.org/2000/svg" xmlns:xlink="http://www.w3.org/1999/xlink">
  <!-- Generator: Sketch 48.2 (47327) - http://www.bohemiancoding.com/sketch -->
  <title>ic_Play_balance</title>
  <desc>Created with Sketch.</desc>
  <defs></defs>
  <g id="Icons" stroke="none" stroke-width="1" fill="none" fill-rule="evenodd">
    <g id="ic_Play_balance">
      <g id="container">
        <path d="M0,2.00001277 C0,0.895436216 0.897688232,0 2.00174332,0 L29.9982567,0 C31.103789,0 32,0.894946575 32,2.00001277 L32,17.9999872 C32,19.1045638 31.1023118,20 29.9982567,20 L2.00174332,20 C0.89621101,20 0,19.1050534 0,17.9999872 L0,2.00001277 Z" id="Path" fill="#E0E0E0"></path>
        <path d="M1,2.00001277 L1,17.9999872 C1,18.552368 1.44809514,19 2.00174332,19 L29.9982567,19 C30.5508447,19 31,18.5514616 31,17.9999872 L31,2.00001277 C31,1.44763204 30.5519049,1 29.9982567,1 L2.00174332,1 C1.44915533,1 1,1.44853838 1,2.00001277 Z" fill="#FFFFFF" fill-rule="nonzero"></path>
      </g>
      <g id="ic_play_prism_clr_24dp" transform="translate(9.000000, 2.000000)">
        <polygon id="bounding" fill="#FFFFFF" opacity="0" points="0 16 16 16 16 0 0 0"></polygon>
        <path d="M2.24053333,1.53933333 C2.0892,1.69866667 1.99986667,1.94666667 1.99986667,2.268 L1.99986667,13.732 C1.99986667,14.0533333 2.0892,14.3013333 2.24053333,14.4606667 L2.2792,14.498 L8.7172,8.076 L8.7172,8 L8.7172,7.924 L2.2792,1.502 L2.24053333,1.53933333 Z" id="Fill-3" fill="#40C4FF"></path>
        <path d="M10.8634,10.2174 L8.7174,8.07606667 L8.7174,8.00006667 L8.7174,7.92406667 L10.8640667,5.78273333 L10.9127333,5.81073333 L13.4554,7.2514 C14.1814,7.6634 14.1814,8.33673333 13.4554,8.74873333 L10.9127333,10.1894 L10.8634,10.2174 Z" id="Fill-5" fill="#FFCA28"></path>
        <path d="M10.9124667,10.1896 L8.71713333,8.00026667 L2.24046667,14.4609333 C2.4798,14.7136 2.87513333,14.7449333 3.32046667,14.4922667 L10.9124667,10.1896" id="Fill-7" fill="#FF3A44"></path>
        <path d="M10.9124667,5.8104 L3.32046667,1.50773333 C2.87513333,1.25506667 2.4798,1.2864 2.24046667,1.53906667 L8.71713333,7.99973333 L10.9124667,5.8104 Z" id="Fill-9" fill="#00E676"></path>
      </g>
    </g>
  </g>
</svg>