<svg id="Layer_1" xmlns="http://www.w3.org/2000/svg" viewBox="0 0 24 24"><style>.st0{fill-rule:evenodd;clip-rule:evenodd;fill:#010101;}</style><path class="st0" d="M5 18H0v-2c0-2 4-3 6-3 .21 0 .44.01.68.03-1.01.7-1.68 1.68-1.68 2.95V18zm.5-7C6.89 11 8 9.88 8 8.5S6.89 6 5.5 6C4.12 6 3 7.12 3 8.5S4.12 11 5.5 11zM20 11.4c-.79 0-1.44-.63-1.44-1.4 0-.77.65-1.4 1.44-1.4.79 0 1.44.63 1.44 1.4 0 .77-.65 1.4-1.44 1.4zm3.06-1.01c.02-.13.03-.26.03-.39s-.01-.26-.03-.39l.87-.66c.08-.06.1-.17.05-.26l-.82-1.38c-.05-.09-.16-.12-.25-.09l-1.02.4c-.21-.16-.44-.29-.69-.39l-.16-1.06c-.03-.1-.11-.17-.22-.17h-1.64c-.1 0-.19.07-.2.17l-.16 1.06c-.25.1-.48.24-.69.39l-1.02-.4c-.09-.04-.2 0-.25.09l-.82 1.38c-.05.09-.03.2.05.26l.87.66c-.02.13-.03.26-.03.39s.01.26.03.39l-.87.66c-.08.06-.1.17-.05.26l.82 1.38c.05.09.16.12.25.09l1.02-.4c.21.16.44.29.69.39l.16 1.06c.01.1.1.17.2.17h1.64c.1 0 .19-.07.2-.17l.16-1.06c.25-.1.48-.24.69-.39l1.02.4c.09.04.2 0 .25-.09l.82-1.38c.05-.09.03-.2-.05-.26l-.85-.66zM7.1 16.2V18h8.8v-1.8c0-1.46-2.94-2.2-4.4-2.2s-4.4.74-4.4 2.2zM11.5 11.51c1.11 0 2-.9 2-2s-.89-2-2-2-2 .9-2 2 .9 2 2 2z"/></svg>