<?xml version="1.0" encoding="utf-8"?>
<!DOCTYPE svg PUBLIC "-//W3C//DTD SVG 1.1//EN" "http://www.w3.org/Graphics/SVG/1.1/DTD/svg11.dtd">
<svg version="1.1" id="Layer_1" xmlns="http://www.w3.org/2000/svg" xmlns:xlink="http://www.w3.org/1999/xlink" width="24px" height="24px"
	 viewBox="-2 -1 24 24" enable-background="new -2 -1 24 24" xml:space="preserve">
<g id="Page-1">
	<g id="ic_protect_black_24dp-copy-23" transform="translate(-2.000000, -1.000000)">
		<rect id="Rectangle-9" fill="none" width="24" height="24"/>
		<path d="M21.6,3.9C16.9,1.6,12,1,12,1S7.1,1.6,2.4,3.9C2.2,5.1,2,6.4,2,7.8c0,1.4,0.2,2.7,0.5,3.9c0.7,2.7,2,5.1,3.8,7.1
			c1.6,1.8,3.5,3.2,5.7,4.1c2.2-1,4.2-2.4,5.7-4.1c1.8-2,3.1-4.4,3.8-7.1c0.3-1.3,0.5-2.6,0.5-3.9C22,6.4,21.8,5.1,21.6,3.9z
			 M15.7,11.4l-5.9,3.4c-0.3,0.1-0.5,0.1-0.6,0l0,0C9.1,14.8,9,14.6,9,14.4V7.6c0-0.2,0.1-0.4,0.2-0.4l0,0C9.3,7,9.5,7,9.8,7.1
			l5.9,3.4C16.1,10.8,16.1,11.2,15.7,11.4z"/>
	</g>
</g>
</svg>
