<?xml version="1.0" encoding="UTF-8" standalone="no"?>
<svg width="24px" height="24px" viewBox="0 0 24 24" version="1.1" xmlns="http://www.w3.org/2000/svg" xmlns:xlink="http://www.w3.org/1999/xlink" xmlns:sketch="http://www.bohemiancoding.com/sketch/ns">
    <!-- Generator: Sketch 3.5.2 (25235) - http://www.bohemiancoding.com/sketch -->
    <title>ic_play_newsstand_24px</title>
    <desc>Created with Sketch.</desc>
    <defs></defs>
    <g id="Page-1" stroke="none" stroke-width="1" fill="none" fill-rule="evenodd" sketch:type="MSPage">
        <g id="ic_play_newsstand_24px" sketch:type="MSLayerGroup" fill="#000000">
            <path d="M2,4 L2,18 C2,19.1 2.9,20 4,20 L20,20 C21.1,20 22,19.1 22,18 L22,4 L2,4 L2,4 Z M9,13 L5,13 L5,7 L9,7 L9,13 L9,13 Z M19,13 L11,13 L11,11 L19,11 L19,13 L19,13 Z M19,9 L11,9 L11,7 L19,7 L19,9 L19,9 Z" id="Shape" sketch:type="MSShapeGroup"></path>
        </g>
    </g>
</svg>