<?xml version="1.0" encoding="UTF-8" standalone="no"?>
<svg width="128px" height="80px" viewBox="0 0 128 80" version="1.1" xmlns="http://www.w3.org/2000/svg" xmlns:xlink="http://www.w3.org/1999/xlink">
  <!-- Generator: Sketch 41 (35326) - http://www.bohemiancoding.com/sketch -->
  <title>paypal_xxxhdpi_128x80</title>
  <desc>Created with Sketch.</desc>
  <defs></defs>
  <g id="Page-13" stroke="none" stroke-width="1" fill="none" fill-rule="evenodd">
    <g id="paypal_xxxhdpi_128x80">
      <g id="container">
        <path d="M0,8.00005106 C0,3.58174486 3.59075293,0 8.00697327,0 L119.993027,0 C124.415156,0 128,3.5797863 128,8.00005106 L128,71.9999489 C128,76.4182551 124.409247,80 119.993027,80 L8.00697327,80 C3.58484404,80 0,76.4202137 0,71.9999489 L0,8.00005106 Z" id="Path" fill="#E0E0E0"></path>
        <path d="M4,8.00005106 L4,71.9999489 C4,74.2094718 5.79238055,76 8.00697327,76 L119.993027,76 C122.203379,76 124,74.2058465 124,71.9999489 L124,8.00005106 C124,5.79052815 122.207619,4 119.993027,4 L8.00697327,4 C5.79662132,4 4,5.79415354 4,8.00005106 Z" fill="#FFFFFF"></path>
      </g>
      <g id="Group-2" transform="translate(39.000000, 12.000000)">
        <path d="M44.7190217,14.2898519 C44.6652174,14.6211852 44.6027174,14.9597778 44.5331522,15.3077037 C42.1331522,27.0645926 33.9217391,31.1261481 23.4347826,31.1261481 L18.0951087,31.1261481 C16.8125,31.1261481 15.7315217,32.0143704 15.5320652,33.2214815 L12.023913,54.4522222 C11.8940217,55.245037 12.5342391,55.959037 13.3722826,55.959037 L22.8429348,55.959037 C23.9641304,55.959037 24.9168478,55.1817778 25.0934783,54.1265926 L25.186413,53.6677037 L26.9695652,42.8716296 L27.0842391,42.2794815 C27.2586957,41.2206667 28.213587,40.4428889 29.3347826,40.4428889 L30.751087,40.4428889 C39.9266304,40.4428889 47.1097826,36.888963 49.2092391,26.6036296 C50.0858696,22.3071852 49.6320652,18.7195556 47.311413,16.1964444 C46.6092391,15.4357778 45.7380435,14.8042222 44.7190217,14.2898519" id="Fill-8" fill="#009CDE"></path>
        <path d="M42.2086957,13.3347407 C41.8418478,13.2325926 41.463587,13.1402963 41.0755435,13.0568148 C40.6853261,12.9754074 40.2858696,12.9033333 39.8744565,12.8400741 C38.4347826,12.6181481 36.8570652,12.5128889 35.1673913,12.5128889 L20.9027174,12.5128889 C20.551087,12.5128889 20.2173913,12.5885926 19.9190217,12.7254815 C19.2608696,13.0272593 18.7722826,13.6214815 18.6538043,14.348963 L15.6190217,32.6868889 L15.5320652,33.2214815 C15.7315217,32.0143704 16.8125,31.1261481 18.0951087,31.1261481 L23.4347826,31.1261481 C33.9217391,31.1261481 42.1331522,27.0625185 44.5331522,15.3077037 C44.6048913,14.9597778 44.6652174,14.6211852 44.7190217,14.2898519 C44.1119565,13.9823704 43.4543478,13.7194815 42.7461957,13.4954815 C42.5711957,13.44 42.3907609,13.3865926 42.2086957,13.3347407" id="Fill-9" fill="#012069"></path>
        <path d="M18.6538043,14.348963 C18.7722826,13.6214815 19.2608696,13.0272593 19.9190217,12.7275556 C20.2195652,12.5901481 20.551087,12.5144444 20.9027174,12.5144444 L35.1673913,12.5144444 C36.8570652,12.5144444 38.4347826,12.6202222 39.8744565,12.8421481 C40.2858696,12.9048889 40.6853261,12.9774815 41.0755435,13.0588889 C41.463587,13.1418519 41.8418478,13.2346667 42.2086957,13.3362963 C42.3907609,13.3881481 42.5711957,13.4420741 42.7478261,13.4954815 C43.4559783,13.7194815 44.1141304,13.9844444 44.7211957,14.2898519 C45.4353261,9.94518519 44.7152174,6.98703704 42.2532609,4.30837037 C39.538587,1.35903704 34.6396739,0.096962963 28.3706522,0.096962963 L10.1706522,0.096962963 C8.89021739,0.096962963 7.79782609,0.985185185 7.6,2.19437037 L0.0195652174,48.0381481 C-0.129891304,48.945037 0.60326087,49.7632593 1.56195652,49.7632593 L12.7978261,49.7632593 L18.6538043,14.348963" id="Fill-11" fill="#002F86"></path>
      </g>
    </g>
  </g>
</svg>