<svg xmlns="http://www.w3.org/2000/svg" width="16" height="16" viewBox="0 0 16 16">
  <g fill="none" fill-rule="evenodd">
    <rect width="16" height="16" fill="#FFFFFF" opacity="0"/>
    <g transform="translate(2 1.333)">
      <path fill="#879F3C" d="M5.7,12.5466667 C5.58666667,12.5466667 5.47333333,12.54 5.36666667,12.5266667 L5.36666667,12.5066667 L5.35333333,12.5066667 L5.35333333,12.5266667 C5.32666667,12.52 5.29333333,12.52 5.26666667,12.5133333 L5.26666667,12.5 C5.19333333,12.4933333 5.13333333,12.48 5.07333333,12.4666667 C4.26666667,12.2466667 4.17333333,11.1666667 4.1,10.3733333 L4.1,10.3533333 C4.1,10 3.91333333,9.7 3.67333333,9.66666667 C3.64,9.66666667 3.62,9.66666667 3.59333333,9.66666667 C3.28666667,9.66666667 3.02,9.94 2.76666667,10.2066667 C2.56,10.42 2.34666667,10.64 2.12,10.7133333 C1.92666667,10.7733333 1.74,10.8066667 1.54666667,10.8066667 C1.02,10.8066667 0.58,10.5533333 0.34,10.1133333 C-0.0533333333,9.51333333 0.153333333,8.79333333 0.26,8.51333333 C0.553333333,7.9 1.27333333,7.80666667 1.68,7.80666667 C1.76666667,7.80666667 1.85333333,7.81333333 1.94,7.82 C2.04666667,7.83333333 2.14666667,7.83333333 2.23333333,7.83333333 C2.59333333,7.83333333 2.8,7.74666667 2.95333333,7.54666667 C3,7.48 3.02666667,7.4 3.01333333,7.32666667 C2.99333333,7.15333333 2.83333333,7.02 2.7,6.92 L2.65333333,6.88 L2.65333333,6.86666667 C2.42666667,6.72 2.18666667,6.60666667 1.95333333,6.49333333 C1.62666667,6.34 1.32,6.19333333 1.05333333,5.97333333 C0.706666667,5.61333333 0.533333333,5.07333333 0.586666667,4.53333333 L0.586666667,4.51333333 L0.586666667,4.47333333 C0.586666667,4.46 0.6,4.41333333 0.6,4.41333333 C0.613333333,4.32666667 0.633333333,4.24666667 0.653333333,4.17333333 C0.9,3.63333333 1.38,3.28666667 1.86666667,3.28666667 C2.08,3.28666667 2.28666667,3.34666667 2.48,3.47333333 L2.49333333,3.48 C2.84666667,3.63333333 2.94666667,4.03333333 3.05333333,4.45333333 C3.13333333,4.74666667 3.21333333,5.05333333 3.38666667,5.26666667 C3.52,5.43333333 3.74,5.53333333 3.98666667,5.53333333 C4.18666667,5.53333333 4.37333333,5.46666667 4.48,5.35333333 C4.54666667,5.28 4.58666667,5.19333333 4.58666667,5.09333333 C4.58666667,4.61333333 4.20666667,4.28 3.88,3.98666667 C3.69333333,3.82666667 3.52,3.67333333 3.41333333,3.50666667 L3.4,3.49333333 C3.05333333,3.12 2.92666667,2.52666667 3.08,1.94666667 C3.22666667,1.4 3.58666667,0.993333333 4.05333333,0.866666667 C4.18666667,0.833333333 4.32,0.806666667 4.45333333,0.793333333 C4.48,0.793333333 4.49333333,0.786666667 4.51333333,0.786666667 C4.55333333,0.786666667 4.58666667,0.78 4.62,0.78 L4.63333333,0.78 L4.74666667,0.78 C5.26666667,0.806666667 5.72,1.04666667 6.02,1.45333333 C6.25333333,1.88666667 6.29333333,2.40666667 6.14666667,3.08666667 C6.13333333,3.16 6.08666667,3.28 6.04,3.41333333 C5.86,3.91333333 5.59333333,4.66666667 6.03333333,5.00666667 C6.21333333,5.14666667 6.41333333,5.22 6.62666667,5.22 C6.86,5.22 7.09333333,5.12666667 7.28,4.97333333 C7.45333333,4.82666667 7.51333333,4.54 7.56666667,4.29333333 C7.59333333,4.17333333 7.61333333,4.06666667 7.64666667,3.98666667 L7.65333333,3.97333333 C7.83333333,3.20666667 8.51333333,2.67333333 9.31333333,2.67333333 C9.82,2.67333333 10.2666667,2.9 10.5733333,3.30666667 C10.6866667,3.45333333 10.7666667,3.62 10.7933333,3.77333333 C10.94,4.31333333 11.0866667,5.32 10.42,6.08666667 C10.1666667,6.38 9.74,6.42 9.29333333,6.46666667 C8.70666667,6.52666667 8.10666667,6.59333333 7.84,7.21333333 L7.86666667,7.34666667 C8.19333333,7.66 8.67333333,7.72 9.1,7.77333333 C9.2,7.78666667 9.29333333,7.8 9.38,7.81333333 C10.4,7.98666667 11.0933333,8.34666667 11.4933333,8.92 C11.6533333,9.16 11.7533333,9.41333333 11.8066667,9.7 C11.98,10.4133333 11.9066667,10.98 11.5933333,11.4 C11.3,11.8 10.7933333,12.0333333 10.2466667,12.0333333 L10.2466667,12.0333333 C10.0666667,12.0333333 9.89333333,12.0066667 9.74666667,11.9533333 L9.72666667,11.9533333 C9.01333333,11.7066667 8.62666667,11.04 8.24666667,10.3933333 C8.12666667,10.1866667 8,9.97333333 7.86666667,9.77333333 C7.71333333,9.5 7.31333333,9.25333333 7.00666667,9.25333333 C6.79333333,9.25333333 6.64666667,9.37333333 6.61333333,9.57333333 L6.61333333,9.58666667 C6.60666667,9.69333333 6.62,9.82 6.66,9.97333333 L6.66666667,9.99333333 C6.72,10.12 6.80666667,10.28 6.87333333,10.4 C6.90666667,10.46 6.94666667,10.5333333 6.95333333,10.5466667 L6.96666667,10.5733333 C7.26,11.0066667 7.34,11.72 6.99333333,12.1 C6.72666667,12.3866667 6.24666667,12.5466667 5.7,12.5466667 L5.7,12.5466667 L5.7,12.5466667 Z"/>
      <path fill="#1F2D17" d="M5.34666667,12.62 L5.33333333,12.62 L5.34666667,12.62 L5.36,12.62 L5.36666667,12.62 L5.36,12.62 L5.34666667,12.62 L5.34666667,12.62 L5.34666667,12.62 L5.34666667,12.62 L5.34666667,12.62 Z M4.62,0.666666667 L4.62,0.666666667 C4.58666667,0.666666667 4.55333333,0.666666667 4.51333333,0.673333333 C4.49333333,0.673333333 4.46666667,0.673333333 4.44666667,0.68 L4.44,0.68 C4.3,0.686666667 4.16,0.713333333 4.02,0.753333333 C2.89333333,1.06666667 2.54666667,2.74666667 3.32,3.57333333 C3.64,4.06666667 4.46666667,4.43333333 4.46666667,5.09333333 C4.46666667,5.29333333 4.23333333,5.41333333 3.98,5.41333333 C3.78666667,5.41333333 3.58666667,5.34666667 3.46666667,5.19333333 C3.08,4.7 3.21333333,3.66666667 2.54,3.37333333 C2.32,3.23333333 2.09333333,3.17333333 1.87333333,3.17333333 C1.32666667,3.17333333 0.813333333,3.56666667 0.553333333,4.13333333 C0.526666667,4.21333333 0.506666667,4.3 0.493333333,4.38666667 C0.486666667,4.41333333 0.48,4.44 0.473333333,4.46666667 L0.473333333,4.52 C0.42,5.08 0.6,5.66666667 0.973333333,6.06 C1.45333333,6.46 2.06666667,6.62666667 2.59333333,6.96666667 C2.74,7.08666667 3.01333333,7.28 2.87333333,7.47333333 C2.76,7.62666667 2.60666667,7.72 2.24,7.72 C2.16,7.72 2.06,7.71333333 1.95333333,7.70666667 C1.86666667,7.7 1.77333333,7.69333333 1.68666667,7.69333333 C1.08666667,7.69333333 0.44,7.88666667 0.16,8.47333333 C-0.0466666667,9.01333333 -0.0866666667,9.67333333 0.246666667,10.1733333 C0.526666667,10.68 1.01333333,10.92 1.55333333,10.92 C1.75333333,10.92 1.95333333,10.8866667 2.15333333,10.82 C2.69333333,10.6466667 3.1,9.78 3.59333333,9.78 C3.61333333,9.78 3.63333333,9.78 3.65333333,9.78666667 C3.84666667,9.81333333 3.98666667,10.0733333 3.98666667,10.3666667 C4.06,11.18 4.15333333,12.3333333 5.04,12.58 C5.11333333,12.6 5.18666667,12.6133333 5.25333333,12.62 C5.18,12.6133333 5.10666667,12.6066667 5.04,12.58 C5.22,12.6333333 5.45333333,12.6666667 5.7,12.6666667 C6.19333333,12.6666667 6.74,12.54 7.05333333,12.2 C7.43333333,11.7866667 7.36,11.0066667 7.04,10.5266667 C7.01333333,10.4666667 6.83333333,10.16 6.75333333,9.96666667 C6.72,9.82 6.70666667,9.70666667 6.71333333,9.61333333 C6.74666667,9.45333333 6.86,9.38666667 7,9.38666667 C7.26666667,9.38666667 7.63333333,9.61333333 7.77333333,9.85333333 C8.32666667,10.6666667 8.70666667,11.74 9.7,12.08 L9.70666667,12.0733333 C9.86,12.1333333 10.0466667,12.16 10.2466667,12.16 C11.1733333,12.16 12.3466667,11.4733333 11.9133333,9.68 C11.86,9.4 11.76,9.12666667 11.58,8.85333333 C11.0666667,8.13333333 10.2066667,7.84 9.39333333,7.7 C8.94,7.62666667 8.31333333,7.62 7.94,7.26666667 C8.37333333,6.24 9.87333333,6.88666667 10.5,6.16666667 C11.2066667,5.35333333 11.0533333,4.3 10.9,3.74666667 C10.8666667,3.56666667 10.7733333,3.38 10.66,3.23333333 C10.3133333,2.76666667 9.81333333,2.55333333 9.31333333,2.55333333 C8.53333333,2.55333333 7.75333333,3.06666667 7.54666667,3.94 C7.44666667,4.2 7.43333333,4.7 7.21333333,4.88 C7.06666667,5.00666667 6.86,5.1 6.62666667,5.1 C6.45333333,5.1 6.27333333,5.04666667 6.1,4.91333333 C5.62,4.54666667 6.18,3.48666667 6.25333333,3.11333333 C6.38,2.52666667 6.4,1.92666667 6.11333333,1.38666667 C5.78,0.926666667 5.29333333,0.686666667 4.75333333,0.66 L4.64666667,0.66 C4.63333333,0.666666667 4.63333333,0.666666667 4.62666667,0.666666667 L4.62,0.666666667 L4.62,0.666666667 L4.62,0.666666667 L4.62,0.666666667 Z M4.62,0.9 L4.62,0.9 L4.63333333,0.9 L4.64,0.9 L4.74,0.9 C5.23333333,0.926666667 5.64,1.14 5.92666667,1.52666667 C6.14,1.93333333 6.18,2.42666667 6.04,3.07333333 C6.02666667,3.14 5.98,3.26 5.94,3.38666667 C5.74666667,3.92 5.46,4.72666667 5.97333333,5.11333333 C6.17333333,5.26666667 6.4,5.34666667 6.63333333,5.34666667 C6.88666667,5.34666667 7.15333333,5.24666667 7.36,5.07333333 C7.56666667,4.9 7.62666667,4.59333333 7.68666667,4.32666667 C7.71333333,4.21333333 7.73333333,4.10666667 7.76,4.04 L7.75333333,4 C7.94666667,3.16666667 8.69333333,2.79333333 9.30666667,2.79333333 C9.78,2.79333333 10.2,3 10.48,3.38666667 C10.58,3.52 10.6533333,3.66666667 10.68,3.8 L10.6866667,3.82 C10.8266667,4.32666667 10.9666667,5.28666667 10.3333333,6.01333333 C10.1066667,6.27333333 9.70666667,6.31333333 9.27333333,6.36 C8.68666667,6.42 8.02,6.49333333 7.72666667,7.18 L7.78,7.44666667 C8.13333333,7.78666667 8.65333333,7.84666667 9.07333333,7.9 C9.17333333,7.91333333 9.26666667,7.92666667 9.34666667,7.94 C10.3333333,8.10666667 11,8.45333333 11.3866667,8.99333333 C11.5333333,9.22 11.6333333,9.46 11.6866667,9.73333333 L11.6866667,9.74666667 C11.8466667,10.4133333 11.78,10.9533333 11.4933333,11.34 C11.22,11.7066667 10.7466667,11.9266667 10.2333333,11.9266667 C10.06,11.9266667 9.9,11.9 9.76666667,11.8533333 L9.74666667,11.8533333 C9.07333333,11.62 8.71333333,11 8.32666667,10.3466667 C8.20666667,10.14 8.08,9.92666667 7.94666667,9.72666667 C7.76666667,9.41333333 7.33333333,9.15333333 6.99333333,9.15333333 C6.72666667,9.15333333 6.53333333,9.31333333 6.48666667,9.57333333 L6.48,9.60666667 C6.47333333,9.72666667 6.49333333,9.86 6.52666667,10.0266667 L6.54,10.0666667 C6.59333333,10.1933333 6.68,10.36 6.75333333,10.4866667 C6.78,10.54 6.82,10.6066667 6.82666667,10.62 L6.85333333,10.6666667 C7.11333333,11.0533333 7.19333333,11.7133333 6.88666667,12.04 C6.66,12.2866667 6.21333333,12.44 5.69333333,12.44 C5.58,12.44 5.46666667,12.4333333 5.36,12.42 L5.36,12.4 L5.35333333,12.4 L5.34666667,12.4 L5.33333333,12.4 L5.33333333,12.42 C5.31333333,12.42 5.29333333,12.4133333 5.27333333,12.4066667 L5.27333333,12.3933333 C5.20666667,12.3866667 5.14666667,12.38 5.09333333,12.36 C4.36666667,12.16 4.27333333,11.1266667 4.20666667,10.3733333 L4.20666667,10.3666667 C4.2,9.95333333 3.98,9.60666667 3.68,9.56666667 C3.65333333,9.56 3.62,9.56 3.59333333,9.56 C3.24,9.56 2.96,9.84666667 2.68666667,10.1333333 C2.49333333,10.34 2.28666667,10.5466667 2.08666667,10.6133333 C1.90666667,10.6733333 1.72666667,10.7 1.54666667,10.7 C1.05333333,10.7 0.66,10.4733333 0.433333333,10.0666667 L0.42,10.0533333 C0.173333333,9.68 0.146666667,9.12666667 0.353333333,8.58 C0.626666667,8.02 1.3,7.94 1.67333333,7.94 C1.75333333,7.94 1.84,7.94666667 1.92,7.95333333 C2.03333333,7.96666667 2.13333333,7.96666667 2.22666667,7.96666667 C2.62,7.96666667 2.86,7.86666667 3.03333333,7.63333333 C3.1,7.54 3.13333333,7.43333333 3.12,7.32666667 C3.09333333,7.10666667 2.90666667,6.95333333 2.76666667,6.84 C2.75333333,6.82666667 2.73333333,6.81333333 2.72,6.8 L2.7,6.78 C2.46666667,6.63333333 2.22666667,6.51333333 1.98666667,6.4 C1.66666667,6.24666667 1.36666667,6.10666667 1.11333333,5.9 C0.8,5.56 0.64,5.06 0.686666667,4.56 L0.686666667,4.52 L0.686666667,4.5 C0.686666667,4.49333333 0.686666667,4.49333333 0.693333333,4.48666667 L0.7,4.45333333 L0.706666667,4.43333333 C0.72,4.36 0.733333333,4.29333333 0.753333333,4.22666667 C0.986666667,3.73333333 1.42,3.41333333 1.86666667,3.41333333 C2.06,3.41333333 2.24666667,3.47333333 2.42666667,3.58666667 L2.45333333,3.6 C2.75333333,3.73333333 2.84666667,4.08666667 2.94666667,4.49333333 C3.02666667,4.8 3.10666667,5.11333333 3.29333333,5.35333333 C3.44666667,5.54666667 3.7,5.66 3.98,5.66 C4.21333333,5.66 4.42,5.58 4.55333333,5.44666667 C4.64,5.35333333 4.69333333,5.23333333 4.68666667,5.10666667 C4.68666667,4.57333333 4.28666667,4.22 3.94,3.90666667 C3.76666667,3.74 3.6,3.59333333 3.50666667,3.44 L3.48,3.41333333 C3.16,3.06666667 3.04666667,2.52 3.18666667,1.98 C3.32,1.47333333 3.65333333,1.1 4.08,0.98 C4.2,0.946666667 4.33333333,0.92 4.46,0.906666667 L4.46666667,0.906666667 C4.48666667,0.906666667 4.5,0.906666667 4.52,0.9 L4.53333333,0.9 L4.62,0.9 L4.62,0.9 Z"/>
    </g>
  </g>
</svg>
