<?xml version="1.0" encoding="UTF-8" standalone="no"?>
<svg width="24px" height="24px" viewBox="0 0 24 24" version="1.1" xmlns="http://www.w3.org/2000/svg" xmlns:xlink="http://www.w3.org/1999/xlink" xmlns:sketch="http://www.bohemiancoding.com/sketch/ns">
    <!-- Generator: Sketch 3.4.2 (15857) - http://www.bohemiancoding.com/sketch -->
    <title>ic_redeem_24px</title>
    <desc>Created with Sketch.</desc>
    <defs></defs>
    <g id="Page-1" stroke="none" stroke-width="1" fill="none" fill-rule="evenodd" sketch:type="MSPage">
        <g id="Drawer-Copy" sketch:type="MSLayerGroup" transform="translate(-69.000000, -50.000000)" fill="#000000">
            <g id="ic_redeem_24px" transform="translate(69.000000, 50.000000)" sketch:type="MSShapeGroup">
                <path d="M20,4 L4,4 C2.89,4 2.01,4.89 2.01,6 L2,18 C2,19.11 2.89,20 4,20 L20,20 C21.11,20 22,19.11 22,18 L22,6 C22,4.89 21.11,4 20,4 L20,4 Z M20,18 L4,18 L4,6 L20,6 L20,18 L20,18 Z M16.5,16 C17.3284271,16 18,15.3284271 18,14.5 C18,13.6715729 17.3284271,13 16.5,13 C15.6715729,13 15,13.6715729 15,14.5 C15,15.3284271 15.6715729,16 16.5,16 Z M12,16 C12.8284271,16 13.5,15.3284271 13.5,14.5 C13.5,13.6715729 12.8284271,13 12,13 C11.1715729,13 10.5,13.6715729 10.5,14.5 C10.5,15.3284271 11.1715729,16 12,16 Z M7.5,16 C8.32842712,16 9,15.3284271 9,14.5 C9,13.6715729 8.32842712,13 7.5,13 C6.67157288,13 6,13.6715729 6,14.5 C6,15.3284271 6.67157288,16 7.5,16 Z" id="Shape"></path>
            </g>
        </g>
    </g>
</svg>