<svg xmlns="http://www.w3.org/2000/svg" width="16" height="16" viewBox="0 0 16 16">
  <g fill="none" fill-rule="evenodd" transform="translate(2.667 .667)">
    <path fill="#ED1C24" d="M10.6666667,7.87333333 C10.6666667,10.52 8.28,12.6666667 5.33333333,12.6666667 C2.38666667,12.6666667 0,10.52 0,7.87333333 C0,5.22666667 2.38666667,3.08 5.33333333,3.08 C8.28,3.07333333 10.6666667,5.22 10.6666667,7.87333333 L10.6666667,7.87333333 L10.6666667,7.87333333 Z"/>
    <path fill="#3C2415" d="M9.31333333,4.62666667 C9.3,4.60666667 9.28,4.58666667 9.26,4.56666667 C8.64,3.89333333 7.25333333,3.11333333 6.03333333,3.15333333 C6.34,3.13333333 6.66666667,3.20666667 6.52,2.61333333 C6.43333333,2.26666667 6.03333333,2.18 5.96666667,2.07333333 C6.54,2.93333333 5.91333333,2.73333333 5.67333333,2.36 C5.68,2.35333333 5.67333333,2.35333333 5.67333333,2.35333333 C5.66666667,2.34 5.65333333,2.32666667 5.64666667,2.31333333 C5.48666667,2.00666667 5.76,1.72666667 5.92666667,1.61333333 C5.64666667,1.62666667 5.35333333,1.8 5.05333333,2.13333333 C5.04666667,2.11333333 5.04,2.09333333 5.03333333,2.06666667 L5.20666667,1.29333333 C5.21333333,1.28666667 5.3,1 5.24,0.8 C5.17333333,0.6 4.85333333,0.733333333 4.76,0.66 C4.78,0.686666667 4.72666667,1.65333333 4.42666667,2.38666667 C4.04666667,2.22 3.75333333,2.03333333 3.53333333,1.84666667 L3.93333333,2.50666667 C3.58666667,2.50666667 3.33333333,2.54666667 3.17333333,2.64666667 C3.00666667,2.74 2.92666667,2.92 2.7,2.96 C2.46666667,3 2.27333333,3.03333333 1.78666667,2.68666667 C1.96666667,2.81333333 2.26666667,3.29333333 2.58666667,3.38666667 C2.74666667,3.42 2.88666667,3.47333333 3.00666667,3.52 C2.27333333,3.65333333 1.19333333,4.9 1.04,4.97333333 C2.32,4.35333333 3.27333333,3.76666667 3.71333333,4.52666667 C3.81333333,4.69333333 3.97333333,4.94666667 3.68666667,5.28666667 C3.53333333,5.47333333 3.18,5.43333333 2.06666667,5.78 C2.64666667,5.6 4.46666667,6.65333333 4.85333333,4.46666667 C4.82,4.64 5.68,4.88666667 6.09333333,5.43333333 C6.56,6.04666667 6.75333333,6.40666667 6.88666667,7.28666667 C6.94,7.64 7.02666667,5.62666667 6.84,5.1 C6.6,4.39333333 6.40666667,4.32 6.05333333,4.12 C6.12,4.16 6.18,4.08666667 6.21333333,4.07333333 C6.42,4.03333333 6.60666667,4.01333333 6.78,4.01333333 L6.78666667,4.01333333 C7.02666667,4.01333333 7.28,4.04 7.54666667,4.11333333 C7.56,4.12 7.57333333,4.12 7.58666667,4.12 L7.63333333,4.13333333 C7.66666667,4.14666667 7.70666667,4.15333333 7.75333333,4.16666667 L7.83333333,4.18666667 C8.04666667,4.24666667 8.27333333,4.34 8.50666667,4.44666667 C8.72,4.54666667 8.94666667,4.65333333 9.17333333,4.78 C9.32,4.86 9.47333333,4.95333333 9.62666667,5.04666667 C9.53333333,4.89333333 9.42666667,4.76 9.31333333,4.62666667 L9.31333333,4.62666667 Z"/>
    <path fill="#659A41" d="M6.52,2.52 C6.43333333,2.17333333 6.06,2.22 5.99333333,2.11333333 C6.58666667,3.00666667 5.86,2.62666667 5.64666667,2.22666667 C5.48666667,1.92 5.76,1.74 5.92666667,1.62666667 C5.64,1.64 5.34,1.72666667 5.03333333,2.06666667 C5.09333333,2.3 5.15333333,2.49333333 5.2,2.64666667 L5.68666667,2.34 C5.50666667,2.50666667 5.43333333,2.68 5.46,2.85333333 C5.72666667,2.94666667 6.03333333,3.15333333 6.38,3.49333333 C5.88,3.24666667 5.52666667,3.19333333 5.31333333,3.32 C5.32,3.5 5.28,3.77333333 5.18,4.12666667 C5.08666667,3.84 4.87333333,3.65333333 4.54,3.56 C4.30666667,3.5 4.02,3.58666667 3.67333333,3.84666667 C3.9,3.54 4.05333333,3.30666667 4.14,3.17333333 C4.21333333,3.05333333 4.08,2.89333333 3.73333333,2.7 C4.05333333,2.86666667 4.27333333,2.79333333 4.39333333,2.46666667 C4.30666667,2.77333333 4.28666667,2.97333333 4.34,3.05333333 C4.39333333,3.13333333 4.47333333,3.17333333 4.58,3.18 C4.77333333,3.16 4.86,3.03333333 4.85333333,2.79333333 C4.81333333,2.68666667 4.80666667,2.46 4.83333333,2.09333333 C4.86,1.73333333 4.94,1.42 5.08,1.15333333 C5.21333333,0.886666667 5.33333333,1.04666667 5.14666667,0.793333333 L4.76,0.666666667 C4.66666667,1.02 4.72,1.58 4.42,2.32 C4.05333333,2.13333333 3.77333333,2.05333333 3.55333333,1.87333333 L3.93333333,2.41333333 C3.58666667,2.41333333 3.33333333,2.45333333 3.17333333,2.55333333 C3.00666667,2.64 2.92666667,2.82 2.7,2.86 C2.46666667,2.90666667 2.29333333,3.03333333 1.80666667,2.68 C1.98666667,2.80666667 2.26666667,3.20666667 2.58666667,3.29333333 C3.02666667,3.38666667 3.3,2.90666667 3.36666667,3.22666667 C3.36666667,3.22666667 3.43333333,3.5 3.31333333,3.44666667 C2.63333333,3.12666667 1.21333333,4.79333333 1.04,4.88 C2.32,4.25333333 3.27333333,3.67333333 3.71333333,4.43333333 C3.80666667,4.60666667 3.97333333,4.85333333 3.68666667,5.19333333 C3.53333333,5.37333333 3.18,5.34 2.06666667,5.68 C2.64666667,5.5 4.46666667,6.55333333 4.85333333,4.36666667 C4.82,4.54 5.68,4.78666667 6.09333333,5.33333333 C6.56,5.94666667 6.75333333,6.31333333 6.88666667,7.18666667 C6.94,7.54 7.02666667,5.52666667 6.84,5 C6.6,4.29333333 6.40666667,4.22 6.05333333,4.02 C6.12,4.06 6.18,3.98666667 6.21333333,3.97333333 C6.42,3.93333333 6.60666667,3.91333333 6.78,3.91333333 L6.78666667,3.91333333 C7.02666667,3.91333333 7.28,3.94 7.54666667,4.01333333 C7.56,4.02 7.57333333,4.02 7.58666667,4.02 L7.63333333,4.03333333 C7.66666667,4.04666667 7.70666667,4.05333333 7.75333333,4.06666667 L7.83333333,4.08666667 C8.04666667,4.14666667 8.27333333,4.24 8.50666667,4.34666667 C8.72,4.44666667 8.94666667,4.55333333 9.17333333,4.68 C9.32,4.76 9.47333333,4.85333333 9.62666667,4.94666667 C9.53333333,4.8 9.42666667,4.66666667 9.31333333,4.53333333 C9.3,4.51333333 9.28,4.49333333 9.26,4.47333333 C8.64,3.8 7.25333333,3.02 6.03333333,3.06 C6.34,3.04 6.66666667,3.11333333 6.52,2.52 L6.52,2.52 L6.52,2.52 Z"/>
  </g>
</svg>
