<?xml version="1.0" encoding="UTF-8" standalone="no"?>
<svg width="29px" height="24px" viewBox="0 0 29 24" version="1.1" xmlns="http://www.w3.org/2000/svg" xmlns:xlink="http://www.w3.org/1999/xlink">
    <!-- Generator: Sketch 39.1 (31720) - http://www.bohemiancoding.com/sketch -->
    <title>ic_restore_black_24dp (1)</title>
    <desc>Created with Sketch.</desc>
    <defs></defs>
    <g id="Page-1" stroke="none" stroke-width="1" fill="none" fill-rule="evenodd">
        <g id="ic_restore_black_24dp-(1)" transform="translate(-1.000000, -4.000000)">
            <polygon id="Shape" points="0 0 32 0 32 32 0 32"></polygon>
            <path d="M17.3333333,4 C10.7066667,4 5.33333333,9.37333333 5.33333333,16 L1.33333333,16 L6.52,21.1866667 L6.61333333,21.3733333 L12,16 L8,16 C8,10.84 12.1733333,6.66666667 17.3333333,6.66666667 C22.4933333,6.66666667 26.6666667,10.84 26.6666667,16 C26.6666667,21.16 22.4933333,25.3333333 17.3333333,25.3333333 C14.76,25.3333333 12.4266667,24.28 10.7466667,22.5866667 L8.85333333,24.48 C11.0266667,26.6533333 14.0133333,28 17.3333333,28 C23.96,28 29.3333333,22.6266667 29.3333333,16 C29.3333333,9.37333333 23.96,4 17.3333333,4 L17.3333333,4 Z M16,10.6666667 L16,17.3333333 L21.7066667,20.72 L22.6666667,19.1066667 L18,16.3333333 L18,10.6666667 L16,10.6666667 L16,10.6666667 Z" id="Shape" fill="#4285F4"></path>
        </g>
    </g>
</svg>
