<svg xmlns="http://www.w3.org/2000/svg" viewBox="0 0 200 200">
 <g>
  <path d="M36.83 146.124c-2-2.7-7.8.2-9.4-2.5-7.4-12.7-11.8-27.4-11.8-43.2 0-47.2 38.3-87.8 85.5-87.8s85.5 40.5 85.5 87.8c0 16-4.5 31-12 43.9-1.1 1.8-25 5.1-26.1 6.7" fill="#f3ea25" stroke="#5b5423" stroke-width="4.456" stroke-miterlimit="10"/>
  <g transform="translate(-215.07 -264.276)">
   <linearGradient id="SVGID_1_" gradientUnits="userSpaceOnUse" x1="240.85" y1="335.906" x2="240.85" y2="379.028" gradientTransform="matrix(1 0 0 -1 0 794)">
    <stop offset="0" stop-color="#016937"/>
    <stop offset=".05" stop-color="#176E39"/>
    <stop offset=".342" stop-color="#4E8E3E"/>
    <stop offset=".607" stop-color="#6FA941"/>
    <stop offset=".835" stop-color="#83BC42"/>
    <stop offset="1" stop-color="#8CC642"/>
   </linearGradient>
   <path d="M246.5 414.9s-14.5-1.3-24.5 12.9c7.8 4.7 11.1 6 11.1 6l-4.5 24.3s19.8-13.4 31-11.6c-2.4-7.8-13.1-31.6-13.1-31.6z" fill="url(#SVGID_1_)"/>
   <linearGradient id="SVGID_2_" gradientUnits="userSpaceOnUse" x1="-1422.328" y1="335.906" x2="-1422.328" y2="379.028" gradientTransform="rotate(180 -515.214 397)">
    <stop offset="0" stop-color="#016937"/>
    <stop offset=".05" stop-color="#176E39"/>
    <stop offset=".342" stop-color="#4E8E3E"/>
    <stop offset=".607" stop-color="#6FA941"/>
    <stop offset=".835" stop-color="#83BC42"/>
    <stop offset="1" stop-color="#8CC642"/>
   </linearGradient>
   <path d="M386.2 414.9s14.5-1.3 24.5 12.9c-7.8 4.7-11.1 6-11.1 6l4.5 24.3s-19.8-13.4-31-11.6c2.4-7.8 13.1-31.6 13.1-31.6z" id="path3278" fill="url(#SVGID_2_)"/>
   <path d="M388.7 442.3s2.7-29.4 3.3-40.3c-3.6-2.7-34.8-7.6-81.8-8.9-29.9.7-38.1 0-69.5 10.9.7 11.6 2.9 31.2 3.3 37.9 6.3-1.9 77.8-12.5 144.7.4z" id="path3280" fill="#016735"/>
  </g>
  <g>
   <g transform="translate(-215.07 -264.276)">
    <ellipse cx="316.5" cy="369.9" rx="55.3" ry="46.8" fill="#ed1c24"/>
    <linearGradient id="SVGID_3_" gradientUnits="userSpaceOnUse" x1="291.158" y1="466.283" x2="341.868" y2="381.887" gradientTransform="matrix(1 0 0 -1 0 794)">
     <stop offset=".632" stop-color="#ED1C24"/>
     <stop offset=".689" stop-color="#E71C24"/>
     <stop offset=".744" stop-color="#DA1C23"/>
     <stop offset=".798" stop-color="#C81A20"/>
     <stop offset=".851" stop-color="#AF161B"/>
     <stop offset=".904" stop-color="#911013"/>
     <stop offset=".956" stop-color="#700404"/>
     <stop offset="1" stop-color="#510000"/>
    </linearGradient>
    <ellipse cx="316.5" cy="369.9" rx="55.3" ry="46.8" id="ellipse3305" fill="url(#SVGID_3_)"/>
    <radialGradient id="SVGID_4_" cx="459.994" cy="218.388" r="55.948" gradientTransform="matrix(.5725 0 0 -.5753 32.978 491.193)" gradientUnits="userSpaceOnUse">
     <stop offset="0" stop-color="#FDBA63"/>
     <stop offset=".051" stop-color="#FBB05D"/>
     <stop offset=".297" stop-color="#F68642"/>
     <stop offset=".523" stop-color="#F26331"/>
     <stop offset=".723" stop-color="#EF4328"/>
     <stop offset=".889" stop-color="#EE2925"/>
     <stop offset="1" stop-color="#ED1C24"/>
    </radialGradient>
    <path d="M331 366.3c0 15.1-14.3 28.7-34.3 28.7-19.8 0-35-12.7-35-27.6 0-15.1 14.7-31.2 34.5-31.2 20.1-.2 34.8 15 34.8 30.1z" fill="url(#SVGID_4_)"/>
   </g>
   <g transform="translate(-215.07 -264.276)">
    <path d="M328.7 320.6c-.9-3.3-4.9-4.2-5.8-5.1 6.2 8.7-1.1 6.2-3.3 2.5-1.6-2.9 1.1-5.6 2.9-6.7-2.9 0-6 1.8-9.1 5.1.7 2.2 1.3 4 1.8 5.6l5.1-2.9c-1.8 1.6-2.7 3.3-2.5 5.1 2.7.9 6 2.9 9.6 6.2-5.1-2.5-8.9-2.9-11.1-1.6 0 1.8-.4 4.5-1.3 7.8-.9-2.7-3.1-4.7-6.7-5.6-2.5-.7-5.3.2-8.9 2.7 2.5-2.9 4-5.1 4.9-6.5.9-1.1-.7-2.7-4.2-4.7 3.3 1.6 5.6.9 6.9-2.2-.9 2.9-1.1 4.9-.4 5.8.4.7 1.3 1.1 2.5 1.1 2-.2 2.9-1.3 2.9-3.8-.4-.9-.4-3.3-.2-6.7.2-3.6 1.1-6.7 2.5-9.1 1.3-2.5 2.7-1.1.7-3.6l-4-1.3c-.9 3.3-.4 8.9-3.6 16-3.8-1.8-6.9-3.8-9.1-5.6l4 6.5c-3.6 0-6.2.4-7.8 1.3-1.6.9-2.5 2.7-4.9 3.1-2.5.4-4.5.7-9.4-2.7 1.8 1.3 4.9 6 8.2 6.9 4.5.9 7.8 3.3 8 1.1-.2 2.2.7.9-.4.4-7.1-3.1-21.8 13.1-23.6 13.8 13.4-6 23.2-11.8 27.6-4.2 1.1 1.6 2.7 4-.2 7.4-1.6 1.8-5.1 1.3-16.7 4.7 6-1.8 25 8.5 28.7-12.7-.2 1.8 8.5 4 12.9 9.4 4.9 6 6.9 9.6 8.2 18 .7 3.6 1.3-16-.4-21.2-2.5-6.9-4.5-7.6-8.2-9.6.7.4 1.3-.4 1.6-.4 2-.4 4-.7 5.8-.7 2.5 0 5.1.2 7.8.9h.8c.4 0 .9.2 1.3.2l.9.2c2.2.7 4.5 1.6 6.9 2.5 2.2.9 4.5 2 6.9 3.3 1.6.7 3.1 1.6 4.7 2.7-.9-1.3-2-2.7-3.3-4-.2-.2-.4-.4-.4-.7-6.5-6.5-20.7-14-33.4-13.8 2.8.3 6.4.9 4.8-4.9z" fill="#192d18"/>
    <path d="M328.7 319.7c-.9-3.3-4.7-2.9-5.6-4 6.2 8.7-1.3 4.9-3.6 1.1-1.6-2.9 1.1-4.7 2.9-5.8-2.9 0-6 .9-9.1 4.2.7 2.2 1.3 4 1.8 5.6l5.1-2.9c-1.8 1.6-2.7 3.3-2.5 5.1 2.7.9 6 2.9 9.6 6.2-5.1-2.5-8.9-2.9-11.1-1.6 0 1.8-.4 4.5-1.3 7.8-.9-2.7-3.1-4.7-6.7-5.6-2.5-.7-5.3.2-8.9 2.7 2.5-2.9 4-5.1 4.9-6.5.9-1.1-.7-2.7-4.2-4.7 3.3 1.6 5.6.9 6.9-2.2-.9 2.9-1.1 4.9-.4 5.8.4.7 1.3 1.1 2.5 1.1 2-.2 2.9-1.3 2.9-3.8-.4-.9-.4-3.3-.2-6.7.2-3.6 1.1-6.7 2.5-9.1 1.3-2.5 2.7-1.1.7-3.6l-4-1.3c-.9 3.3-.4 8.9-3.6 16-3.8-1.8-6.7-2.5-8.9-4.5l4 5.3c-3.6 0-6.2.4-7.8 1.3-1.6.9-2.5 2.7-4.9 3.1-2.5.4-4.2 1.6-9.1-1.8 1.8 1.3 4.7 5.1 8 6 4.5.9 7.8-3.8 8-.4-.2-2.2.9 2.7-.4 2-7.1-3.1-21.8 13.1-23.6 13.8 13.4-6 23.2-11.8 27.6-4.2 1.1 1.6 2.7 4-.2 7.4-1.6 1.8-5.1 1.3-16.7 4.7 6-1.8 25 8.5 28.7-12.7-.2 1.8 8.5 4 12.9 9.4 4.9 6 6.9 9.6 8.2 18 .7 3.6 1.3-16-.4-21.2-2.5-6.9-4.5-7.6-8.2-9.6.7.4 1.3-.4 1.6-.4 2-.4 4-.7 5.8-.7 2.5 0 5.1.2 7.8.9h.4l.4.2c.4 0 .9.2 1.3.4l.9.2c2.2.7 4.5 1.6 6.9 2.5 2.2.9 4.5 2 6.9 3.3 1.6.7 3.1 1.6 4.7 2.7-.9-1.3-2-2.7-3.3-4-.2-.2-.4-.4-.4-.7-6.5-6.5-20.7-14-33.4-13.8 2.6-.1 6.2.8 4.6-5z" fill="#659a41"/>
    <radialGradient id="SVGID_5_" cx="313.234" cy="475.417" r="15.531" gradientTransform="matrix(1 0 0 -1 0 794)" gradientUnits="userSpaceOnUse">
     <stop offset="0" stop-color="#3C2415"/>
     <stop offset=".231" stop-color="#3C2616"/>
     <stop offset=".38" stop-color="#3D2C1A"/>
     <stop offset=".506" stop-color="#3D361F"/>
     <stop offset=".62" stop-color="#394326"/>
     <stop offset=".724" stop-color="#2D552F"/>
     <stop offset=".808" stop-color="#006838"/>
     </radialGradient>
    <path d="M315.4 303c-.7-2-4-.7-4.9-1.3 2 2.5 4.9-.7 2.9 4.9-.9 2.7-2.5 4.5-2.5 8.9-.2 3.6-.2 5.1 0 6.7.4 2.2-.2 4-2.2 4.2-1.1 0-2-.4-2.5-1.1-.4-.7-.4-2.7.4-5.8-1.3 3.1-3.6 3.8-6.9 2.2 3.6 2 4.9 3.6 4.2 4.7-.9 1.3-2.5 3.6-4.9 6.5 3.6-2.5 6.7-3.3 8.9-2.7 3.3.9 5.6 2.7 6.7 5.6 1.1-3.6 1.6-6 1.3-7.8 2.2-1.3 5.8-.7 11.1 1.6-3.6-3.3-6.7-5.3-9.6-6.2-.2-1.8.4-3.3 2.5-5.1l-5.1 2.9c-.4-1.6-1.1-3.3-1.8-5.6l1.8-7.6c.3-.3 1.2-3 .6-5z" fill="url(#SVGID_5_)"/>
   </g>
  </g>
 </g>
</svg>
