<?xml version="1.0" encoding="UTF-8" standalone="no"?>
<svg width="128px" height="80px" viewBox="0 0 128 80" version="1.1" xmlns="http://www.w3.org/2000/svg" xmlns:xlink="http://www.w3.org/1999/xlink">
  <!-- Generator: Sketch 41 (35326) - http://www.bohemiancoding.com/sketch -->
  <title>union-pay_xxxhdpi_128x80</title>
  <desc>Created with Sketch.</desc>
  <defs></defs>
  <g id="Page-13" stroke="none" stroke-width="1" fill="none" fill-rule="evenodd">
    <g id="union-pay_xxxhdpi_128x80">
      <g id="container">
        <path d="M0,8.00005106 C0,3.58174486 3.59075293,0 8.00697327,0 L119.993027,0 C124.415156,0 128,3.5797863 128,8.00005106 L128,71.9999489 C128,76.4182551 124.409247,80 119.993027,80 L8.00697327,80 C3.58484404,80 0,76.4202137 0,71.9999489 L0,8.00005106 Z" id="Path" fill="#E0E0E0"></path>
        <path d="M4,8.00005106 L4,71.9999489 C4,74.2094718 5.79238055,76 8.00697327,76 L119.993027,76 C122.203379,76 124,74.2058465 124,71.9999489 L124,8.00005106 C124,5.79052815 122.207619,4 119.993027,4 L8.00697327,4 C5.79662132,4 4,5.79415354 4,8.00005106 Z" fill="#FFFFFF"></path>
      </g>
      <g id="Page-1" transform="translate(19.000000, 12.000000)">
        <path d="M20.7403407,50.2486369 L31.1911439,5.66176311 C31.9326267,2.53772427 35.0621765,-0.000217475728 38.1977458,-0.000217475728 L17.6151686,-0.000217475728 C14.4774104,-0.000217475728 11.3412939,2.53772427 10.6102083,5.66176311 L0.153385702,50.2486369 C-0.577699912,53.3623456 1.37587467,55.9019184 4.50542454,55.9019184 L25.0858129,55.9019184 C21.9458658,55.9019184 20.0026884,53.3623456 20.7403407,50.2486369" id="Fill-1" fill="#E21836"></path>
        <path d="M45.5341024,50.2486369 L55.9870944,5.66176311 C56.7176328,2.53772427 59.8515605,-0.000217475728 62.9915075,-0.000217475728 L40.0662824,-0.000217475728 L38.1980741,-0.000217475728 C35.0619576,-0.000217475728 31.932955,2.53772427 31.190925,5.66176311 L20.7401218,50.2486369 C20.0030168,53.3623456 21.9461942,55.9019184 25.0861412,55.9019184 L26.9543495,55.9019184 L49.8861412,55.9019184 C46.7461942,55.9019184 44.798639,53.3623456 45.5341024,50.2486369" id="Fill-4" fill="#00447C"></path>
        <path d="M85.4426761,-0.000163106796 L64.0157387,-0.000163106796 L62.9918906,-0.000163106796 C59.8513963,-0.000163106796 56.7180159,2.53777864 55.9869303,5.66181748 L45.5339382,50.2486913 C44.7990221,53.3618563 46.74603,55.9019728 49.8859771,55.9019728 L50.9038058,55.9019728 L72.3263654,55.9019728 C75.4646708,55.9019728 78.6046178,53.3618563 79.3422701,50.2486913 L89.792526,5.66181748 C90.5301783,2.53777864 88.5804342,-0.000163106796 85.4426761,-0.000163106796" id="Fill-7" fill="#007B84"></path>
        <path d="M62.5021836,34.7471301 C62.0769938,34.8640233 61.285714,35.2185087 61.285714,35.2185087 L61.9894387,32.9187029 L64.0989709,32.9187029 L63.5900565,34.5943534 C63.5900565,34.5943534 62.9383177,34.6324117 62.5021836,34.7471301 L62.5021836,34.7471301 Z M62.5426778,38.0326447 C62.5426778,38.0326447 61.8799947,38.1152854 61.4438605,38.2131495 C61.014293,38.3425476 60.2087855,38.7503146 60.2087855,38.7503146 L60.9354934,36.3569942 L63.05597,36.3569942 L62.5426778,38.0326447 Z M61.3606831,41.9385087 L59.2445843,41.9385087 L59.8580177,39.9187029 L61.9675499,39.9187029 L61.3606831,41.9385087 Z M64.67191,41.9173049 L63.9320688,41.9173049 L66.6703566,32.9187029 L67.5787414,32.9187029 L67.866579,31.9917126 L67.8955816,33.0225476 C67.8611068,33.6597515 68.3656434,34.2246447 69.6910097,34.1311301 L71.2237723,34.1311301 L71.7512921,32.3983922 L71.1745225,32.3983922 C70.8429073,32.3983922 70.6891386,32.3152078 70.7082913,32.1368777 L70.6803831,31.088101 L67.8419541,31.088101 L67.8419541,31.0935379 C66.9242665,31.1131107 64.1837899,31.1816155 63.6289091,31.327868 C62.9574704,31.4996738 62.2499153,32.0053049 62.2499153,32.0053049 L62.5279029,31.0772272 L59.8727926,31.0772272 L59.3195534,32.9187029 L56.5446019,42.0548583 L56.0061377,42.0548583 L55.4780706,43.775635 L60.7664025,43.775635 L60.5891033,44.3486835 L63.1949638,44.3486835 L63.3678853,43.775635 L64.0989709,43.775635 L64.67191,41.9173049 Z" id="Fill-10" fill="#FEFEFE"></path>
        <path d="M66.456722,36.3569398 L69.506925,36.3569398 L69.0686019,37.7672699 L65.9779047,37.7672699 L65.5138623,39.3091728 L68.2182224,39.3091728 L66.170526,42.1738718 C66.0271545,42.3842796 65.8985578,42.458765 65.7557335,42.5180272 C65.6123619,42.5903379 65.4241183,42.6751534 65.2063248,42.6751534 L64.4560865,42.6751534 L63.9406055,44.3638524 L65.9029356,44.3638524 C66.9229532,44.3638524 67.5254422,43.9028039 67.9703319,43.2976777 L69.3744978,41.3882408 L69.6760159,43.3270369 C69.7400406,43.6902214 70.0027061,43.9028039 70.1805525,43.9854447 C70.3770044,44.0833087 70.5800229,44.2513087 70.8662189,44.2763184 C71.1743036,44.289367 71.3964748,44.2996971 71.5442242,44.2996971 L72.5078782,44.2996971 L73.0873839,42.409833 L72.7070662,42.409833 C72.4887255,42.409833 72.1127855,42.3734058 72.0487608,42.3054447 C71.9847361,42.2228039 71.9847361,42.0955806 71.9502613,41.9020272 L71.6443654,39.9588816 L70.3917793,39.9588816 L70.941188,39.3091728 L74.0258658,39.3091728 L74.5003054,37.7672699 L71.6443654,37.7672699 L72.0892551,36.3569398 L74.9364395,36.3569398 L75.4645066,34.6176777 L66.9760335,34.6176777 L66.456722,36.3569398 Z" id="Fill-12" fill="#FEFEFE"></path>
        <path d="M40.6946002,42.3311612 L41.4065331,39.9780738 L44.3325172,39.9780738 L44.8671509,38.2279379 L41.9384307,38.2279379 L42.3855093,36.7795495 L45.2474687,36.7795495 L45.7777246,35.0848699 L38.6168067,35.0848699 L38.0974951,36.7795495 L39.7243795,36.7795495 L39.2904342,38.2279379 L37.6591721,38.2279379 L37.118519,40.0079767 L38.7448561,40.0079767 L37.7959771,43.1211417 C37.6679276,43.5332583 37.8561712,43.6903845 37.9754651,43.8817631 C38.0974951,44.0682485 38.221714,44.191666 38.4991545,44.2618019 C38.7858976,44.3254136 38.9823495,44.3634718 39.2493928,44.3634718 L42.5480335,44.3634718 L43.1357476,42.4246757 L41.6735763,42.6242097 C41.3912109,42.6242097 40.6092339,42.590501 40.6946002,42.3311612" id="Fill-14" fill="#FEFEFE"></path>
        <path d="M41.0302101,31.0666252 L40.2881801,32.3981204 C40.1300335,32.6889942 39.9872092,32.869499 39.8586125,32.9526835 C39.745338,33.0228194 39.5209779,33.0521786 39.1959294,33.0521786 L38.809045,33.0521786 L38.2919223,34.7555573 L39.5767944,34.7555573 C40.1946055,34.7555573 40.669045,34.5304699 40.895594,34.4179262 C41.1391068,34.2885282 41.2031315,34.3624699 41.3913751,34.181965 L41.8253204,33.8084505 L45.8375357,33.8084505 L46.3699806,32.0349359 L43.4330521,32.0349359 L43.945797,31.0666252 L41.0302101,31.0666252 Z" id="Fill-16" fill="#FEFEFE"></path>
        <path d="M48.8430856,35.6944 L52.9406673,35.6944 L52.6801906,36.5055845 C52.6435269,36.5246136 52.5559718,36.4653515 52.1389903,36.5142835 L48.5908173,36.5142835 L48.8430856,35.6944 Z M49.6639153,32.9737786 L53.7959718,32.9737786 L53.4988314,33.9507883 C53.4988314,33.9507883 51.5512763,33.9317592 51.239361,33.9888466 C49.8669338,34.2248078 49.0652568,34.9533515 49.0652568,34.9533515 L49.6639153,32.9737786 Z M46.9535357,42.3649243 C46.8851333,42.2676039 46.9343831,42.0952544 47.038902,41.7364194 L48.1355305,38.1301282 L52.0366602,38.1301282 C52.6052215,38.1219728 53.0156364,38.1154485 53.2826796,38.0964194 C53.5694228,38.0665165 53.881338,37.9648466 54.2211615,37.782167 C54.5719294,37.5907883 54.7514175,37.3890796 54.9029974,37.157468 C55.0720883,36.9264 55.3435093,36.4207689 55.5766249,35.6411184 L56.9550715,31.0773903 L52.9067396,31.1007689 C52.9067396,31.1007689 51.660173,31.2834485 51.1107643,31.4851573 C50.5575252,31.7102447 49.7662454,32.3387495 49.7662454,32.3387495 L50.1317882,31.0877204 L47.6309938,31.0877204 L44.1298817,42.6242641 C44.0056628,43.0722641 43.9224854,43.3973903 43.9033327,43.5925748 C43.8967661,43.8029825 44.170376,44.0112155 44.3476752,44.1683417 C44.5572604,44.325468 44.8669868,44.2999146 45.1641271,44.325468 C45.4765896,44.3488466 45.920932,44.3635262 46.5343654,44.3635262 L48.4562012,44.3635262 L49.0461041,42.3844971 L47.3256452,42.5459728 C47.1417793,42.5459728 47.0088049,42.4481087 46.9535357,42.3649243 L46.9535357,42.3649243 Z" id="Fill-18" fill="#FEFEFE"></path>
        <path d="M52.7719047,39.221965 C52.7379771,39.3432078 52.6843495,39.4171495 52.6093804,39.4726058 C52.526203,39.5253437 52.3915869,39.5449165 52.1907573,39.5449165 L51.6068738,39.5449165 L51.6413486,38.557033 L49.2127873,38.557033 L49.1142877,43.3866252 C49.1104572,43.7351301 49.1443848,43.9368388 49.4010309,44.0983146 C49.657677,44.3000233 50.4484095,44.3255767 51.512752,44.3255767 L53.0351174,44.3255767 L53.5839788,42.5178097 L52.2591598,42.5901204 L51.8186478,42.6156738 C51.7584537,42.5901204 51.7009956,42.5667417 51.6369709,42.5031301 C51.5811545,42.4476738 51.4870327,42.4819262 51.5023548,42.1334214 L51.512752,40.8954408 L52.902143,40.8383534 C53.6523813,40.8383534 53.9730521,40.595868 54.246662,40.3648 C54.5076858,40.1435184 54.5930521,39.8890718 54.6915516,39.5449165 L54.9246673,38.4488388 L53.0154175,38.4488388 L52.7719047,39.221965 Z" id="Fill-20" fill="#FEFEFE"></path>
        <path d="M23.4785737,14.288699 C21.1698535,14.3120777 20.4880177,14.288699 20.2702242,14.2375922 C20.1864996,14.6328544 18.6285649,21.7731262 18.6241871,21.7791068 C18.2887414,23.2236893 18.0446814,24.2534369 17.2156434,24.9183689 C16.7450344,25.304932 16.1956258,25.4914175 15.558662,25.4914175 C14.5348138,25.4914175 13.9383442,24.9863301 13.838203,24.0283495 L13.8190503,23.6994175 C13.8190503,23.6994175 14.1309656,21.7644272 14.1309656,21.7535534 C14.1309656,21.7535534 15.7660583,15.2466796 16.0588208,14.3865631 C16.074143,14.3376311 16.0785207,14.3120777 16.0823513,14.288699 C12.8997211,14.3164272 12.3355375,14.288699 12.2966849,14.2375922 C12.2753433,14.3077282 12.1965437,14.7111456 12.1965437,14.7111456 L10.5269762,22.0449709 L10.3836046,22.6669515 L10.1061642,24.7014369 C10.1061642,25.304932 10.2254581,25.7975146 10.4629515,26.2139806 C11.2241342,27.5346019 13.3933133,27.7325049 14.6207273,27.7325049 C16.2021924,27.7325049 17.6857052,27.3986796 18.6882118,26.7892039 C20.4283707,25.7676117 20.8836575,24.1707961 21.2896946,22.751767 L21.4779382,22.023767 C21.4779382,22.023767 23.1622807,15.2657087 23.4484766,14.3865631 C23.459421,14.3376311 23.4637988,14.3120777 23.4785737,14.288699" id="Fill-22" fill="#FEFEFE"></path>
        <path d="M29.2093875,19.740435 C28.8033504,19.740435 28.0613204,19.838299 27.3948067,20.1628816 C27.1529356,20.286299 26.9241977,20.4287456 26.6828738,20.5706485 L26.9006673,19.789367 L26.7813733,19.6577942 C25.3684519,19.9421437 25.0516117,19.9802019 23.7459453,20.1628816 L23.6370485,20.2351922 C23.4849214,21.4840466 23.3503054,22.4229981 22.7883107,24.8777553 C22.5743477,25.7824544 22.3521765,26.6958524 22.1294581,27.5983767 L22.1896523,27.7130951 C23.5276046,27.6429592 23.9336417,27.6429592 25.0964837,27.6619883 L25.1906055,27.5603184 C25.3383548,26.8083961 25.3575075,26.6322408 25.6847449,25.109367 C25.8385137,24.3873476 26.1591845,22.8008621 26.317331,22.2359689 C26.6079047,22.1022214 26.8946478,21.9706485 27.1682577,21.9706485 C27.8199965,21.9706485 27.7411968,22.5355417 27.7154775,22.7606291 C27.6875693,23.1384932 27.4500759,24.372668 27.2065631,25.4323184 L27.0440388,26.1162796 C26.9307643,26.621367 26.8065455,27.1123184 26.693271,27.6130563 L26.7425207,27.7130951 C28.0613204,27.6429592 28.4635269,27.6429592 29.5897052,27.6619883 L29.7221324,27.5603184 C29.9256981,26.3859495 29.9853451,26.0716971 30.3465102,24.3617942 L30.5281871,23.5761631 C30.8811439,22.0386097 31.0584431,21.2589592 30.7913998,20.6239301 C30.5090344,19.9122408 29.8315763,19.740435 29.2093875,19.740435" id="Fill-24" fill="#FEFEFE"></path>
        <path d="M35.6114757,21.350299 C34.9104872,21.4840466 34.4634086,21.5732117 34.0190662,21.6308427 C33.5785543,21.700435 33.1489868,21.7645903 32.4715287,21.8581049 L32.4179011,21.9064932 L32.3686514,21.9450951 C32.29806,22.4463767 32.2488102,22.8796971 32.1552357,23.389134 C32.0758888,23.9159689 31.9538588,24.5145709 31.755218,25.3746874 C31.6014492,26.0330951 31.5221024,26.262532 31.4345472,26.4941437 C31.3491809,26.7257553 31.2550591,26.9508427 31.0821377,27.5983767 L31.122632,27.6581825 L31.1565596,27.7130951 C31.7896929,27.6831922 32.2039382,27.6619883 32.6296752,27.6581825 C33.054865,27.6429592 33.4953769,27.6581825 34.1772127,27.6619883 L34.2368597,27.6130563 L34.3008844,27.5603184 C34.3993839,26.9763961 34.4141589,26.8192699 34.474353,26.5343767 C34.534,26.2288233 34.6368773,25.805833 34.8891456,24.6760466 C35.0084395,24.1454058 35.1414139,23.6163961 35.2650856,23.0748816 C35.3936823,22.5355417 35.5282983,22.0043573 35.6563477,21.4737165 L35.6371951,21.4095612 L35.6114757,21.350299 Z" id="Fill-26" fill="#FEFEFE"></path>
        <path d="M39.37788,23.9497864 C39.6750203,22.6438447 40.0257882,21.547767 40.9210397,21.547767 C41.6225755,21.547767 41.6734669,22.363301 41.3615516,23.6735922 C41.3057352,23.964466 41.0496364,25.0458641 40.7032462,25.5063689 C40.4613751,25.8461748 40.1751792,26.052233 39.8588861,26.052233 C39.7647643,26.052233 39.2049585,26.052233 39.196203,25.2263689 C39.1918252,24.8186019 39.2755499,24.4021359 39.37788,23.9497864 M39.4785684,27.8300971 C40.767271,27.8300971 42.0882595,27.4772427 43.0825578,26.4300971 C43.8475711,25.5808544 44.1983389,24.3173204 44.3198217,23.7970097 C44.7154616,22.0724272 44.4073769,21.2672233 44.0204925,20.7768155 C43.4327785,20.0292427 42.3941553,19.7894757 41.3166796,19.7894757 C40.6687714,19.7894757 39.1256117,19.8530874 37.9200865,20.9573204 C37.0543848,21.7538252 36.6543672,22.8346796 36.4130432,23.8709515 C36.1695305,24.9267961 35.8893539,26.827534 37.6486655,27.5348738 C38.1915075,27.7659417 38.9740318,27.8300971 39.4785684,27.8300971" id="Fill-28" fill="#FEFEFE"></path>
        <path d="M67.6302348,24.0878291 C67.9317529,22.805266 68.278143,21.7195184 69.1755834,21.7195184 C69.7430503,21.7195184 70.0423795,22.2403728 69.9810909,23.1276738 C69.9329356,23.3489553 69.8809497,23.5821981 69.8191139,23.8458874 C69.7293698,24.2270136 69.6319647,24.6048777 69.5372957,24.9832854 C69.440985,25.2415379 69.3293522,25.4861981 69.2056805,25.6487612 C68.9747538,25.9738874 68.4253451,26.1755961 68.1090521,26.1755961 C68.019308,26.1755961 67.4655216,26.1755961 67.4463689,25.3644117 C67.4419912,24.9604505 67.5257158,24.5445282 67.6302348,24.0878291 M64.6719647,24.0242175 C64.426263,25.0648388 64.1438976,26.9655767 65.8944537,27.6430136 C66.4526178,27.8789748 66.9527767,27.9491107 67.4611439,27.9235573 C67.9979665,27.8947417 68.4953892,27.6272466 68.9561483,27.2423146 C68.9145596,27.4005282 68.8735181,27.5587417 68.8313822,27.717499 L68.910729,27.8191689 C70.1698817,27.7664311 70.5611439,27.7664311 71.9248155,27.7767612 L72.0484872,27.6832466 C72.2476752,26.5197515 72.4353716,25.3894214 72.9530415,23.164101 C73.2053098,22.0979262 73.4570309,21.0420816 73.7158658,19.9802563 L73.6753716,19.8633631 C72.2668279,20.1227029 71.8903407,20.1781592 70.5354245,20.3689942 L70.4325472,20.4521786 C70.4183195,20.5603728 70.4051862,20.6642175 70.3915057,20.7680621 C70.1808261,20.4298874 69.8754775,20.1411883 69.4043213,19.9612272 C68.8018323,19.7258097 67.386722,20.0291883 66.1702524,21.1296155 C65.3154951,21.9152466 64.9050803,22.9917515 64.6719647,24.0242175" id="Fill-30" fill="#FEFEFE"></path>
        <path d="M47.5412498,27.6622058 L47.6419382,27.5605359 C47.7847626,26.8086136 47.808293,26.6319146 48.1251333,25.1095845 C48.2832798,24.387565 48.60997,22.8010796 48.7637387,22.2361864 C49.0548597,22.1018951 49.3366778,21.9703223 49.6190432,21.9703223 C50.2669515,21.9703223 50.1876046,22.5352155 50.1618853,22.7603029 C50.1383548,23.1387107 49.9008614,24.3723417 49.6529709,25.4319922 L49.4992021,26.1159534 C49.3815499,26.6215845 49.2535004,27.1119922 49.1402259,27.6132738 L49.1894757,27.7133126 C50.5126531,27.6431767 50.8995375,27.6431767 52.0322824,27.6622058 L52.1690874,27.5605359 C52.3677282,26.3856233 52.4213557,26.0713709 52.7934651,24.3620117 L52.9707643,23.5758369 C53.3253628,22.0382835 53.5048508,21.2591767 53.2421853,20.6241476 C52.9516117,19.9124583 52.2697758,19.7406524 51.6563425,19.7406524 C51.2497582,19.7406524 50.5038976,19.8379728 49.8412145,20.163099 C49.6042683,20.2865165 49.3667749,20.4284194 49.1336593,20.570866 L49.3366778,19.7895845 L49.2277811,19.657468 C47.8148597,19.9423612 47.492,19.9804194 46.1879753,20.163099 L46.0878341,20.2354097 C45.9296876,21.4842641 45.8010909,22.4226718 45.2390962,24.8779728 C45.0251333,25.7826718 44.802962,26.6960699 44.5807908,27.5985942 L44.6404378,27.7133126 C45.980579,27.6431767 46.3805966,27.6431767 47.5412498,27.6622058" id="Fill-32" fill="#FEFEFE"></path>
        <path d="M58.8832551,20.5602641 C58.8832551,20.5602641 59.8129815,16.5418563 59.8086037,16.5570796 L59.8387008,16.3510214 L59.8512868,16.1938951 L60.2233963,16.2319534 C60.2233963,16.2319534 62.1408544,16.3956039 62.1857264,16.3999534 C62.9425313,16.6908272 63.2544466,17.4405748 63.0366531,18.4192155 C62.8380124,19.3135845 62.2541289,20.0655068 61.5038906,20.4286913 C60.8860794,20.7364194 60.1292745,20.7619728 59.3494863,20.7619728 L58.8449497,20.7619728 L58.8832551,20.5602641 Z M57.2629373,27.7130408 C57.3461147,27.3096233 57.8402542,24.9184777 57.844632,24.9184777 C57.844632,24.9184777 58.265444,23.1639922 58.2911633,23.1003806 C58.2911633,23.1003806 58.4235905,22.917701 58.5560177,22.8453903 L58.7508279,22.8453903 C60.5889391,22.8453903 62.6645437,22.8453903 64.2914281,21.6563417 C65.3984537,20.8408078 66.1552586,19.6365359 66.4928932,18.1729243 C66.5804484,17.8140893 66.6450203,17.3872932 66.6450203,16.9604971 C66.6450203,16.3999534 66.5317458,15.8453903 66.2045084,15.4120699 C65.3749232,14.2589049 63.7228667,14.237701 61.8158058,14.2290019 C61.8097864,14.2290019 60.8756823,14.237701 60.8756823,14.237701 C58.4345349,14.2676039 57.4555587,14.2589049 57.0533522,14.2099728 C57.0194245,14.3866718 56.9553998,14.7009243 56.9553998,14.7009243 C56.9553998,14.7009243 56.0809426,18.7274874 56.0809426,18.7340117 C56.0809426,18.7340117 53.9883742,27.2949437 53.8898747,27.6983612 C56.0207485,27.6728078 56.8952056,27.6728078 57.2629373,27.7130408 L57.2629373,27.7130408 Z" id="Fill-34" fill="#FEFEFE"></path>
        <path d="M83.0785225,19.853033 L82.9696258,19.7296155 C81.575857,20.0101592 81.3235887,20.0547417 80.0430944,20.2265476 L79.9489726,20.3200621 C79.9445949,20.3352854 79.9407643,20.3586641 79.9341977,20.379868 L79.9298199,20.3586641 C78.9765631,22.5437515 79.0044713,22.0723728 78.2285137,23.7926058 C78.2241359,23.7143146 78.2241359,23.6653825 78.2197582,23.5821981 L78.0254951,19.853033 L77.9034651,19.7296155 C76.4434828,20.0101592 76.4090079,20.0547417 75.0606584,20.2265476 L74.9555922,20.3200621 C74.9408173,20.3646447 74.9408173,20.4135767 74.9320618,20.4668583 L74.9408173,20.4858874 C75.109361,21.3416544 75.0688667,21.1508194 75.2379576,22.5013437 C75.3167573,23.164101 75.4218235,23.8306641 75.5006231,24.4847223 C75.6330503,25.5808 75.7080194,26.1201398 75.8705437,27.7919845 C74.95997,29.2849553 74.7438182,29.8498485 73.8677193,31.1601398 L73.8737387,31.173732 L73.2564748,32.1431301 C73.1858835,32.2453437 73.1218588,32.3154796 73.0321147,32.3453825 C72.9336152,32.3937709 72.8055658,32.4024699 72.6277193,32.4024699 L72.285707,32.4024699 L71.7773398,34.0824699 L73.5213292,34.1123728 C74.5451774,34.1080233 75.1887079,33.6322951 75.535098,32.9929165 L76.6317264,31.1258874 L76.6136681,31.1258874 L76.7296787,30.9943146 C77.467331,29.4165282 83.0785225,19.853033 83.0785225,19.853033" id="Fill-36" fill="#FEFEFE"></path>
        <path d="M35.6264148,19.1798369 C34.989451,18.8063223 33.871481,18.9248466 33.1190538,19.4408078 C32.3688155,19.9464388 32.2834492,20.6641087 32.9182242,21.0425165 C33.5442436,21.405701 34.6665914,21.2969631 35.4124519,20.7771961 C36.1610485,20.2606913 36.2546231,19.5495456 35.6264148,19.1798369" id="Fill-38" fill="#FEFEFE"></path>
      </g>
    </g>
  </g>
</svg>