<?xml version="1.0" encoding="UTF-8" standalone="no"?>
<svg width="24px" height="24px" viewBox="0 0 24 24" version="1.1" xmlns="http://www.w3.org/2000/svg" xmlns:xlink="http://www.w3.org/1999/xlink">
    <!-- Generator: Sketch 3.6 (26304) - http://www.bohemiancoding.com/sketch -->
    <title>ic_wishlist_add_24dp</title>
    <desc>Created with Sketch.</desc>
    <defs></defs>
    <g id="Page-1" stroke="none" stroke-width="1" fill="none" fill-rule="evenodd">
        <g id="ic_wishlist_add_24dp" fill="#000000">
            <path d="M17,3 L7,3 C5.8965,3 5.01075,3.8955 5.01075,5 L5,21 L12,18 L19,21 L19,5 C19,3.8955 18.1045,3 17,3 L17,3 Z M17,18 L12,15.824 L7,18 L7,5 L17,5 L17,18 L17,18 Z" id="Fill-1"></path>
            <path d="M13,9 L13,7 L11,7 L11,9 L9,9 L9,11 L11,11 L11,13 L13,13 L13,11 L15,11 L15,9 L13,9" id="Fill-2"></path>
        </g>
    </g>
</svg>