<?xml version="1.0" encoding="utf-8"?>
<!-- Generator: Adobe Illustrator 21.1.0, SVG Export Plug-In . SVG Version: 6.00 Build 0)  -->
<svg version="1.1" id="Artwork" xmlns="http://www.w3.org/2000/svg" xmlns:xlink="http://www.w3.org/1999/xlink" x="0px" y="0px"
  viewBox="0 0 192 192" style="enable-background:new 0 0 192 192;" xml:space="preserve">
<style type="text/css">
 .st0{fill:#FFFFFF;fill-opacity:0;}
 .st1{fill:url(#SVGID_1_);}
 .st2{fill:url(#SVGID_2_);}
 .st3{fill:url(#SVGID_3_);}
 .st4{fill:url(#SVGID_4_);}
 .st5{opacity:0.2;enable-background:new    ;}
 .st6{opacity:0.12;enable-background:new    ;}
 .st7{opacity:0.25;fill:#FFFFFF;enable-background:new    ;}
</style>
<g>
 <rect class="st0" width="192" height="192"/>
 <g>

   <linearGradient id="SVGID_1_" gradientUnits="userSpaceOnUse" x1="100.5642" y1="160.5911" x2="7.5319" y2="67.5588" gradientTransform="matrix(1 0 0 -1 0 194)">
   <stop  offset="0" style="stop-color:#00A0FF"/>
   <stop  offset="6.574452e-03" style="stop-color:#00A1FF"/>
   <stop  offset="0.2601" style="stop-color:#00BEFF"/>
   <stop  offset="0.5122" style="stop-color:#00D2FF"/>
   <stop  offset="0.7604" style="stop-color:#00DFFF"/>
   <stop  offset="1" style="stop-color:#00E3FF"/>
  </linearGradient>
  <path class="st1" d="M37.6,26.9C36,28.6,35,31.3,35,34.7v122.6c0,3.4,1,6.1,2.6,7.8l0.4,0.4l68.7-68.7V96v-0.8L38,26.5L37.6,26.9z
   "/>

   <linearGradient id="SVGID_2_" gradientUnits="userSpaceOnUse" x1="167.2758" y1="97.996" x2="33.1417" y2="97.996" gradientTransform="matrix(1 0 0 -1 0 194)">
   <stop  offset="0" style="stop-color:#FFE000"/>
   <stop  offset="0.4087" style="stop-color:#FFBD00"/>
   <stop  offset="0.7754" style="stop-color:#FFA500"/>
   <stop  offset="1" style="stop-color:#FF9C00"/>
  </linearGradient>
  <path class="st2" d="M129.5,119.7l-22.9-22.9V96v-0.8l22.9-22.9l0.5,0.3L157.2,88c7.7,4.4,7.7,11.6,0,16l-27.1,15.4L129.5,119.7z"
   />

   <linearGradient id="SVGID_3_" gradientUnits="userSpaceOnUse" x1="117.3446" y1="85.2763" x2="-8.8145" y2="-40.8828" gradientTransform="matrix(1 0 0 -1 0 194)">
   <stop  offset="0" style="stop-color:#FF3A44"/>
   <stop  offset="1" style="stop-color:#C31162"/>
  </linearGradient>
  <path class="st3" d="M130.1,119.4L106.7,96l-69.1,69.1c2.6,2.7,6.8,3,11.5,0.3L130.1,119.4"/>

   <linearGradient id="SVGID_4_" gradientUnits="userSpaceOnUse" x1="20.1704" y1="207.8981" x2="76.5055" y2="151.563" gradientTransform="matrix(1 0 0 -1 0 194)">
   <stop  offset="0" style="stop-color:#32A071"/>
   <stop  offset="6.850000e-02" style="stop-color:#2DA771"/>
   <stop  offset="0.4762" style="stop-color:#15CF74"/>
   <stop  offset="0.8009" style="stop-color:#06E775"/>
   <stop  offset="1" style="stop-color:#00F076"/>
  </linearGradient>
  <path class="st4" d="M130.1,72.6l-81-46c-4.7-2.7-9-2.4-11.5,0.3L106.7,96L130.1,72.6z"/>
  <g>
   <path class="st5" d="M129.5,118.9l-80.5,45.7c-4.5,2.6-8.5,2.4-11.1,0.1l0,0l-0.4,0.4l0,0l0.4,0.4l0,0c2.6,2.3,6.6,2.5,11.1-0.1
    l81-46L129.5,118.9z"/>
   <path class="st6" d="M37.6,164.3c-1.6-1.7-2.6-4.4-2.6-7.8v0.8c0,3.4,1,6.1,2.6,7.8l0.4-0.4L37.6,164.3z"/>
  </g>
  <path class="st6" d="M157.2,103.2l-27.6,15.7l0.5,0.5l27.1-15.4c3.9-2.2,5.8-5.1,5.8-8l0,0C162.7,98.6,160.7,101.2,157.2,103.2z"
   />
  <path class="st7" d="M49.1,27.4l108.1,61.4c3.5,2,5.5,4.6,5.8,7.2l0,0c0-2.9-1.9-5.8-5.8-8L49.1,26.6C41.3,22.2,35,25.8,35,34.7
   v0.8C35,26.6,41.3,23,49.1,27.4z"/>
 </g>
</g>
</svg>
