<?xml version="1.0" encoding="utf-8"?>
<!-- Generator: Adobe Illustrator 18.0.0, SVG Export Plug-In . SVG Version: 6.00 Build 0)  -->
<svg version="1.1" id="Layer_1"
	 xmlns="http://www.w3.org/2000/svg" xmlns:xlink="http://www.w3.org/1999/xlink" x="0px" y="0px" viewBox="0 0 512 512"
	 enable-background="new 0 0 512 512" xml:space="preserve">
<switch>
	<g>
		<path fill="#036D60" d="M423.6,309.1c-2.9-12,7.1-14,2.7-29.7c-6-21.2,7-18.1,5.7-35.4s-9.9-20.8-5-34.9c4.9-14.1,6.7-28.3,2-37.4
			c-6.7,3.7-15.7,9.8-15.8,25.3c-0.1,20.8-1,25.7-5.3,35.4c-2.4,5.4,8.3,14.8,5.6,23.5s-10.6,22.9-6.4,37.3
			c4.2,14.4,2.2,23.7,0,30.5c-2.2,6.8-2.4,13.2-0.9,19.2c1.4,5.9,3.2,13.1-2.5,19l12.4-0.9l0,0.5l1.7-0.1c1.3-3.1,3.2-9.1,5.6-20.7
			C425.7,330,427,323.2,423.6,309.1z"/>
		<g id="XMLID_1_">
			<rect x="61.2" y="120.1" fill="#BBDEFB" width="230.4" height="336"/>
		</g>
		<g id="XMLID_7_">
			<rect x="291.4" y="120.1" fill="#90CAF9" width="106.6" height="336"/>
		</g>
		<g>
			<rect x="80.7" y="274.5" fill="#E3F2FD" width="190" height="154.7"/>
		</g>
		<g>
			<defs>
				<rect id="SVGID_1_" x="217.9" y="162.3" width="73.5" height="87.3"/>
			</defs>
			<use xlink:href="#SVGID_1_"  overflow="visible" fill="#64B5F6"/>
			<clipPath id="SVGID_2_">
				<use xlink:href="#SVGID_1_"  overflow="visible"/>
			</clipPath>
		</g>
		<g>
			<path fill="#64B5F6" d="M356.8,456h-12.6c0,0-8.3-68.9-4.9-96.4c1.1-8.8,6.4-19.2,1.3-33.9s-3.8-28.2-2.6-38.8
				c1.3-10.6-5.8-13.9-8.7-23.5c-4.1-13.4,0-24.5-4.1-38.3c-4.9-16.7,17.3-15.9,17.3-15.9l28.8,94.7c0,0-1.4-21.4,2.3-40.5
				c3.6-19.2,9.3-15.8,7.4-54.3s0.3-42.2,16.9-55V456H356.8z"/>
		</g>
		<g id="XMLID_5_">
			<path fill="#00897B" d="M350.2,364.2c0.6-6.4-4.5-16.6-2.6-27.5c1.9-10.9-8.3-20.5-7-32.6s7.8-12.8,3.6-23.7
				c-4.2-10.9-15.1-27.5-12.5-38.4s-11-30.7,7.9-32.6c19-2,16.4,18.5,17.7,29.4s11.5,10.9,12.2,35.8c0.6,25,7.9,14.3,10.9,32
				c3.2,19.2-5.8,19.2-2.6,35.2c3.2,16,2.6,23,2.6,23L350.2,364.2z"/>
		</g>
		<path fill="#00897B" d="M415.9,364.8c0,0,0.7-0.2,1.9-3.2l-1.7,0.1L415.9,364.8z"/>
		<path fill="#00897B" d="M406.2,343c-1.5-6-1.3-12.4,0.9-19.2c2.2-6.8,4.2-16.1,0-30.5c-4.2-14.4,3.7-28.7,6.4-37.3
			s-4.7-17.7-5.6-23.5c-0.9-5.8,5.2-14.6,5.3-35.4c0.1-15.5,9-21.6,15.8-25.3c-3.1-5.9-9-9.7-18.6-9.7c-24.3,0-22.4,28.8-20.4,45.5
			c2,16.7,7.9,19.8-3.6,39.6c-11.5,19.8-3.6,37.8,0,48.7c3.6,10.9,4.7,25.5,2.2,35.8c-2.6,10.2-3.2,16.6,0,31.4l15.1-1.1
			C409.4,356.1,407.7,348.9,406.2,343z"/>
		<path fill="#036D60" d="M403.7,362c-0.1,0.1-0.1,0.1-0.2,0.2l12.6-0.6l0-0.5L403.7,362z"/>
		<g id="XMLID_9_">
			<path fill="#00897B" d="M421.4,364.8c3.4-5.8,7.7-12.2,8.1-21.5c0.4-9.4-0.9-21.3,5.5-32.9c6.4-11.5,6.4-25.2,5.1-35.8
				s9-16.6,14.9-28.2c6-11.5,2.1-26.5,17.5-27.3c15.4-0.9,24.7,15.8,16.2,31.6c-8.5,15.8-9.4,19.2-11.1,30.7
				c-1.7,11.5-10.2,10.7-13.7,23s2,15.3-7.3,28.6c-12.4,17.5,2.7,10.7-8.4,31.8H421.4z"/>
		</g>
		<g>
			<defs>
				<path id="SVGID_3_" d="M438.2,465.6h-74.9c-3.4,0-6.2-2.7-6.4-6.1l-4.2-98.1h96l-4.2,98.1C444.4,463,441.6,465.6,438.2,465.6z"
					/>
			</defs>
			<use xlink:href="#SVGID_3_"  overflow="visible" fill="#1976D2"/>
			<clipPath id="SVGID_4_">
				<use xlink:href="#SVGID_3_"  overflow="visible"/>
			</clipPath>
		</g>
		<g>
			<polygon fill="#1565C0" points="447.4,392.7 354.1,392.7 353.8,382.5 447.7,382.5 			"/>
		</g>
		<g>
			<rect x="275.9" y="162.3" fill="#1E88E5" width="15.5" height="87.3"/>
		</g>
		<g>
			<rect x="61.2" y="138" fill="#90CAF9" width="230.4" height="2.6"/>
		</g>
		<g>
			<g>
				<g>
					<path fill="#1976D2" d="M139.1,153.4c-0.5,0-0.9-0.4-1-0.9c0-0.5,0.4-1,0.9-1l0.1,0c1.2-0.1,2.5-0.2,3.7-0.3c0.5,0,1,0.4,1,0.9
						c0,0.5-0.4,1-0.9,1c-1.2,0.1-2.5,0.2-3.7,0.3L139.1,153.4C139.1,153.4,139.1,153.4,139.1,153.4z"/>
				</g>
			</g>
			<g>
				<g>
					<path fill="#1976D2" d="M150.5,152.6c-0.5,0-0.9-0.4-1-0.9c0-0.5,0.3-1,0.9-1c2.8-0.2,5.2-0.5,7.5-0.7c0.5-0.1,1,0.3,1.1,0.8
						c0.1,0.5-0.3,1-0.8,1.1C155.8,152.1,153.3,152.3,150.5,152.6C150.5,152.6,150.5,152.6,150.5,152.6z M165.5,150.8
						c-0.5,0-0.9-0.3-0.9-0.8c-0.1-0.5,0.3-1,0.8-1.1c2.6-0.4,5.1-0.9,7.4-1.3c0.5-0.1,1,0.2,1.1,0.7c0.1,0.5-0.2,1-0.7,1.1
						c-2.4,0.5-4.9,1-7.5,1.4C165.6,150.8,165.6,150.8,165.5,150.8z M180.4,147.7c-0.4,0-0.8-0.3-0.9-0.7c-0.1-0.5,0.1-1,0.7-1.2
						c0.6-0.2,1.2-0.4,1.9-0.6c1.8-0.6,3.6-1.2,5.3-1.8c0.5-0.2,1.1,0.1,1.2,0.6c0.2,0.5-0.1,1.1-0.6,1.2c-1.7,0.7-3.6,1.3-5.4,1.9
						c-0.6,0.2-1.3,0.4-1.9,0.6C180.5,147.6,180.4,147.7,180.4,147.7z M194.5,142.2c-0.4,0-0.7-0.2-0.9-0.5c-0.2-0.5,0-1.1,0.4-1.3
						c2.3-1.1,4.5-2.4,6.5-3.7c0.4-0.3,1-0.2,1.3,0.3c0.3,0.4,0.2,1-0.3,1.3c-2.1,1.4-4.3,2.6-6.7,3.8
						C194.8,142.2,194.6,142.2,194.5,142.2z M207.2,134c-0.3,0-0.5-0.1-0.7-0.3c-0.3-0.4-0.3-1,0.1-1.4c1.9-1.6,3.7-3.4,5.4-5.2
						c0.4-0.4,1-0.4,1.4-0.1c0.4,0.4,0.4,1,0.1,1.4c-1.7,1.9-3.6,3.7-5.6,5.4C207.6,133.9,207.4,134,207.2,134z M217.3,122.7
						c-0.2,0-0.4-0.1-0.5-0.2c-0.4-0.3-0.6-0.9-0.3-1.3l0.1-0.1c1.3-2.1,2.5-4.2,3.4-6.4c0.2-0.5,0.8-0.7,1.3-0.5
						c0.5,0.2,0.7,0.8,0.5,1.3c-0.9,2.3-2.1,4.6-3.5,6.7l-0.1,0.1C217.9,122.5,217.6,122.7,217.3,122.7z M209.2,112.3L209.2,112.3
						c-1.3,0-2.6-0.1-3.8-0.3c-1.3-0.2-2.7-0.6-4-1.1c-0.5-0.2-0.7-0.8-0.5-1.3c0.2-0.5,0.8-0.7,1.3-0.5c1.2,0.5,2.4,0.8,3.5,1
						c1.1,0.2,2.3,0.3,3.4,0.3h0.1c0.5,0,1,0.4,1,1S209.7,112.3,209.2,112.3z M216.7,111.1c-0.4,0-0.8-0.3-0.9-0.7
						c-0.1-0.5,0.1-1,0.7-1.2c1.8-0.5,3.7-1.3,5.6-2.2c0.2-1.3,0.3-2.5,0.3-3.8c0-1-0.1-2-0.2-3c-0.1-0.5,0.3-1,0.8-1.1
						c0.5-0.1,1,0.3,1.1,0.8c0.1,1.1,0.2,2.1,0.2,3.2c0,1-0.1,2.1-0.2,3.1c0.2,0.1,0.4,0.2,0.5,0.5c0.2,0.5,0.1,1.1-0.4,1.3
						c-0.2,0.1-0.4,0.2-0.7,0.3c-0.1,0.1-0.2,0.1-0.3,0.2c-2.1,1-4.2,1.8-6.2,2.4C216.8,111.1,216.7,111.1,216.7,111.1z
						 M195.5,106.8c-0.2,0-0.5-0.1-0.7-0.3c-2-2-3.5-4.3-4.3-6.7c-0.2-0.5,0.1-1,0.6-1.2c0.5-0.2,1,0.1,1.2,0.6c0.7,2.1,2,4.2,3.8,6
						c0.4,0.4,0.4,1,0,1.4C196,106.7,195.7,106.8,195.5,106.8z M230.2,104.4c-0.3,0-0.6-0.1-0.8-0.4c-0.3-0.4-0.2-1,0.2-1.3
						c2-1.4,4-3,5.9-4.6c0.4-0.3,1-0.3,1.4,0.1c0.3,0.4,0.3,1-0.1,1.4c-2,1.7-4,3.2-6.1,4.7C230.5,104.3,230.4,104.4,230.2,104.4z
						 M241.7,94.6c-0.2,0-0.5-0.1-0.7-0.3c-0.4-0.4-0.4-1,0-1.4c1.7-1.8,3.4-3.7,5-5.6c0.3-0.4,0.9-0.5,1.4-0.1
						c0.4,0.3,0.5,0.9,0.1,1.3c-1.6,2-3.3,3.9-5.1,5.7C242.2,94.5,242,94.6,241.7,94.6z M220.9,93.9c-0.4,0-0.7-0.2-0.9-0.5
						c-1.1-2.2-2.6-4.2-4.3-5.8c-0.4-0.4-0.4-1-0.1-1.4c0.4-0.4,1-0.4,1.4-0.1c1.9,1.8,3.5,3.9,4.7,6.3c0.2,0.5,0,1.1-0.4,1.3
						C221.2,93.9,221,93.9,220.9,93.9z M191.3,93c-0.1,0-0.2,0-0.3,0c-0.5-0.2-0.8-0.7-0.6-1.2c0.8-2.5,2.4-4.8,4.6-6.6
						c0.4-0.3,1-0.3,1.3,0.1c0.3,0.4,0.3,1-0.1,1.3c-1.9,1.5-3.3,3.5-4,5.7C192.1,92.7,191.7,93,191.3,93z M209.9,84
						c-0.1,0-0.2,0-0.3,0c-0.2-0.1-0.4-0.1-0.6-0.2c-2-0.5-4.2-0.6-6.4-0.2c-0.5,0.1-1-0.2-1.1-0.8c-0.1-0.5,0.2-1,0.8-1.1
						c2.5-0.5,5-0.4,7.2,0.2c0.2,0.1,0.5,0.1,0.7,0.2c0.5,0.2,0.8,0.7,0.6,1.2C210.7,83.8,210.3,84,209.9,84z M251.2,82.8
						c-0.2,0-0.4-0.1-0.5-0.2c-0.4-0.3-0.6-0.9-0.3-1.3c1.4-2.1,2.7-4.2,3.8-6.4c0.3-0.5,0.8-0.6,1.3-0.4c0.5,0.3,0.6,0.8,0.4,1.3
						c-1.2,2.2-2.5,4.5-3.9,6.6C251.8,82.6,251.5,82.8,251.2,82.8z"/>
				</g>
			</g>
			<g>
				<g>
					<path fill="#1976D2" d="M258.4,69.4c-0.1,0-0.2,0-0.4-0.1c-0.5-0.2-0.7-0.8-0.5-1.3c0.5-1.2,0.9-2.3,1.4-3.5
						c0.2-0.5,0.7-0.8,1.2-0.6c0.5,0.2,0.8,0.7,0.6,1.2c-0.4,1.2-0.9,2.4-1.4,3.6C259.1,69.1,258.8,69.4,258.4,69.4z"/>
				</g>
			</g>
		</g>
		<g>
			<g>
				<path fill="#1976D2" d="M266.6,46.2c-0.1,0-0.1,0-0.2,0c-0.3-0.1-0.5-0.5-0.4-0.8c0.4-1.3,0.3-2.8-0.3-4
					c-0.3-0.7-0.8-1.3-1.4-1.9c-0.2-0.3-0.5-0.6-0.7-0.9c-1-1.3-1.5-2.6-1.4-3.7c0-0.4,0.3-0.6,0.7-0.6c0.4,0,0.6,0.3,0.6,0.7
					c-0.1,0.9,0.3,1.8,1.1,2.9c0.2,0.3,0.4,0.6,0.7,0.9c0.5,0.7,1.1,1.3,1.5,2.1c0.8,1.5,0.9,3.3,0.4,5
					C267.2,46,266.9,46.2,266.6,46.2z"/>
			</g>
		</g>
		<g>
			<g>
				<path fill="#1976D2" d="M266.7,45.8c-0.1,0-0.2,0-0.3-0.1c-0.3-0.2-0.4-0.5-0.3-0.9c1-2,3-2.9,5.1-3.7l0.1-0.1
					c0.7-0.3,1.5-0.5,2.1-0.9c0.7-0.4,1.1-1,1.2-1.6c0.1-0.3,0.4-0.6,0.7-0.5c0.3,0.1,0.6,0.4,0.5,0.7c-0.1,1-0.8,1.8-1.7,2.5
					c-0.7,0.5-1.6,0.8-2.3,1.1l-0.1,0.1c-1.8,0.7-3.6,1.5-4.4,3C267.1,45.6,266.9,45.8,266.7,45.8z"/>
			</g>
		</g>
		<g>
			<path fill="#1565C0" d="M265,43.6c0,0-15.1-18.5-31.2-14.8c0,0-1.2,7.2,1.8,15c1.6,4.2,5.8,7.1,10.3,6.9c0.1,0,0.1,0,0.2,0
				c0,0-9.4,0.9-8,6.8s12.6,9.9,22.1,0.3L265,43.6z"/>
		</g>
		<g>
			<path fill="#1565C0" d="M268.7,44.8c0,0,23.2-5.8,33.8,6.9c0,0-3.3,6.5-10.4,11c-3.8,2.4-8.8,2.2-12.4-0.6c0,0-0.1-0.1-0.1-0.1
				c0,0,7,6.4,2.3,10.2c-4.7,3.8-16,0.4-17.9-13L268.7,44.8z"/>
		</g>
		<g>
			<path fill="#1976D2" d="M265,43.6c-5.3,6.7-5.1,13.4-4.5,16.6c0.2,0.9,1.3,1.3,2,0.7c2.4-2.2,6.6-7.4,6.3-16
				C268.7,42.8,266.2,42,265,43.6z"/>
		</g>
		<g>
			<circle fill="#1E88E5" cx="245.9" cy="40.2" r="5.4"/>
		</g>
		<g>
			<rect x="27.9" y="149.8" fill="#E3F2FD" width="190" height="99.8"/>
		</g>
		<g>
			<circle fill="#1E88E5" cx="284.5" cy="53.8" r="5.4"/>
		</g>
		<g>
			<defs>
				<path id="SVGID_5_" d="M154.1,194.9H91.7c-2.1,0-3.8-1.7-3.8-3.8l0,0c0-2.1,1.7-3.8,3.8-3.8h62.4c2.1,0,3.8,1.7,3.8,3.8v0
					C157.9,193.2,156.2,194.9,154.1,194.9z"/>
			</defs>
			<use xlink:href="#SVGID_5_"  overflow="visible" fill="#90A4AE"/>
			<clipPath id="SVGID_6_">
				<use xlink:href="#SVGID_5_"  overflow="visible"/>
			</clipPath>
		</g>
		<g>
			<rect x="99.9" y="187.4" fill="#BAD3DD" width="13.4" height="7.5"/>
		</g>
		<g>
			<rect x="115.9" y="187.5" fill="#BAD3DD" width="3.1" height="7.4"/>
		</g>
		<g>
			<defs>
				<path id="SVGID_7_" d="M202.4,321H140c-2.1,0-3.8-1.7-3.8-3.8l0,0c0-2.1,1.7-3.8,3.8-3.8h62.4c2.1,0,3.8,1.7,3.8,3.8l0,0
					C206.3,319.3,204.5,321,202.4,321z"/>
			</defs>
			<use xlink:href="#SVGID_7_"  overflow="visible" fill="#90A4AE"/>
			<clipPath id="SVGID_8_">
				<use xlink:href="#SVGID_7_"  overflow="visible"/>
			</clipPath>
		</g>
		<g>
			<rect x="148.3" y="313.4" fill="#BAD3DD" width="13.4" height="7.5"/>
		</g>
		<g>
			<rect x="164.3" y="313.6" fill="#BAD3DD" width="3.1" height="7.4"/>
		</g>
		<g>
			<path fill="#00897B" d="M410.3,162.1c-24.3,0-22.4,28.8-20.4,45.5c2,16.7,7.9,19.8-3.6,39.6c-11.5,19.8-3.6,37.8,0,48.7
				c3.6,10.9,4.7,25.5,2.2,35.8c-2.6,10.2-3.2,16.6,0,31.4l15.1-1.1c5.7-5.9,4-13.1,2.5-19c-1.5-6-1.3-12.4,0.9-19.2
				c2.2-6.8,4.2-16.1,0-30.5c-4.2-14.4,3.7-28.7,6.4-37.3s-4.7-17.7-5.6-23.5c-0.9-5.8,8.2-12.1,5.3-35.4
				c-1.9-15.4,9-21.6,15.8-25.3C425.9,165.9,420,162.1,410.3,162.1z"/>
		</g>
		<g>
			<g>
				<path fill="#26A69A" d="M398.8,364.6c6-2.6,9.8-8.3,9.9-14.8c0-3.9-1.9-7.7-2.8-11.4c-1.2-4.8,0.3-9.6,2-14.1
					c2.8-7.2,5.6-13.6,3.7-21.5c-1-4-2.8-7.7-4-11.6c-1.4-4.3-1.7-8.6-0.7-13.1c1.5-7.2,5.6-13.7,7.4-20.9c0.8-3.2,0.8-6.4,0-9.6
					c-1-4.2-4-7.6-5.2-11.7c-1.2-4.5,1.3-9.2,3.1-13.2c1.7-3.9,2.6-7.6,2.7-11.9c0.1-8.4-2.7-17.3,2-25c0.5-0.8-1.4-0.8-1.8-0.2
					c-3.8,6.2-2.8,13.5-2.3,20.4c0.3,4.6,0.3,9.2-1.2,13.6c-1.3,3.6-3.2,6.9-4.2,10.7c-2.2,8.1,5.4,14,5.6,21.9
					c0.2,7.5-4.2,14.6-6.7,21.4c-2.6,7.3-2.2,13.6,0.4,20.9c1.4,3.9,3,7.6,3.6,11.7c0.8,4.5-0.7,9-2.3,13.2
					c-2.8,7.3-5.7,13.6-3.4,21.5c1.2,4.3,2.8,8.1,1.9,12.6c-0.9,4.5-4.3,8.3-8.4,10.1C396.8,364.1,397.9,365,398.8,364.6
					L398.8,364.6z"/>
			</g>
		</g>
		<path fill="#036D60" d="M470,248.7c-2.5,16.2,0.1,16.7-9.4,25.1s-8.2,14.9-7.1,22.3c2.2,14.5-7.6,24.6-9.1,28.4
			c-1.5,3.7-0.7,11.9-2.7,20.6s-6,14.6-6,14.6l14.3,1.6c7.6-16.8-4.9-11.8,6.7-28.2c9.4-13.2,3.9-16.2,7.3-28.6
			c3.4-12.4,11.9-11.5,13.7-23c1.7-11.5,2.6-14.9,11.1-30.7c4.1-7.5,4.1-15.2,1.3-21.1C480.7,232.6,472.3,234.5,470,248.7z"/>
		<g>
			<g>
				<path fill="#26A69A" d="M435.2,360c9.8-6.1,6.8-19,8-28.6c0.8-6,4.4-10.9,7.5-15.9c2.9-4.8,4.4-9.6,4.1-15.3
					c-0.3-6.4-2.2-13,0.5-19.2c2.3-5,7.7-8,11-12.3c7.1-9.5,0.4-25.1,11-32.6c1-0.7-0.6-1-1.2-0.6c-9,6.4-6.6,18.5-9.1,27.9
					c-1.6,6-6.7,9.4-10.7,13.7c-3.7,4-4.6,8.8-4.3,14.1c0.3,6.2,1.8,12.2-0.2,18.4c-1.9,5.8-6.2,10.4-8.8,15.9
					c-4.7,10.3,2.2,26.9-9.1,33.9C433,360.1,434.6,360.4,435.2,360L435.2,360z"/>
			</g>
		</g>
		<g>
			<path fill="#00897B" d="M363.3,364.4l0.3,0c0.3-0.7,0.6-1.7,1.1-3l-0.4,0C364.3,361.4,363.7,363.1,363.3,364.4z"/>
			<path fill="#036D60" d="M364.7,361.4l15.7,1.9c0-2.8-0.3-9.7-2.6-21.5c-3.2-16,5.8-16,2.6-35.2c-2.9-17.7-10.2-7-10.9-32
				c-0.6-25-10.9-25-12.2-35.8c-1.1-9.8,0.8-27.2-12.5-29.3c-5.5,12.9-2.5,29.8,3.5,38.2c8.5,11.8-1.8,20.4,9.9,37.5
				c11.7,17-7.8,32-2.8,44.8C360.4,342.6,368.5,350.7,364.7,361.4C364.7,361.4,364.7,361.4,364.7,361.4z"/>
		</g>
		<g>
			<g>
				<path fill="#26A69A" d="M365.2,361.6c1.7-4.9,1.7-10.3-0.7-15c-3.1-5.9-7.3-10.5-8.5-17.2c-2.2-12.4,7.8-23.1,6.2-35.4
					c-0.7-5.3-3.4-9.8-6.1-14.4c-1.6-2.7-2.9-5.5-3.6-8.6c-0.8-3.5,0-7.3,0.3-10.8c0.3-2.6,0.2-5.2-0.4-7.8
					c-0.7-2.8-2.7-5.2-4.3-7.5c-3.8-5.8-5.1-12.9-4.1-19.7c0.1-1-1.8-0.8-1.9,0.1c-0.8,5.7,0,11.3,2.3,16.6c1,2.3,2.4,4.4,3.9,6.5
					c2.4,3.4,3,6.7,2.8,10.8c-0.3,6-1.3,11.1,1.1,16.8c2.1,5.1,5.6,9.4,7.4,14.6c3.9,11.5-5.2,23.1-5.7,34.6c-0.3,5.8,1.8,11.3,5,16
					c4.2,6.4,7.4,12.3,4.6,20.1C363,362.4,364.9,362.4,365.2,361.6L365.2,361.6z"/>
			</g>
		</g>
		<g>
			<path fill="#1976D2" d="M447.7,382.5h-94c-2.3,0-4.3-1.7-4.6-4l-2.6-16.8c-0.3-2.1,1.3-4,3.5-4h101.5c2.1,0,3.8,1.9,3.5,4
				l-2.6,16.8C452,380.8,450,382.5,447.7,382.5z"/>
		</g>
	</g>
</switch>
</svg>
