<?xml version="1.0" encoding="utf-8"?>
<!-- Generator: Adobe Illustrator 21.1.0, SVG Export Plug-In . SVG Version: 6.00 Build 0)  -->
<svg version="1.1" id="artwork" xmlns="http://www.w3.org/2000/svg" xmlns:xlink="http://www.w3.org/1999/xlink" x="0px" y="0px"
  viewBox="0 0 524 526" style="enable-background:new 0 0 524 526;" xml:space="preserve">
<style type="text/css">
 .st0{clip-path:url(#SVGID_2_);fill:#FFC107;}
 .st1{clip-path:url(#SVGID_4_);fill:#4DD0E1;}
 .st2{fill:#FFC107;}
 .st3{fill:#B3E5FC;}
 .st4{fill:#FF7043;}
 .st5{fill:#4DD0E1;}
 .st6{clip-path:url(#SVGID_6_);fill:#FFC107;}
 .st7{clip-path:url(#SVGID_8_);fill:#26C6DA;}
 .st8{fill:#212121;}
 .st9{fill:#FF8A65;}
 .st10{clip-path:url(#SVGID_10_);fill:#FFC107;}
 .st11{clip-path:url(#SVGID_12_);fill:#FF7043;}
 .st12{clip-path:url(#SVGID_14_);fill:#FFC107;}
 .st13{fill:none;stroke:#1C3AA9;stroke-width:23;stroke-miterlimit:10;}
 .st14{fill:url(#SVGID_15_);}
</style>
<g>
 <g>
  <defs>
   <polygon id="SVGID_1_" points="182.8,140.1 192.6,143.5 192.6,200.1 193.1,200.1 193.1,202 174.4,192.6    "/>
  </defs>
  <clipPath id="SVGID_2_">
   <use xlink:href="#SVGID_1_"  style="overflow:visible;"/>
  </clipPath>
  <polygon class="st0" points="182.8,140.1 192.6,143.5 192.6,200.1 193.1,200.1 193.1,202 174.4,192.6   "/>
 </g>
 <g>
  <defs>
   <polygon id="SVGID_3_" points="182.8,140.1 192.6,143.5 192.6,200.1 193.1,200.1 193.1,202 174.4,192.6    "/>
  </defs>
  <clipPath id="SVGID_4_">
   <use xlink:href="#SVGID_3_"  style="overflow:visible;"/>
  </clipPath>
  <polygon class="st1" points="194.7,169.6 176.9,167.3 170.6,193 190.7,199.8 201.7,188.1   "/>
 </g>
</g>
<path class="st2" d="M235.1,157.3h14.8v-15c0-5.6-4.5-10.1-10.1-10.1h-4.6L235.1,157.3L235.1,157.3z"/>
<polygon class="st3" points="215.4,165.4 243.4,157.1 243.4,104.2 215.4,112.5 "/>
<path class="st4" d="M220,288l58.3-123c1.7-8.4,9.7-14.1,18.2-13l78.6,8.4L353.7,180l-45.8,2.6l-23.2,71.2L220,288z"/>
<path class="st2" d="M194,155.3h-13.2v-13.1c0-5.6,4.5-10.1,10.1-10.1h3v23.2H194z"/>
<path class="st5" d="M280.3,255.5l-107-69.4c-10-5.1-18.7-0.8-27.3,9l0,0c-5.8,9.3,4.9,26.8,12.1,33.6l68.7,66.9L280.3,255.5z"/>
<g>
 <g>
  <defs>
   <path id="SVGID_5_" d="M236.7,200.3l2.2-51.8h10.9l6.2,52.1c1.3,12.3-8.4,23-20.7,23l-53.5-0.1c-7.5,0-13.5-6-13.5-13.5l0,0
    c0-7.5,6-13.5,13.5-13.5L236.7,200.3z"/>
  </defs>
  <clipPath id="SVGID_6_">
   <use xlink:href="#SVGID_5_"  style="overflow:visible;"/>
  </clipPath>
  <path class="st6" d="M236.7,200.3l2.2-58.1h10.9l6.2,58.4c1.3,12.3-8.4,23-20.7,23l-53.5-0.1c-7.5,0-13.5-6-13.5-13.5l0,0
   c0-7.5,8.3-17.6,15.8-17.6L236.7,200.3z"/>
 </g>
 <g>
  <defs>
   <path id="SVGID_7_" d="M236.7,200.3l2.2-51.8h10.9l6.2,52.1c1.3,12.3-8.4,23-20.7,23l-53.5-0.1c-7.5,0-13.5-6-13.5-13.5l0,0
    c0-7.5,6-13.5,13.5-13.5L236.7,200.3z"/>
  </defs>
  <clipPath id="SVGID_8_">
   <use xlink:href="#SVGID_7_"  style="overflow:visible;"/>
  </clipPath>
  <polygon class="st7" points="236.1,164.7 255.7,162.2 259,206.6 249,226.7 193.7,230.9 163.7,219.6 166,198.9 173.4,192.1 
   214.7,186.3 223.8,186.2   "/>
 </g>
</g>
<polygon class="st3" points="188.5,157.1 215.5,165.4 215.5,112.4 188.5,104.2 "/>
<path class="st2" d="M238.5,161.8h7.2l-0.1-17.7l0,0c-4,0-7.2,3.2-7.2,7.2L238.5,161.8z"/>
<path class="st2" d="M192.6,167.7h-7.2v-23.1l0,0c4,0,7.2,3.2,7.2,7.2V167.7z"/>
<polygon class="st8" points="411.8,136.3 391.8,96 390.9,129.2 400.5,147 "/>
<path class="st9" d="M388.5,124.9L211.7,278.7l9.1,14c10.2,9.6,26.2,9.3,36.1-0.6l144.5-145.8L388.5,124.9z"/>
<g>
 <g>
  <defs>
   <path id="SVGID_9_" d="M146.5,199.4l24.6-14l-7.7-4.5c0,0,9.9-18.1-2.1-35.3c-8.7-12.4-21.4-11.9-32.9-3.5
    c-12.9,9.5-8.6,26.1-3.5,32.6C129.9,181.1,146.5,199.4,146.5,199.4z"/>
  </defs>
  <clipPath id="SVGID_10_">
   <use xlink:href="#SVGID_9_"  style="overflow:visible;"/>
  </clipPath>
  <path class="st10" d="M146.5,199.4l24.6-14l-7.7-4.5c0,0,9.9-18.1-2.1-35.3c-8.7-12.4-21.4-11.9-32.9-3.5
   c-12.9,9.5-8.6,26.1-3.5,32.6C129.9,181.1,146.5,199.4,146.5,199.4z"/>
 </g>
 <g>
  <defs>
   <path id="SVGID_11_" d="M146.5,199.4l24.6-14l-7.7-4.5c0,0,9.9-18.1-2.1-35.3c-8.7-12.4-21.4-11.9-32.9-3.5
    c-12.9,9.5-8.6,26.1-3.5,32.6C129.9,181.1,146.5,199.4,146.5,199.4z"/>
  </defs>
  <clipPath id="SVGID_12_">
   <use xlink:href="#SVGID_11_"  style="overflow:visible;"/>
  </clipPath>
  <path class="st11" d="M157.7,133.1c0,0,3.5,36.7-24.7,51c-0.2,0.1-18.5-9.3-19.7-17.2c-0.5-3.2,2.5-30.9,10-34.5
   C134,127.3,157.7,133.1,157.7,133.1z"/>
 </g>
 <g>
  <defs>
   <path id="SVGID_13_" d="M146.5,199.4l24.6-14l-7.7-4.5c0,0,9.9-18.1-2.1-35.3c-8.7-12.4-21.4-11.9-32.9-3.5
    c-12.9,9.5-8.6,26.1-3.5,32.6C129.9,181.1,146.5,199.4,146.5,199.4z"/>
  </defs>
  <clipPath id="SVGID_14_">
   <use xlink:href="#SVGID_13_"  style="overflow:visible;"/>
  </clipPath>
  <path class="st12" d="M152.3,163.6c0,0-6-7.3-11.5-3.4s5.1,11.7,9.7,9.6S152.3,163.6,152.3,163.6z"/>
 </g>
</g>
<polyline class="st13" points="492.8,68.7 240.3,321.1 127.6,208.4 "/>
<linearGradient id="SVGID_15_" gradientUnits="userSpaceOnUse" x1="262" y1="-789.0035" x2="262" y2="-764.9039" gradientTransform="matrix(1 0 0 1 0 1201.2755)">
 <stop  offset="0" style="stop-color:#000000;stop-opacity:6.000000e-02"/>
 <stop  offset="0.8336" style="stop-color:#000000;stop-opacity:0"/>
</linearGradient>
<ellipse class="st14" cx="262" cy="424.4" rx="183" ry="12"/>
</svg>
