<svg xmlns="http://www.w3.org/2000/svg" id="Layer_1" viewBox="0 0 140 140">
  <style>
    .st3{fill:#a1887f}.st4{fill:#8d6e63}.st6{fill:#fff}.st9{fill:#d0d8dc}
  </style>
  <path fill="#33439b" d="M99.56 80.54a3.9 3.9 0 0 0-2-2.34c-3.91-1.94-9.5-3.48-14.1-4.54-1.15-2.33-2.8-4.83-5.09-6.42H62.86c-2.08 1.45-3.64 3.66-4.76 5.8-4.74 1.15-10.85 2.94-14.92 5.33a3.9 3.9 0 0 0-1.83 2.48 5.16 5.16 0 0 0 4.84 6.33c1.84.06 4.03.06 6.49-.08v.12h35.5V87c2.65.32 4.99.4 6.99.2a5.16 5.16 0 0 0 4.39-6.66z"/>
  <path fill="#37474f" d="M81.01 40.8a12.41 12.41 0 1 0-24.27 0H81z"/>
  <path fill="#44b3e6" d="M50.64 75.15a15.74 15.74 0 0 0 5.37-6l5.23-12.47c.3 4.05.82 7.8 1.31 10.79l.31-.23h15.51l.07.05c.48-2.97.98-6.66 1.28-10.65l5.24 12.5a15.75 15.75 0 0 0 5.63 6.18l.71.45c2.26.72 4.42 1.53 6.23 2.42l1.74-1.77-8.14-8.81-4.36-13.23a11.26 11.26 0 0 0-4.33-5.72 7.49 7.49 0 0 0-2.34-1.04l-.33-.09s-3.62.82-9.3.88c-5.27.05-9.48-.92-9.48-.92s-.58.1-1.19.42a11.24 11.24 0 0 0-5.6 6.47l-4.36 13.23-8.14 8.81 1.76 1.79a42 42 0 0 1 7.18-3.06z"/>
  <path d="M95.12 85.24a6.22 6.22 0 0 0-4.38-4.95l-3.5-1.03a21.11 21.11 0 0 0-4.72-.82l-15.3-.9-2.42-1.47a1.88 1.88 0 0 0-1.97.01l-2.74 1.71c-.31.2-.66.31-1.03.35l-3.06.33-1.34-.03c-1.4 0-2.8.32-4.07.92l-.73.35a8.04 8.04 0 0 0-4.53 6.21l-.14 1.13 6.76 1c2.34.33 4.72.17 7-.49l13.47-3.32 6.37 2.3a26.72 26.72 0 0 0 13.47 1.25l3.2-.53-.34-2.02z" class="st3"/>
  <path d="M82.52 78.44c1.6.1 3.18.37 4.71.82l.48.14a.78.78 0 0 0 .27-1.44l-.1-.06a4 4 0 0 0-2.1-.53l-3.65.08c-.36 0-.73-.06-1.06-.22l-2.94-1.34c-.64-.3-1.4-.2-1.95.25l-2.2 1.77.01.03 8.53.5z" class="st4"/>
  <path d="M44.25 75.29l-1.44-.7c-.7-.35-1.83-.76-2.94-.38a.44.44 0 0 0-.3.43.54.54 0 0 0-.18-.33.69.69 0 0 0-.9.12 4.84 4.84 0 0 0-1.2 2.89c-.05.82.35 1.6 1.02 2.06.53.36 1 .63 1.41.83.77.39 1.63.43 2.47.27.26-.05.57-.18.89-.36l.25-.14a9.79 9.79 0 0 0 1.5-1.1l.03-.01.1-.09c1.13-1.05.91-2.71-.71-3.5zm-4.78-.2c.08-.12.12-.25.12-.37.04.2.22.35.43.35.34 0 .82.07 1.23.36-.83.49-1.46.91-1.93 1.26-.36-.26-.56-.72.15-1.6zM103.69 77.32a4.84 4.84 0 0 0-1.21-2.89.69.69 0 0 0-.9-.12c-.1.09-.16.2-.18.33 0-.2-.12-.37-.3-.43-1.1-.38-2.24.03-2.93.39l-1.45.69c-1.62.78-1.84 2.44-.7 3.5l.1.08.02.02a9.79 9.79 0 0 0 1.76 1.23c.31.18.62.31.89.36.83.16 1.7.12 2.46-.27.4-.2.88-.47 1.41-.83a2.35 2.35 0 0 0 1.03-2.06zm-2.74-2.25c.22 0 .4-.15.44-.35 0 .12.03.25.12.36.7.9.5 1.35.14 1.61a19 19 0 0 0-1.93-1.26c.41-.29.9-.36 1.23-.36z" class="st3"/>
  <path fill="#f05323" d="M135.41 65.2l-19.78 5.49a4 4 0 0 1-4.92-2.79l-5.49-19.78A4 4 0 0 1 108 43.2l19.78-5.5a4 4 0 0 1 4.93 2.8l5.49 19.77a4 4 0 0 1-2.79 4.93z"/>
  <path d="M111.71 49.9l3.75 13.52 16.43-4.56-3.75-13.51-16.43 4.55zm7.18 11.39l-2.41.67-.42-1.5 2.42-.67.41 1.5zm-.88-3.2l-2.42.68-.41-1.5 2.41-.67.42 1.5zm-.89-3.19l-2.41.67-.42-1.5 2.42-.66.41 1.5zm-.88-3.19l-2.42.67-.41-1.5 2.41-.67.42 1.5zm14.02 6.43l-2.42.67-.41-1.5 2.41-.67.42 1.5zm-.9-3.2l-2.4.67-.42-1.5 2.41-.66.42 1.5zm-.88-3.19l-2.41.67-.42-1.5 2.42-.67.41 1.5zm-.88-3.2l-2.42.68-.41-1.5 2.41-.67.42 1.5z" class="st6"/>
  <path fill="#ffcb28" d="M48.1 30.91L32.58 44.36a4 4 0 0 1-5.65-.4L13.5 28.46a4 4 0 0 1 .4-5.65L29.4 9.36a4 4 0 0 1 5.65.4l13.45 15.5a4 4 0 0 1-.4 5.65z"/>
  <path d="M38.48 24.94l-7.53-8.69-7.03 9.45 6.83 7.87a2.88 2.88 0 0 0-2.17.72c-1.15 1-1.35 2.64-.46 3.67.9 1.03 2.56 1.06 3.7.07 1.14-.98 1.35-2.6.5-3.63l-.04-.05-6.26-7.22 6.24-8.39 4.8 5.54a2.88 2.88 0 0 0-2.16.72c-1.15 1-1.35 2.64-.45 3.67.9 1.03 2.55 1.06 3.7.07 1.1-.95 1.33-2.5.57-3.53a2.25 2.25 0 0 0-.24-.27zm-12.9 1.7l-.83-.97 6.24-8.4.84.98-6.25 8.38z" class="st6"/>
  <path fill="#f78c1e" d="M58.13 133.77l-19.4-6.71a4 4 0 0 1-2.47-5.1l6.72-19.39a4 4 0 0 1 5.09-2.47l19.4 6.72a4 4 0 0 1 2.46 5.09l-6.71 19.4a4 4 0 0 1-5.1 2.46z"/>
  <path d="M47.18 107.93l-4.4 12.88 16.05 5.5 4.4-12.88-16.05-5.5zm-.12 3.77l5.71 1.95-2.15 6.3-5.7-1.96 2.14-6.3zm11.12 13.11l-13.97-4.78.07-.2 13.97 4.78-.07.2zm.7-2.04l-7.3-2.5.06-.2 7.31 2.5-.07.2zm.7-2.03l-7.31-2.5.07-.2 7.3 2.5-.06.2zm.69-2.03l-7.3-2.5.06-.2 7.31 2.5-.07.2zm.7-2.03l-7.31-2.5.07-.2 7.3 2.5-.07.2zm-13.6-5.86l.51-1.51 13.97 4.78-.51 1.51-13.97-4.78z" class="st6"/>
  <path d="M33.17 107.51a55.1 55.1 0 0 1-18.27-32.1 55.06 55.06 0 0 1 2.2-28.02l6.82 9.27a.73.73 0 1 0 1.18-.88l-7.4-10.04.02-.07-.1-.04-.54-.73-.64.25-.08-.04-.02.08-11.9 4.53a.73.73 0 0 0 .53 1.37L15.67 47a56.52 56.52 0 0 0-2.22 28.65 56.52 56.52 0 0 0 18.76 32.97.73.73 0 1 0 .95-1.11zM124.36 75.75a.74.74 0 0 0-.53.57 55.48 55.48 0 0 1-24.12 35.74 55.06 55.06 0 0 1-22.98 8.5l5.3-10.39a.73.73 0 0 0-1.3-.66l-6.15 12.04 9.95 9.14a.73.73 0 0 0 1.04-.04.73.73 0 0 0-.05-1.04l-8.31-7.64a56.52 56.52 0 0 0 23.3-8.68 56.69 56.69 0 0 0 15.64-15.19 56.69 56.69 0 0 0 9.12-21.5c.11-.53-.38-1-.91-.85zM117.21 18.92a.73.73 0 0 0-.87.57l-2.27 10.8a55.05 55.05 0 0 0-12.14-11.36A56.68 56.68 0 0 0 59.4 9.65c-3.86.69-7.59 1.76-11.17 3.2a.74.74 0 0 0 .55 1.36 55.62 55.62 0 0 1 32.88-2.65 55.22 55.22 0 0 1 19.43 8.58 55.27 55.27 0 0 1 12.15 11.52l-11.83.75a.73.73 0 0 0 .09 1.47l13.5-.86 2.78-13.23a.73.73 0 0 0-.57-.87z" class="st9"/>
  <ellipse cx="71.26" cy="94.01" fill="#d1dbdf" opacity=".54" rx="30.54" ry="1.35"/>
  <path d="M74.66 46.79a2.78 2.78 0 0 1-2.41-2.36c-.08-.47-.1-.96-.12-1.43a5.69 5.69 0 0 0 2.43-4.65V35.5h-2.69c0-4.4-2.32-4.95-2.32-4.95 1.28 1.71.6 4.95.6 4.95H63.2v2.85a5.7 5.7 0 0 0 3.13 5.08c-.06.67-.14 1.31-.22 1.83-.12.79-.72 1.4-1.5 1.55L61 47.5s4.22.97 9.49.92c5.28-.06 8.79-.77 9.24-.87-1.7-.27-5.06-.75-5.06-.75z" class="st3"/>
  <path d="M72.04 43a5.63 5.63 0 0 1-5.81.43c-.06.67-.14 1.31-.22 1.83-.12.79-.72 1.4-1.5 1.55l-.96.18c4.42-.58 7.4-2.92 8.5-3.9v-.1zM65.71 81.75l-9.83-1.27c-.57-.07-1.15 0-1.67.23a.78.78 0 0 1-.78-1.33l.59-.45c.26-.2.56-.32.88-.35l1.2-.13-1.34-.03c-1.41 0-2.8.32-4.07.92l-.73.35a8.04 8.04 0 0 0-2.58 1.93c5.42-1.18 12.07.8 15.86 2.05 1 .33 3.08 1.06 4.78 1.66l4.5-1.11-6.8-2.47z" class="st4"/>
</svg>
